{
.appVersion = "1270";
DisplayStrings = (
"/quotedblleft A/quoteright A/quoteright A/quoteleft/quotesinglbase/quotedblbase A/quotedblleft/quotedblright/quotedblbase T/quotedblbase/quotedblbase Y/quotedblbase/quotedblbase V/quotedblbase"
);
copyright = "Copyright © 2018 by Adrien Midzic. All rights reserved.";
customParameters = (
{
name = panose;
value = (
0,
0,
5,
0,
0,
0,
0,
0,
0,
0
);
},
{
name = unicodeRanges;
value = (
0,
1,
2,
7,
9
);
},
{
name = codePageRanges;
value = (
1252,
1250,
1251,
1253,
1254,
1257
);
},
{
name = glyphOrder;
value = (
.notdef,
A,
Aacute,
Abreve,
Acircumflex,
Adieresis,
Agrave,
Amacron,
Aogonek,
Aring,
Atilde,
AE,
B,
C,
Cacute,
Ccaron,
Ccedilla,
Cdotaccent,
D,
Eth,
Dcaron,
Dcroat,
E,
Eacute,
Ecaron,
Ecircumflex,
Edieresis,
Edotaccent,
Egrave,
Emacron,
Eogonek,
F,
G,
Gbreve,
Gdotaccent,
H,
Hbar,
I,
Iacute,
Icircumflex,
Idieresis,
Idotaccent,
Igrave,
Imacron,
Iogonek,
J,
K,
L,
Lacute,
Lcaron,
Ldot,
Lslash,
M,
N,
Nacute,
Ncaron,
Eng,
Ntilde,
O,
Oacute,
Ocircumflex,
Odieresis,
Ograve,
Ohungarumlaut,
Omacron,
Oslash,
Otilde,
OE,
P,
Thorn,
Q,
R,
Racute,
Rcaron,
S,
Sacute,
Scaron,
Scedilla,
T,
Tbar,
Tcaron,
U,
Uacute,
Ucircumflex,
Udieresis,
Ugrave,
Uhungarumlaut,
Umacron,
Uogonek,
Uring,
V,
W,
Wacute,
Wcircumflex,
Wdieresis,
Wgrave,
X,
Y,
Yacute,
Ycircumflex,
Ydieresis,
Ygrave,
Z,
Zacute,
Zcaron,
Zdotaccent,
A.ss02,
AE.ss02,
B.ss02,
C.ss02,
Ccedilla.ss02,
D.ss02,
E.ss02,
F.ss02,
G.ss02,
H.ss02,
I.ss02,
J.ss02,
K.ss02,
L.ss02,
M.ss02,
N.ss02,
O.ss02,
Oacute.ss02,
Ocircumflex.ss02,
Odieresis.ss02,
Ograve.ss02,
Ohungarumlaut.ss02,
Omacron.ss02,
Oslash.ss02,
Otilde.ss02,
P.ss02,
Q.ss02,
R.ss02,
S.ss02,
T.ss02,
U.ss02,
V.ss02,
W.ss02,
X.ss02,
Y.ss02,
Z.ss02,
A.ss03,
AE.ss03,
B.ss03,
C.ss03,
Ccedilla.ss03,
D.ss03,
E.ss03,
F.ss03,
G.ss03,
H.ss03,
I.ss03,
J.ss03,
K.ss03,
L.ss03,
M.ss03,
N.ss03,
O.ss03,
Oacute.ss03,
Ocircumflex.ss03,
Odieresis.ss03,
Ograve.ss03,
Ohungarumlaut.ss03,
Omacron.ss03,
Oslash.ss03,
Otilde.ss03,
P.ss03,
Q.ss03,
R.ss03,

glyphs = (
{
glyphname = A;
lastChange = "2019-10-31 17:04:25 +0000";
layers = (
{
hints = (
{
horizontal = 1;
place = "{161, 102}";
type = Stem;
},
{
place = "{-39, 708}";
type = Stem;
}
);
layerId = "327F32D8-5A79-4D64-B4F5-E4A412D056ED";
paths = (
{
closed = 1;
nodes = (
"93 -8 LINE",
"198 153 LINE",
"507 153 LINE",
"535 -8 LINE",
"679 -8 LINE",
"530 687 LINE",
"415 687 LINE",
"-54 -8 LINE"
);
},
{
closed = 1;
nodes = (
"423 671 LINE",
"518 671 LINE",
"659 8 LINE",
"549 8 LINE",
"521 169 LINE",
"190 169 LINE",
"85 8 LINE",
"-24 8 LINE"
);
},
{
closed = 1;
nodes = (
"440 520 LINE",
"487 271 LINE",
"275 271 LINE"
);
},
{
closed = 1;
nodes = (
"507 255 LINE",
"448 562 LINE",
"245 255 LINE"
);
}
);
width = 750;
}
);
leftKerningGroup = A;
note = A;
rightKerningGroup = A;
unicode = 0041;
},
{
glyphname = Aacute;
lastChange = "2018-03-11 16:48:54 +0000";
layers = (
{
hints = (
{
horizontal = 1;
place = "{161, 102}";
type = Stem;
},
{
horizontal = 1;
place = "{748, 171}";
type = Stem;
},
{
place = "{-39, 737}";
type = Stem;
}
);
layerId = "327F32D8-5A79-4D64-B4F5-E4A412D056ED";
paths = (
{
closed = 1;
nodes = (
"93 -8 LINE",
"198 153 LINE",
"507 153 LINE",
"535 -8 LINE",
"679 -8 LINE",
"530 687 LINE",
"415 687 LINE",
"-54 -8 LINE"
);
},
{
closed = 1;
nodes = (
"423 671 LINE",
"518 671 LINE",
"659 8 LINE",
"549 8 LINE",
"521 169 LINE",
"190 169 LINE",
"85 8 LINE",
"-24 8 LINE"
);
},
{
closed = 1;
nodes = (
"440 520 LINE",
"487 271 LINE",
"275 271 LINE"
);
},
{
closed = 1;
nodes = (
"507 255 LINE",
"448 562 LINE",
"245 255 LINE"
);
},
{
closed = 1;
nodes = (
"540 740 LINE",
"717 927 LINE",
"561 927 LINE",
"420 740 LINE"
);
},
{
closed = 1;
nodes = (
"569 911 LINE",
"679 911 LINE",
"534 756 LINE",
"452 756 LINE"
);
}
);
width = 750;
}
);
leftKerningGroup = A;
note = Aacute;
rightKerningGroup = A;
unicode = 00C1;
},
{
glyphname = Abreve;
lastChange = "2018-03-11 16:48:54 +0000";
layers = (
{
hints = (
{
horizontal = 1;
place = "{161, 102}";
type = Stem;
},
{
horizontal = 1;
place = "{748, 88}";
type = Stem;
},
{
place = "{356.01, 103.11}";
type = Stem;
}
);
layerId = "327F32D8-5A79-4D64-B4F5-E4A412D056ED";
paths = (
{
closed = 1;
nodes = (
"93 -8 LINE",
"198 153 LINE",
"507 153 LINE",
"535 -8 LINE",
"679 -8 LINE",
"530 687 LINE",
"415 687 LINE",
"-54 -8 LINE"
);
},
{
closed = 1;
nodes = (
"423 671 LINE",
"518 671 LINE",
"659 8 LINE",
"549 8 LINE",
"521 169 LINE",
"190 169 LINE",
"85 8 LINE",
"-24 8 LINE"
);
},
{
closed = 1;
nodes = (
"440 520 LINE",
"487 271 LINE",
"275 271 LINE"
);
},
{
closed = 1;
nodes = (
"507 255 LINE",
"448 562 LINE",
"245 255 LINE"
);
},
{
closed = 1;
nodes = (
"609 740 OFFCURVE",
"679 847 OFFCURVE",
"694 927 CURVE",
"576 927 LINE",
"572 901 OFFCURVE",
"546 844 OFFCURVE",
"503 844 CURVE SMOOTH",
"461 844 OFFCURVE",
"463 902 OFFCURVE",
"473 927 CURVE",
"355 927 LINE",
"326 818 OFFCURVE",
"379 740 OFFCURVE",
"483 740 CURVE SMOOTH"
);
},
{
closed = 1;
nodes = (
"375 756 OFFCURVE",
"352 837 OFFCURVE",
"367 911 CURVE",
"452 911 LINE",
"448 879 OFFCURVE",
"456 828 OFFCURVE",
"503 828 CURVE SMOOTH",
"550 828 OFFCURVE",
"580 880 OFFCURVE",
"589 911 CURVE",
"674 911 LINE",
"653 838 OFFCURVE",
"591 756 OFFCURVE",
"483 756 CURVE SMOOTH"
);
}
);
width = 750;
}
);
leftKerningGroup = A;
note = Abreve;
rightKerningGroup = A;
unicode = 0102;
},
{
glyphname = Acircumflex;
lastChange = "2018-03-11 16:48:54 +0000";
layers = (
{
hints = (
{
horizontal = 1;
place = "{161, 102}";
type = Stem;
},
{
horizontal = 1;
place = "{748, 171}";
type = Stem;
},
{
place = "{-39, 708}";
type = Stem;
}
);
layerId = "327F32D8-5A79-4D64-B4F5-E4A412D056ED";
paths = (
{
closed = 1;
nodes = (
"93 -8 LINE",
"198 153 LINE",
"507 153 LINE",
"535 -8 LINE",
"679 -8 LINE",
"530 687 LINE",
"415 687 LINE",
"-54 -8 LINE"
);
},
{
closed = 1;
nodes = (
"423 671 LINE",
"518 671 LINE",
"659 8 LINE",
"549 8 LINE",
"521 169 LINE",
"190 169 LINE",
"85 8 LINE",
"-24 8 LINE"
);
},
{
closed = 1;
nodes = (
"440 520 LINE",
"487 271 LINE",
"275 271 LINE"
);
},
{
closed = 1;
nodes = (
"507 255 LINE",
"448 562 LINE",
"245 255 LINE"
);
},
{
closed = 1;
nodes = (
"426 740 LINE",
"501 817 LINE",
"539 740 LINE",
"657 740 LINE",
"584 927 LINE",
"462 927 LINE",
"305 740 LINE"
);
},
{
closed = 1;
nodes = (
"470 911 LINE",
"574 911 LINE",
"633 756 LINE",
"549 756 LINE",
"505 845 LINE",
"420 756 LINE",
"339 756 LINE"
);
}
);
width = 750;
}
);
leftKerningGroup = A;
note = Acircumflex;
rightKerningGroup = A;
unicode = 00C2;
},
{
glyphname = Adieresis;
lastChange = "2018-03-11 16:48:54 +0000";
layers = (
{
hints = (
{
horizontal = 1;
place = "{161, 102}";
type = Stem;
},
{
horizontal = 1;
place = "{760, 111}";
type = Stem;
},
{
place = "{-39, 708}";
type = Stem;
}
);
layerId = "327F32D8-5A79-4D64-B4F5-E4A412D056ED";
paths = (
{
closed = 1;
nodes = (
"93 -8 LINE",
"198 153 LINE",
"507 153 LINE",
"535 -8 LINE",
"679 -8 LINE",
"530 687 LINE",
"415 687 LINE",
"-54 -8 LINE"
);
},
{
closed = 1;
nodes = (
"423 671 LINE",
"518 671 LINE",
"659 8 LINE",
"549 8 LINE",
"521 169 LINE",
"190 169 LINE",
"85 8 LINE",
"-24 8 LINE"
);
},
{
closed = 1;
nodes = (
"440 520 LINE",
"487 271 LINE",
"275 271 LINE"
);
},
{
closed = 1;
nodes = (
"507 255 LINE",
"448 562 LINE",
"245 255 LINE"
);
},
{
closed = 1;
nodes = (
"419 752 OFFCURVE",
"452 779 OFFCURVE",
"460 813 CURVE SMOOTH",
"468 849 OFFCURVE",
"445 879 OFFCURVE",
"410 879 CURVE SMOOTH",
"375 879 OFFCURVE",
"341 851 OFFCURVE",
"333 817 CURVE SMOOTH",
"325 782 OFFCURVE",
"349 752 OFFCURVE",
"385 752 CURVE SMOOTH"
);
},
{
closed = 1;
nodes = (
"359 768 OFFCURVE",
"343 788 OFFCURVE",
"349 813 CURVE SMOOTH",
"355 840 OFFCURVE",
"383 863 OFFCURVE",
"410 863 CURVE SMOOTH",
"435 863 OFFCURVE",
"450 843 OFFCURVE",
"444 817 CURVE SMOOTH",
"438 790 OFFCURVE",
"411 768 OFFCURVE",
"385 768 CURVE SMOOTH"
);
},
{
closed = 1;
nodes = (
"611 752 OFFCURVE",
"644 779 OFFCURVE",
"652 813 CURVE SMOOTH",
"660 849 OFFCURVE",
"637 879 OFFCURVE",
"602 879 CURVE SMOOTH",
"567 879 OFFCURVE",
"533 851 OFFCURVE",
"525 817 CURVE SMOOTH",
"517 782 OFFCURVE",
"541 752 OFFCURVE",
"577 752 CURVE SMOOTH"
);
},
{
closed = 1;
nodes = (
"551 768 OFFCURVE",
"535 788 OFFCURVE",
"541 813 CURVE SMOOTH",
"547 840 OFFCURVE",
"575 863 OFFCURVE",
"602 863 CURVE SMOOTH",
"627 863 OFFCURVE",
"642 843 OFFCURVE",
"636 817 CURVE SMOOTH",
"630 790 OFFCURVE",
"603 768 OFFCURVE",
"577 768 CURVE SMOOTH"
);
}
);
width = 750;
}
);
leftKerningGroup = A;
note = Adieresis;
rightKerningGroup = A;
unicode = 00C4;
},
{
glyphname = Agrave;
lastChange = "2018-03-11 16:48:54 +0000";
layers = (
{
hints = (
{
horizontal = 1;
place = "{161, 102}";
type = Stem;
},
{
horizontal = 1;
place = "{748, 171}";
type = Stem;
},
{
place = "{-39, 708}";
type = Stem;
}
);
layerId = "327F32D8-5A79-4D64-B4F5-E4A412D056ED";
paths = (
{
closed = 1;
nodes = (
"93 -8 LINE",
"198 153 LINE",
"507 153 LINE",
"535 -8 LINE",
"679 -8 LINE",
"530 687 LINE",
"415 687 LINE",
"-54 -8 LINE"
);
},
{
closed = 1;
nodes = (
"423 671 LINE",
"518 671 LINE",
"659 8 LINE",
"549 8 LINE",
"521 169 LINE",
"190 169 LINE",
"85 8 LINE",
"-24 8 LINE"
);
},
{
closed = 1;
nodes = (
"440 520 LINE",
"487 271 LINE",
"275 271 LINE"
);
},
{
closed = 1;
nodes = (
"507 255 LINE",
"448 562 LINE",
"245 255 LINE"
);
},
{
closed = 1;
nodes = (
"544 740 LINE",
"488 927 LINE",
"336 927 LINE",
"427 740 LINE"
);
},
{
closed = 1;
nodes = (
"362 911 LINE",
"476 911 LINE",
"522 756 LINE",
"437 756 LINE"
);
}
);
width = 750;
}
);
leftKerningGroup = A;
note = Agrave;
rightKerningGroup = A;
unicode = 00C0;
},
{
glyphname = Amacron;
lastChange = "2018-03-11 16:48:54 +0000";
layers = (
{
hints = (
{
horizontal = 1;
place = "{161, 102}";
type = Stem;
},
{
horizontal = 1;
place = "{763, 90}";
type = Stem;
},
{
place = "{-39, 708}";
type = Stem;
}
);
layerId = "327F32D8-5A79-4D64-B4F5-E4A412D056ED";
paths = (
{
closed = 1;
nodes = (
"93 -8 LINE",
"198 153 LINE",
"507 153 LINE",
"535 -8 LINE",
"679 -8 LINE",
"530 687 LINE",
"415 687 LINE",
"-54 -8 LINE"
);
},
{
closed = 1;
nodes = (
"423 671 LINE",
"518 671 LINE",
"659 8 LINE",
"549 8 LINE",
"521 169 LINE",
"190 169 LINE",
"85 8 LINE",
"-24 8 LINE"
);
},
{
closed = 1;
nodes = (
"440 520 LINE",
"487 271 LINE",
"275 271 LINE"
);
},
{
closed = 1;
nodes = (
"507 255 LINE",
"448 562 LINE",
"245 255 LINE"
);
},
{
closed = 1;
nodes = (
"631 755 LINE",
"656 861 LINE",
"363 861 LINE",
"338 755 LINE"
);
},
{
closed = 1;
nodes = (
"375 845 LINE",
"636 845 LINE",
"619 771 LINE",
"358 771 LINE"
);
}
);
width = 750;
}
);
leftKerningGroup = A;
note = Amacron;
rightKerningGroup = A;
unicode = 0100;
},
{
glyphname = Aogonek;
lastChange = "2018-03-11 16:48:54 +0000";
layers = (
{
hints = (
{
horizontal = 1;
place = "{161, 102}";
type = Stem;
},
{
place = "{507.11, 93.89}";
type = Stem;
},
{
horizontal = 1;
place = "{-225, 88}";
type = Stem;
}
);
layerId = "327F32D8-5A79-4D64-B4F5-E4A412D056ED";
paths = (
{
closed = 1;
nodes = (
"662 -129 LINE",
"614 -130 OFFCURVE",
"603 -123 OFFCURVE",
"609 -96 CURVE SMOOTH",
"617 -61 OFFCURVE",
"676 -6 OFFCURVE",
"676 -6 CURVE",
"670 8 LINE",
"675 8 LINE",
"530 687 LINE",
"415 687 LINE",
"-54 -8 LINE",
"93 -8 LINE",
"198 153 LINE",
"507 153 LINE",
"535 -8 LINE",
"570 -8 LINE",
"548 -27 OFFCURVE",
"513 -62 OFFCURVE",
"502 -107 CURVE SMOOTH",
"478 -209 OFFCURVE",
"589 -235 OFFCURVE",
"637 -233 CURVE"
);
},
{
closed = 1;
nodes = (
"575 -215 OFFCURVE",
"499 -190 OFFCURVE",
"518 -111 CURVE SMOOTH",
"532 -49 OFFCURVE",
"598 -7 OFFCURVE",
"598 -7 CURVE",
"594 8 LINE",
"549 8 LINE",
"521 169 LINE",
"190 169 LINE",
"85 8 LINE",
"-24 8 LINE",
"423 671 LINE",
"518 671 LINE",
"663 -8 LINE",
"670 -8 LINE",
"664 6 LINE",
"664 6 OFFCURVE",
"603 -53 OFFCURVE",
"593 -92 CURVE",
"586 -127 OFFCURVE",
"602 -143 OFFCURVE",
"642 -145 CURVE",
"625 -217 LINE"
);
},
{
closed = 1;
nodes = (
"440 520 LINE",
"487 271 LINE",
"275 271 LINE"
);
},
{
closed = 1;
nodes = (
"507 255 LINE",
"448 562 LINE",
"245 255 LINE"
);
}
);
width = 750;
}
);
leftKerningGroup = A;
note = Aogonek;
rightKerningGroup = A;
unicode = 0104;
},
{
glyphname = Aring;
lastChange = "2018-03-11 16:48:54 +0000";
layers = (
{
hints = (
{
horizontal = 1;
place = "{161, 102}";
type = Stem;
},
{
horizontal = 1;
place = "{743, 72}";
type = Stem;
},
{
horizontal = 1;
place = "{877, 72}";
type = Stem;
},
{
place = "{400.23, 74.77}";
type = Stem;
},
{
place = "{536, 74.66}";
type = Stem;
}
);
layerId = "327F32D8-5A79-4D64-B4F5-E4A412D056ED";
paths = (
{
closed = 1;
nodes = (
"93 -8 LINE",
"198 153 LINE",
"507 153 LINE",
"535 -8 LINE",
"679 -8 LINE",
"530 687 LINE",
"415 687 LINE",
"-54 -8 LINE"
);
},
{
closed = 1;
nodes = (
"423 671 LINE",
"518 671 LINE",
"659 8 LINE",
"549 8 LINE",
"521 169 LINE",
"190 169 LINE",
"85 8 LINE",
"-24 8 LINE"
);
},
{
closed = 1;
nodes = (
"440 520 LINE",
"487 271 LINE",
"275 271 LINE"
);
},
{
closed = 1;
nodes = (
"507 255 LINE",
"448 562 LINE",
"245 255 LINE"
);
},
{
closed = 1;
nodes = (
"542 735 OFFCURVE",
"602 783 OFFCURVE",
"616 843 CURVE SMOOTH",
"630 906 OFFCURVE",
"591 957 OFFCURVE",
"529 957 CURVE SMOOTH",
"468 957 OFFCURVE",
"409 909 OFFCURVE",
"395 847 CURVE SMOOTH",
"381 784 OFFCURVE",
"418 735 OFFCURVE",
"481 735 CURVE SMOOTH"
);
},
{
closed = 1;
nodes = (
"429 751 OFFCURVE",
"399 791 OFFCURVE",
"411 843 CURVE SMOOTH",
"423 898 OFFCURVE",
"475 941 OFFCURVE",
"529 941 CURVE SMOOTH",
"581 941 OFFCURVE",
"612 900 OFFCURVE",
"600 847 CURVE SMOOTH",
"588 794 OFFCURVE",
"535 751 OFFCURVE",
"481 751 CURVE SMOOTH"
);
},
{
closed = 1;
nodes = (
"486 823 OFFCURVE",
"480 831 OFFCURVE",
"483 843 CURVE",
"486 858 OFFCURVE",
"499 869 OFFCURVE",
"512 869 CURVE SMOOTH",
"524 869 OFFCURVE",
"531 860 OFFCURVE",
"528 847 CURVE SMOOTH",
"525 834 OFFCURVE",
"511 823 OFFCURVE",
"498 823 CURVE SMOOTH"
);
},
{
closed = 1;
nodes = (
"519 807 OFFCURVE",
"539 823 OFFCURVE",
"544 843 CURVE SMOOTH",
"549 866 OFFCURVE",
"534 885 OFFCURVE",
"512 885 CURVE SMOOTH",
"491 885 OFFCURVE",
"472 869 OFFCURVE",
"467 847 CURVE SMOOTH",
"462 825 OFFCURVE",
"476 807 OFFCURVE",
"498 807 CURVE SMOOTH"
);
}
);
width = 750;
}
);
leftKerningGroup = A;
note = Aring;
rightKerningGroup = A;
unicode = 00C5;
},
{
glyphname = Atilde;
lastChange = "2018-03-11 16:48:54 +0000";
layers = (
{
hints = (
{
horizontal = 1;
place = "{161, 102}";
type = Stem;
},
{
horizontal = 1;
place = "{797, 90}";
type = Stem;
},
{
place = "{-39, 711}";
type = Stem;
},
{
horizontal = 1;
place = "{743, 90}";
type = Stem;
}
);
layerId = "327F32D8-5A79-4D64-B4F5-E4A412D056ED";
paths = (
{
closed = 1;
nodes = (
"93 -8 LINE",
"198 153 LINE",
"507 153 LINE",
"535 -8 LINE",
"679 -8 LINE",
"530 687 LINE",
"415 687 LINE",
"-54 -8 LINE"
);
},
{
closed = 1;
nodes = (
"423 671 LINE",
"518 671 LINE",
"659 8 LINE",
"549 8 LINE",
"521 169 LINE",
"190 169 LINE",
"85 8 LINE",
"-24 8 LINE"
);
},
{
closed = 1;
nodes = (
"440 520 LINE",
"487 271 LINE",
"275 271 LINE"
);
},
{
closed = 1;
nodes = (
"507 255 LINE",
"448 562 LINE",
"245 255 LINE"
);
},
{
closed = 1;
nodes = (
"608 735 OFFCURVE",
"654 779 OFFCURVE",
"682 855 CURVE",
"592 890 LINE",
"581 868 OFFCURVE",
"575 841 OFFCURVE",
"556 841 CURVE SMOOTH",
"547 841 OFFCURVE",
"535 848 OFFCURVE",
"514 866 CURVE",
"509 868 LINE",
"527 868 LINE",
"528 869 LINE",
"511 869 LINE",
"496 881 OFFCURVE",
"473 895 OFFCURVE",
"441 895 CURVE SMOOTH",
"388 895 OFFCURVE",
"342 851 OFFCURVE",
"314 775 CURVE",
"404 740 LINE",
"415 762 OFFCURVE",
"421 789 OFFCURVE",
"440 789 CURVE SMOOTH",
"449 789 OFFCURVE",
"461 782 OFFCURVE",
"482 764 CURVE",
"487 762 LINE",
"469 762 LINE",
"468 761 LINE",
"485 761 LINE",
"500 749 OFFCURVE",
"523 735 OFFCURVE",
"555 735 CURVE SMOOTH"
);
},
{
closed = 1;
nodes = (
"533 751 OFFCURVE",
"515 758 OFFCURVE",
"493 775 CURVE",
"488 777 LINE",
"506 777 LINE",
"507 778 LINE",
"490 778 LINE",
"475 791 OFFCURVE",
"457 805 OFFCURVE",
"440 805 CURVE SMOOTH",
"414 805 OFFCURVE",
"404 780 OFFCURVE",
"396 760 CURVE",
"334 784 LINE",
"360 845 OFFCURVE",
"399 879 OFFCURVE",
"441 879 CURVE SMOOTH",
"463 879 OFFCURVE",
"481 872 OFFCURVE",
"503 855 CURVE",
"508 853 LINE",
"490 853 LINE",
"489 852 LINE",
"506 852 LINE",
"521 839 OFFCURVE",
"539 825 OFFCURVE",
"556 825 CURVE SMOOTH",
"582 825 OFFCURVE",
"592 850 OFFCURVE",
"600 870 CURVE",
"662 846 LINE",
"636 785 OFFCURVE",
"597 751 OFFCURVE",
"555 751 CURVE SMOOTH"
);
}
);
width = 750;
}
);
leftKerningGroup = A;
note = Atilde;
rightKerningGroup = A;
unicode = 00C3;
},
{
glyphname = AE;
lastChange = "2018-03-11 16:48:54 +0000";
layers = (
{
hints = (
{
horizontal = 1;
place = "{0, 102}";
type = Stem;
},
{
horizontal = 1;
place = "{161, 102}";
type = Stem;
},
{
horizontal = 1;
place = "{311, 102}";
type = Stem;
},
{
horizontal = 1;
place = "{577, 102}";
type = Stem;
},
{
place = "{-60, 1144}";
type = Stem;
}
);
layerId = "327F32D8-5A79-4D64-B4F5-E4A412D056ED";
paths = (
{
closed = 1;
nodes = (
"79 -8 LINE",
"229 153 LINE",
"458 153 LINE",
"421 -8 LINE",
"939 -8 LINE",
"967 110 LINE",
"574 110 LINE",
"618 303 LINE",
"926 303 LINE",
"954 421 LINE",
"645 421 LINE",
"679 569 LINE",
"1067 569 LINE",
"1094 687 LINE",
"573 687 LINE",
"-78 -8 LINE"
);
},
{
closed = 1;
nodes = (
"579 671 LINE",
"1074 671 LINE",
"1055 585 LINE",
"667 585 LINE",
"625 405 LINE",
"934 405 LINE",
"914 319 LINE",
"606 319 LINE",
"554 94 LINE",
"947 94 LINE",
"927 8 LINE",
"441 8 LINE",
"478 169 LINE",
"223 169 LINE",
"73 8 LINE",
"-42 8 LINE"
);
},
{
closed = 1;
nodes = (
"533 478 LINE",
"486 271 LINE",
"340 271 LINE"
);
},
{
closed = 1;
nodes = (
"498 255 LINE",
"563 532 LINE",
"304 255 LINE"
);
}
);
width = 1043;
}
);
leftKerningGroup = AE;
note = AE;
rightKerningGroup = AE;
unicode = 00C6;
},
{
glyphname = B;
lastChange = "2018-03-11 16:48:54 +0000";
layers = (
{
hints = (
{
horizontal = 1;
place = "{0, 102}";
type = Stem;
},
{
horizontal = 1;
place = "{311, 97}";
type = Stem;
},
{
horizontal = 1;
place = "{577, 102}";
type = Stem;
},
{
place = "{502.55, 116.06}";
type = Stem;
},
{
place = "{539.03, 113.25}";
type = Stem;
}
);
layerId = "327F32D8-5A79-4D64-B4F5-E4A412D056ED";
paths = (
{
closed = 1;
nodes = (
"326 -8 LINE SMOOTH",
"484 -8 OFFCURVE",
"591 69 OFFCURVE",
"622 204 CURVE SMOOTH",
"640 287 OFFCURVE",
"608 349 OFFCURVE",
"538 370 CURVE",
"597 391 OFFCURVE",
"639 439 OFFCURVE",
"654 502 CURVE SMOOTH",
"682 626 OFFCURVE",
"620 687 OFFCURVE",
"465 687 CURVE SMOOTH",
"181 687 LINE",
"20 -8 LINE"
);
},
{
closed = 1;
nodes = (
"193 671 LINE",
"465 671 LINE SMOOTH",
"610 671 OFFCURVE",
"664 619 OFFCURVE",
"638 506 CURVE SMOOTH",
"622 437 OFFCURVE",
"570 388 OFFCURVE",
"501 377 CURVE",
"501 361 LINE",
"585 354 OFFCURVE",
"626 294 OFFCURVE",
"606 208 CURVE SMOOTH",
"577 80 OFFCURVE",
"476 8 OFFCURVE",
"326 8 CURVE SMOOTH",
"40 8 LINE"
);
},
{
closed = 1;
nodes = (
"217 303 LINE",
"390 303 LINE SMOOTH",
"474 303 OFFCURVE",
"506 273 OFFCURVE",
"491 210 CURVE SMOOTH",
"476 143 OFFCURVE",
"427 110 OFFCURVE",
"342 110 CURVE SMOOTH",
"173 110 LINE"
);
},
{
closed = 1;
nodes = (
"342 94 LINE SMOOTH",
"435 94 OFFCURVE",
"490 131 OFFCURVE",
"507 206 CURVE SMOOTH",
"524 281 OFFCURVE",
"484 319 OFFCURVE",
"390 319 CURVE SMOOTH",
"205 319 LINE",
"153 94 LINE"
);
},
{
closed = 1;
nodes = (
"278 569 LINE",
"428 569 LINE SMOOTH",
"501 569 OFFCURVE",
"541 565 OFFCURVE",
"529 497 CURVE",
"515 438 OFFCURVE",
"476 416 OFFCURVE",
"383 416 CURVE SMOOTH",
"243 416 LINE"
);
},
{
closed = 1;
nodes = (
"383 400 LINE SMOOTH",
"483 400 OFFCURVE",
"529 427 OFFCURVE",
"545 494 CURVE",
"559 579 OFFCURVE",
"501 585 OFFCURVE",
"428 585 CURVE SMOOTH",
"266 585 LINE",
"223 400 LINE"
);
}
);
width = 666;
}
);
note = B;
rightKerningGroup = B;
unicode = 0042;
},
{
glyphname = C;
lastChange = "2018-03-11 16:48:54 +0000";
layers = (
{
hints = (
{
horizontal = 1;
place = "{-15, 103}";
type = Stem;
},
{
horizontal = 1;
place = "{593, 102}";
type = Stem;
},
{
place = "{53.61, 115.81}";
type = Stem;
}
);
layerId = "327F32D8-5A79-4D64-B4F5-E4A412D056ED";
paths = (
{
closed = 1;
nodes = (
"527 -23 OFFCURVE",
"611 41 OFFCURVE",
"617 40 CURVE",
"650 183 LINE",
"586 129 OFFCURVE",
"481 96 OFFCURVE",
"381 96 CURVE SMOOTH",
"229 96 OFFCURVE",
"151 192 OFFCURVE",
"185 338 CURVE SMOOTH",
"219 485 OFFCURVE",
"344 585 OFFCURVE",
"497 585 CURVE SMOOTH",
"613 585 OFFCURVE",
"690 525 OFFCURVE",
"692 518 CURVE",
"708 518 LINE",
"736 638 LINE",
"707 662 OFFCURVE",
"640 703 OFFCURVE",
"521 703 CURVE SMOOTH",
"303 706 OFFCURVE",
"101 548 OFFCURVE",
"56 342 CURVE SMOOTH",
"5 135 OFFCURVE",
"137 -26 OFFCURVE",
"357 -23 CURVE SMOOTH"
);
},
{
closed = 1;
nodes = (
"147 -10 OFFCURVE",
"23 141 OFFCURVE",
"72 338 CURVE SMOOTH",
"115 537 OFFCURVE",
"311 690 OFFCURVE",
"521 687 CURVE SMOOTH",
"626 687 OFFCURVE",
"687 655 OFFCURVE",
"718 632 CURVE",
"695 536 LINE",
"667 559 OFFCURVE",
"594 601 OFFCURVE",
"497 601 CURVE SMOOTH",
"337 601 OFFCURVE",
"205 496 OFFCURVE",
"169 342 CURVE SMOOTH",
"133 186 OFFCURVE",
"219 80 OFFCURVE",
"381 80 CURVE SMOOTH",
"468 80 OFFCURVE",
"558 104 OFFCURVE",
"625 145 CURVE",
"603 51 LINE",
"579 39 OFFCURVE",
"500 -7 OFFCURVE",
"357 -7 CURVE SMOOTH"
);
}
);
width = 704;
}
);
leftKerningGroup = C;
note = C;
rightKerningGroup = C;
unicode = 0043;
},
{
glyphname = Cacute;
lastChange = "2018-03-11 16:48:54 +0000";
layers = (
{
hints = (
{
horizontal = 1;
place = "{-15, 103}";
type = Stem;
},
{
horizontal = 1;
place = "{593, 102}";
type = Stem;
},
{
horizontal = 1;
place = "{748, 171}";
type = Stem;
},
{
place = "{53.61, 115.81}";
type = Stem;
}
);
layerId = "327F32D8-5A79-4D64-B4F5-E4A412D056ED";
paths = (
{
closed = 1;
nodes = (
"527 -23 OFFCURVE",
"611 41 OFFCURVE",
"617 40 CURVE",
"650 183 LINE",
"586 129 OFFCURVE",
"481 96 OFFCURVE",
"381 96 CURVE SMOOTH",
"229 96 OFFCURVE",
"151 192 OFFCURVE",
"185 338 CURVE SMOOTH",
"219 485 OFFCURVE",
"344 585 OFFCURVE",
"497 585 CURVE SMOOTH",
"613 585 OFFCURVE",
"690 525 OFFCURVE",
"692 518 CURVE",
"708 518 LINE",
"736 638 LINE",
"707 662 OFFCURVE",
"640 703 OFFCURVE",
"521 703 CURVE SMOOTH",
"303 706 OFFCURVE",
"101 548 OFFCURVE",
"56 342 CURVE SMOOTH",
"5 135 OFFCURVE",
"137 -26 OFFCURVE",
"357 -23 CURVE SMOOTH"
);
},
{
closed = 1;
nodes = (
"147 -10 OFFCURVE",
"23 141 OFFCURVE",
"72 338 CURVE SMOOTH",
"115 537 OFFCURVE",
"311 690 OFFCURVE",
"521 687 CURVE SMOOTH",
"626 687 OFFCURVE",
"687 655 OFFCURVE",
"718 632 CURVE",
"695 536 LINE",
"667 559 OFFCURVE",
"594 601 OFFCURVE",
"497 601 CURVE SMOOTH",
"337 601 OFFCURVE",
"205 496 OFFCURVE",
"169 342 CURVE SMOOTH",
"133 186 OFFCURVE",
"219 80 OFFCURVE",
"381 80 CURVE SMOOTH",
"468 80 OFFCURVE",
"558 104 OFFCURVE",
"625 145 CURVE",
"603 51 LINE",
"579 39 OFFCURVE",
"500 -7 OFFCURVE",
"357 -7 CURVE SMOOTH"
);
},
{
closed = 1;
nodes = (
"588 740 LINE",
"765 927 LINE",
"609 927 LINE",
"468 740 LINE"
);
},
{
closed = 1;
nodes = (
"617 911 LINE",
"727 911 LINE",
"582 756 LINE",
"500 756 LINE"
);
}
);
width = 704;
}
);
leftKerningGroup = C;
note = Cacute;
rightKerningGroup = C;
unicode = 0106;
},
{
glyphname = Ccaron;
lastChange = "2018-03-11 16:48:54 +0000";
layers = (
{
hints = (
{
horizontal = 1;
place = "{-15, 103}";
type = Stem;
},
{
horizontal = 1;
place = "{593, 102}";
type = Stem;
},
{
horizontal = 1;
place = "{748, 171}";
type = Stem;
},
{
place = "{53.61, 115.81}";
type = Stem;
}
);
layerId = "327F32D8-5A79-4D64-B4F5-E4A412D056ED";
paths = (
{
closed = 1;
nodes = (
"527 -23 OFFCURVE",
"611 41 OFFCURVE",
"617 40 CURVE",
"650 183 LINE",
"586 129 OFFCURVE",
"481 96 OFFCURVE",
"381 96 CURVE SMOOTH",
"229 96 OFFCURVE",
"151 192 OFFCURVE",
"185 338 CURVE SMOOTH",
"219 485 OFFCURVE",
"344 585 OFFCURVE",
"497 585 CURVE SMOOTH",
"613 585 OFFCURVE",
"690 525 OFFCURVE",
"692 518 CURVE",
"708 518 LINE",
"736 638 LINE",
"707 662 OFFCURVE",
"640 703 OFFCURVE",
"521 703 CURVE SMOOTH",
"303 706 OFFCURVE",
"101 548 OFFCURVE",
"56 342 CURVE SMOOTH",
"5 135 OFFCURVE",
"137 -26 OFFCURVE",
"357 -23 CURVE SMOOTH"
);
},
{
closed = 1;
nodes = (
"147 -10 OFFCURVE",
"23 141 OFFCURVE",
"72 338 CURVE SMOOTH",
"115 537 OFFCURVE",
"311 690 OFFCURVE",
"521 687 CURVE SMOOTH",
"626 687 OFFCURVE",
"687 655 OFFCURVE",
"718 632 CURVE",
"695 536 LINE",
"667 559 OFFCURVE",
"594 601 OFFCURVE",
"497 601 CURVE SMOOTH",
"337 601 OFFCURVE",
"205 496 OFFCURVE",
"169 342 CURVE SMOOTH",
"133 186 OFFCURVE",
"219 80 OFFCURVE",
"381 80 CURVE SMOOTH",
"468 80 OFFCURVE",
"558 104 OFFCURVE",
"625 145 CURVE",
"603 51 LINE",
"579 39 OFFCURVE",
"500 -7 OFFCURVE",
"357 -7 CURVE SMOOTH"
);
},
{
closed = 1;
nodes = (
"592 740 LINE",
"749 927 LINE",
"628 927 LINE",
"554 850 LINE",
"515 927 LINE",
"397 927 LINE",
"470 740 LINE"
);
},
{
closed = 1;
nodes = (
"421 911 LINE",
"505 911 LINE",
"550 822 LINE",
"634 911 LINE",
"715 911 LINE",
"584 756 LINE",
"480 756 LINE"
);
}
);
width = 704;
}
);
leftKerningGroup = C;
note = Ccaron;
rightKerningGroup = C;
unicode = 010C;
},
{
glyphname = Ccedilla;
lastChange = "2018-03-11 16:48:54 +0000";
layers = (
{
hints = (
{
horizontal = 1;
place = "{-211, 58}";
type = Stem;
},
{
horizontal = 1;
place = "{-14, 102}";
type = Stem;
},
{
horizontal = 1;
place = "{593, 102}";
type = Stem;
},
{
place = "{53.76, 115.66}";
type = Stem;
}
);
layerId = "327F32D8-5A79-4D64-B4F5-E4A412D056ED";
paths = (
{
closed = 1;
nodes = (
"339 -221 OFFCURVE",
"408 -188 OFFCURVE",
"422 -130 CURVE",
"431 -85 OFFCURVE",
"394 -66 OFFCURVE",
"375 -60 CURVE",
"395 -22 LINE",
"540 -13 OFFCURVE",
"612 41 OFFCURVE",
"617 40 CURVE",
"650 183 LINE",
"586 129 OFFCURVE",
"481 96 OFFCURVE",
"381 96 CURVE SMOOTH",
"229 96 OFFCURVE",
"151 192 OFFCURVE",
"185 338 CURVE SMOOTH",
"219 485 OFFCURVE",
"344 585 OFFCURVE",
"497 585 CURVE SMOOTH",
"613 585 OFFCURVE",
"690 525 OFFCURVE",
"692 518 CURVE",
"708 518 LINE",
"736 638 LINE",
"707 662 OFFCURVE",
"640 703 OFFCURVE",
"521 703 CURVE SMOOTH",
"303 706 OFFCURVE",
"101 548 OFFCURVE",
"56 342 CURVE SMOOTH",
"9 152 OFFCURVE",
"116 -1 OFFCURVE",
"308 -21 CURVE",
"280 -75 LINE",
"286 -87 LINE",
"286 -87 OFFCURVE",
"333 -90 OFFCURVE",
"327 -115 CURVE SMOOTH",
"323 -133 OFFCURVE",
"295 -147 OFFCURVE",
"261 -145 CURVE",
"243 -219 LINE"
);
},
{
closed = 1;
nodes = (
"273 -161 LINE",
"309 -159 OFFCURVE",
"337 -142 OFFCURVE",
"343 -119 CURVE",
"350 -87 OFFCURVE",
"317 -76 OFFCURVE",
"299 -73 CURVE",
"333 -7 LINE",
"136 2 OFFCURVE",
"26 150 OFFCURVE",
"72 338 CURVE SMOOTH",
"115 537 OFFCURVE",
"311 690 OFFCURVE",
"521 687 CURVE SMOOTH",
"626 687 OFFCURVE",
"687 655 OFFCURVE",
"718 632 CURVE",
"695 536 LINE",
"667 559 OFFCURVE",
"594 601 OFFCURVE",
"497 601 CURVE SMOOTH",
"337 601 OFFCURVE",
"205 496 OFFCURVE",
"169 342 CURVE SMOOTH",
"133 186 OFFCURVE",
"219 80 OFFCURVE",
"381 80 CURVE SMOOTH",
"468 80 OFFCURVE",
"558 104 OFFCURVE",
"625 145 CURVE",
"603 51 LINE",
"581 40 OFFCURVE",
"510 0 OFFCURVE",
"385 -6 CURVE",
"356 -61 LINE",
"361 -73 LINE",
"361 -73 OFFCURVE",
"415 -83 OFFCURVE",
"406 -126 CURVE SMOOTH",
"395 -172 OFFCURVE",
"340 -201 OFFCURVE",
"263 -203 CURVE"
);
}
);
width = 704;
}
);
leftKerningGroup = C;
note = Ccedilla;
rightKerningGroup = C;
unicode = 00C7;
},
{
glyphname = Cdotaccent;
lastChange = "2018-03-11 16:48:54 +0000";
layers = (
{
hints = (
{
horizontal = 1;
place = "{-15, 103}";
type = Stem;
},
{
horizontal = 1;
place = "{593, 102}";
type = Stem;
},
{
horizontal = 1;
place = "{753, 123}";
type = Stem;
},
{
place = "{53.61, 115.81}";
type = Stem;
}
);
layerId = "327F32D8-5A79-4D64-B4F5-E4A412D056ED";
paths = (
{
closed = 1;
nodes = (
"527 -23 OFFCURVE",
"611 41 OFFCURVE",
"617 40 CURVE",
"650 183 LINE",
"586 129 OFFCURVE",
"481 96 OFFCURVE",
"381 96 CURVE SMOOTH",
"229 96 OFFCURVE",
"151 192 OFFCURVE",
"185 338 CURVE SMOOTH",
"219 485 OFFCURVE",
"344 585 OFFCURVE",
"497 585 CURVE SMOOTH",
"613 585 OFFCURVE",
"690 525 OFFCURVE",
"692 518 CURVE",
"708 518 LINE",
"736 638 LINE",
"707 662 OFFCURVE",
"640 703 OFFCURVE",
"521 703 CURVE SMOOTH",
"303 706 OFFCURVE",
"101 548 OFFCURVE",
"56 342 CURVE SMOOTH",
"5 135 OFFCURVE",
"137 -26 OFFCURVE",
"357 -23 CURVE SMOOTH"
);
},
{
closed = 1;
nodes = (
"147 -10 OFFCURVE",
"23 141 OFFCURVE",
"72 338 CURVE SMOOTH",
"115 537 OFFCURVE",
"311 690 OFFCURVE",
"521 687 CURVE SMOOTH",
"626 687 OFFCURVE",
"687 655 OFFCURVE",
"718 632 CURVE",
"695 536 LINE",
"667 559 OFFCURVE",
"594 601 OFFCURVE",
"497 601 CURVE SMOOTH",
"337 601 OFFCURVE",
"205 496 OFFCURVE",
"169 342 CURVE SMOOTH",
"133 186 OFFCURVE",
"219 80 OFFCURVE",
"381 80 CURVE SMOOTH",
"468 80 OFFCURVE",
"558 104 OFFCURVE",
"625 145 CURVE",
"603 51 LINE",
"579 39 OFFCURVE",
"500 -7 OFFCURVE",
"357 -7 CURVE SMOOTH"
);
},
{
closed = 1;
nodes = (
"570 745 OFFCURVE",
"607 774 OFFCURVE",
"616 812 CURVE SMOOTH",
"625 852 OFFCURVE",
"600 884 OFFCURVE",
"560 884 CURVE SMOOTH",
"522 884 OFFCURVE",
"486 854 OFFCURVE",
"477 816 CURVE SMOOTH",
"468 777 OFFCURVE",
"493 745 OFFCURVE",
"532 745 CURVE SMOOTH"
);
},
{
closed = 1;
nodes = (
"503 761 OFFCURVE",
"486 783 OFFCURVE",
"493 812 CURVE SMOOTH",
"500 843 OFFCURVE",
"530 868 OFFCURVE",
"560 868 CURVE SMOOTH",
"590 868 OFFCURVE",
"607 846 OFFCURVE",
"600 816 CURVE SMOOTH",
"593 785 OFFCURVE",
"563 761 OFFCURVE",
"532 761 CURVE SMOOTH"
);
}
);
width = 704;
}
);
leftKerningGroup = C;
note = Cdotaccent;
rightKerningGroup = C;
unicode = 010A;
},
{
glyphname = D;
lastChange = "2018-03-11 16:48:54 +0000";
layers = (
{
hints = (
{
horizontal = 1;
place = "{0, 103}";
type = Stem;
},
{
horizontal = 1;
place = "{577, 102}";
type = Stem;
},
{
place = "{619.39, 114.86}";
type = Stem;
}
);
layerId = "327F32D8-5A79-4D64-B4F5-E4A412D056ED";
paths = (
{
closed = 1;
nodes = (
"276 -8 LINE SMOOTH",
"499 -8 OFFCURVE",
"684 132 OFFCURVE",
"732 338 CURVE SMOOTH",
"781 549 OFFCURVE",
"663 687 OFFCURVE",
"433 687 CURVE SMOOTH",
"181 687 LINE",
"20 -8 LINE"
);
},
{
closed = 1;
nodes = (
"193 671 LINE",
"433 671 LINE SMOOTH",
"652 671 OFFCURVE",
"763 542 OFFCURVE",
"716 342 CURVE SMOOTH",
"670 143 OFFCURVE",
"492 8 OFFCURVE",
"276 8 CURVE SMOOTH",
"40 8 LINE"
);
},
{
closed = 1;
nodes = (
"278 569 LINE",
"401 569 LINE SMOOTH",
"567 569 OFFCURVE",
"637 489 OFFCURVE",
"603 342 CURVE SMOOTH",
"564 191 OFFCURVE",
"455 111 OFFCURVE",
"292 111 CURVE SMOOTH",
"173 111 LINE"
);
},
{
closed = 1;
nodes = (
"292 95 LINE SMOOTH",
"462 95 OFFCURVE",
"577 180 OFFCURVE",
"619 338 CURVE",
"655 496 OFFCURVE",
"577 585 OFFCURVE",
"401 585 CURVE SMOOTH",
"266 585 LINE",
"153 95 LINE"
);
}
);
width = 760;
}
);
note = D;
rightKerningGroup = D;
unicode = 0044;
},
{
glyphname = Eth;
lastChange = "2018-03-11 16:48:54 +0000";
layers = (
{
hints = (
{
horizontal = 1;
place = "{0, 103}";
type = Stem;
},
{
horizontal = 1;
place = "{297, 90}";
type = Stem;
},
{
horizontal = 1;
place = "{577, 102}";
type = Stem;
},
{
place = "{649.39, 114.86}";
type = Stem;
}
);
layerId = "327F32D8-5A79-4D64-B4F5-E4A412D056ED";
paths = (
{
closed = 1;
nodes = (
"306 -8 LINE SMOOTH",
"529 -8 OFFCURVE",
"714 132 OFFCURVE",
"762 338 CURVE SMOOTH",
"811 549 OFFCURVE",
"693 687 OFFCURVE",
"463 687 CURVE SMOOTH",
"211 687 LINE",
"143 395 LINE",
"15 395 LINE",
"-10 289 LINE",
"119 289 LINE",
"50 -8 LINE"
);
},
{
closed = 1;
nodes = (
"139 305 LINE",
"10 305 LINE",
"27 379 LINE",
"155 379 LINE",
"223 671 LINE",
"463 671 LINE SMOOTH",
"682 671 OFFCURVE",
"793 542 OFFCURVE",
"746 342 CURVE SMOOTH",
"700 143 OFFCURVE",
"522 8 OFFCURVE",
"306 8 CURVE SMOOTH",
"70 8 LINE"
);
},
{
closed = 1;
nodes = (
"244 289 LINE",
"353 289 LINE",
"378 395 LINE",
"268 395 LINE",
"308 569 LINE",
"431 569 LINE SMOOTH",
"597 569 OFFCURVE",
"667 489 OFFCURVE",
"633 342 CURVE SMOOTH",
"594 191 OFFCURVE",
"485 111 OFFCURVE",
"322 111 CURVE SMOOTH",
"203 111 LINE"
);
},
{
closed = 1;
nodes = (
"322 95 LINE SMOOTH",
"492 95 OFFCURVE",
"607 180 OFFCURVE",
"649 338 CURVE",
"685 496 OFFCURVE",
"607 585 OFFCURVE",
"431 585 CURVE SMOOTH",
"296 585 LINE",
"248 379 LINE",
"358 379 LINE",
"341 305 LINE",
"232 305 LINE",
"183 95 LINE"
);
}
);
width = 790;
}
);
note = Eth;
rightKerningGroup = D;
unicode = 00D0;
},
{
glyphname = Dcaron;
lastChange = "2018-03-11 16:48:54 +0000";
layers = (
{
hints = (
{
horizontal = 1;
place = "{0, 103}";
type = Stem;
},
{
horizontal = 1;
place = "{577, 102}";
type = Stem;
},
{
horizontal = 1;
place = "{748, 171}";
type = Stem;
},
{
place = "{619.39, 114.86}";
type = Stem;
}
);
layerId = "327F32D8-5A79-4D64-B4F5-E4A412D056ED";
paths = (
{
closed = 1;
nodes = (
"276 -8 LINE SMOOTH",
"499 -8 OFFCURVE",
"684 132 OFFCURVE",
"732 338 CURVE SMOOTH",
"781 549 OFFCURVE",
"663 687 OFFCURVE",
"433 687 CURVE SMOOTH",
"181 687 LINE",
"20 -8 LINE"
);
},
{
closed = 1;
nodes = (
"193 671 LINE",
"433 671 LINE SMOOTH",
"652 671 OFFCURVE",
"763 542 OFFCURVE",
"716 342 CURVE SMOOTH",
"670 143 OFFCURVE",
"492 8 OFFCURVE",
"276 8 CURVE SMOOTH",
"40 8 LINE"
);
},
{
closed = 1;
nodes = (
"278 569 LINE",
"401 569 LINE SMOOTH",
"567 569 OFFCURVE",
"637 489 OFFCURVE",
"603 342 CURVE SMOOTH",
"564 191 OFFCURVE",
"455 111 OFFCURVE",
"292 111 CURVE SMOOTH",
"173 111 LINE"
);
},
{
closed = 1;
nodes = (
"292 95 LINE SMOOTH",
"462 95 OFFCURVE",
"577 180 OFFCURVE",
"619 338 CURVE",
"655 496 OFFCURVE",
"577 585 OFFCURVE",
"401 585 CURVE SMOOTH",
"266 585 LINE",
"153 95 LINE"
);
},
{
closed = 1;
nodes = (
"553 740 LINE",
"710 927 LINE",
"589 927 LINE",
"515 850 LINE",
"476 927 LINE",
"358 927 LINE",
"431 740 LINE"
);
},
{
closed = 1;
nodes = (
"382 911 LINE",
"466 911 LINE",
"511 822 LINE",
"595 911 LINE",
"676 911 LINE",
"545 756 LINE",
"441 756 LINE"
);
}
);
width = 760;
}
);
note = Dcaron;
rightKerningGroup = D;
unicode = 010E;
},
{
glyphname = Dcroat;
lastChange = "2018-03-11 16:48:54 +0000";
layers = (
{
hints = (
{
horizontal = 1;
place = "{0, 103}";
type = Stem;
},
{
horizontal = 1;
place = "{297, 90}";
type = Stem;
},
{
horizontal = 1;
place = "{577, 102}";
type = Stem;
},
{
place = "{649.39, 114.86}";
type = Stem;
}
);
layerId = "327F32D8-5A79-4D64-B4F5-E4A412D056ED";
paths = (
{
closed = 1;
nodes = (
"306 -8 LINE SMOOTH",
"529 -8 OFFCURVE",
"714 132 OFFCURVE",
"762 338 CURVE SMOOTH",
"811 549 OFFCURVE",
"693 687 OFFCURVE",
"463 687 CURVE SMOOTH",
"211 687 LINE",
"143 395 LINE",
"15 395 LINE",
"-10 289 LINE",
"119 289 LINE",
"50 -8 LINE"
);
},
{
closed = 1;
nodes = (
"139 305 LINE",
"10 305 LINE",
"27 379 LINE",
"155 379 LINE",
"223 671 LINE",
"463 671 LINE SMOOTH",
"682 671 OFFCURVE",
"793 542 OFFCURVE",
"746 342 CURVE SMOOTH",
"700 143 OFFCURVE",
"522 8 OFFCURVE",
"306 8 CURVE SMOOTH",
"70 8 LINE"
);
},
{
closed = 1;
nodes = (
"244 289 LINE",
"353 289 LINE",
"378 395 LINE",
"268 395 LINE",
"308 569 LINE",
"431 569 LINE SMOOTH",
"597 569 OFFCURVE",
"667 489 OFFCURVE",
"633 342 CURVE SMOOTH",
"594 191 OFFCURVE",
"485 111 OFFCURVE",
"322 111 CURVE SMOOTH",
"203 111 LINE"
);
},
{
closed = 1;
nodes = (
"322 95 LINE SMOOTH",
"492 95 OFFCURVE",
"607 180 OFFCURVE",
"649 338 CURVE",
"685 496 OFFCURVE",
"607 585 OFFCURVE",
"431 585 CURVE SMOOTH",
"296 585 LINE",
"248 379 LINE",
"358 379 LINE",
"341 305 LINE",
"232 305 LINE",
"183 95 LINE"
);
}
);
width = 790;
}
);
note = Dcroat;
rightKerningGroup = D;
unicode = 0110;
},
{
glyphname = E;
lastChange = "2018-03-11 16:48:54 +0000";
layers = (
{
hints = (
{
horizontal = 1;
place = "{0, 102}";
type = Stem;
},
{
horizontal = 1;
place = "{311, 102}";
type = Stem;
},
{
horizontal = 1;
place = "{577, 102}";
type = Stem;
},
{
place = "{30, 653}";
type = Stem;
}
);
layerId = "327F32D8-5A79-4D64-B4F5-E4A412D056ED";
paths = (
{
closed = 1;
nodes = (
"538 -8 LINE",
"566 110 LINE",
"173 110 LINE",
"217 303 LINE",
"525 303 LINE",
"553 421 LINE",
"244 421 LINE",
"278 569 LINE",
"666 569 LINE",
"693 687 LINE",
"181 687 LINE",
"20 -8 LINE"
);
},
{
closed = 1;
nodes = (
"193 671 LINE",
"673 671 LINE",
"654 585 LINE",
"266 585 LINE",
"224 405 LINE",
"533 405 LINE",
"513 319 LINE",
"205 319 LINE",
"153 94 LINE",
"546 94 LINE",
"526 8 LINE",
"40 8 LINE"
);
}
);
width = 642;
}
);
note = E;
rightKerningGroup = AE;
unicode = 0045;
},
{
glyphname = Eacute;
lastChange = "2018-03-11 16:48:54 +0000";
layers = (
{
hints = (
{
horizontal = 1;
place = "{0, 102}";
type = Stem;
},
{
horizontal = 1;
place = "{311, 102}";
type = Stem;
},
{
horizontal = 1;
place = "{577, 102}";
type = Stem;
},
{
horizontal = 1;
place = "{748, 171}";
type = Stem;
},
{
place = "{30, 653}";
type = Stem;
}
);
layerId = "327F32D8-5A79-4D64-B4F5-E4A412D056ED";
paths = (
{
closed = 1;
nodes = (
"538 -8 LINE",
"566 110 LINE",
"173 110 LINE",
"217 303 LINE",
"525 303 LINE",
"553 421 LINE",
"244 421 LINE",
"278 569 LINE",
"666 569 LINE",
"693 687 LINE",
"181 687 LINE",
"20 -8 LINE"
);
},
{
closed = 1;
nodes = (
"193 671 LINE",
"673 671 LINE",
"654 585 LINE",
"266 585 LINE",
"224 405 LINE",
"533 405 LINE",
"513 319 LINE",
"205 319 LINE",
"153 94 LINE",
"546 94 LINE",
"526 8 LINE",
"40 8 LINE"
);
},
{
closed = 1;
nodes = (
"490 740 LINE",
"667 927 LINE",
"511 927 LINE",
"370 740 LINE"
);
},
{
closed = 1;
nodes = (
"519 911 LINE",
"629 911 LINE",
"484 756 LINE",
"402 756 LINE"
);
}
);
width = 642;
}
);
note = Eacute;
rightKerningGroup = AE;
unicode = 00C9;
},
{
glyphname = Ecaron;
lastChange = "2018-03-11 16:48:54 +0000";
layers = (
{
hints = (
{
horizontal = 1;
place = "{0, 102}";
type = Stem;
},
{
horizontal = 1;
place = "{311, 102}";
type = Stem;
},
{
horizontal = 1;
place = "{577, 102}";
type = Stem;
},
{
horizontal = 1;
place = "{748, 171}";
type = Stem;
},
{
place = "{30, 653}";
type = Stem;
}
);
layerId = "327F32D8-5A79-4D64-B4F5-E4A412D056ED";
paths = (
{
closed = 1;
nodes = (
"538 -8 LINE",
"566 110 LINE",
"173 110 LINE",
"217 303 LINE",
"525 303 LINE",
"553 421 LINE",
"244 421 LINE",
"278 569 LINE",
"666 569 LINE",
"693 687 LINE",
"181 687 LINE",
"20 -8 LINE"
);
},
{
closed = 1;
nodes = (
"193 671 LINE",
"673 671 LINE",
"654 585 LINE",
"266 585 LINE",
"224 405 LINE",
"533 405 LINE",
"513 319 LINE",
"205 319 LINE",
"153 94 LINE",
"546 94 LINE",
"526 8 LINE",
"40 8 LINE"
);
},
{
closed = 1;
nodes = (
"494 740 LINE",
"651 927 LINE",
"530 927 LINE",
"456 850 LINE",
"417 927 LINE",
"299 927 LINE",
"372 740 LINE"
);
},
{
closed = 1;
nodes = (
"323 911 LINE",
"407 911 LINE",
"452 822 LINE",
"536 911 LINE",
"617 911 LINE",
"486 756 LINE",
"382 756 LINE"
);
}
);
width = 642;
}
);
note = Ecaron;
rightKerningGroup = AE;
unicode = 011A;
},
{
glyphname = Ecircumflex;
lastChange = "2018-03-11 16:48:54 +0000";
layers = (
{
hints = (
{
horizontal = 1;
place = "{0, 102}";
type = Stem;
},
{
horizontal = 1;
place = "{311, 102}";
type = Stem;
},
{
horizontal = 1;
place = "{577, 102}";
type = Stem;
},
{
horizontal = 1;
place = "{748, 171}";
type = Stem;
},
{
place = "{30, 653}";
type = Stem;
}
);
layerId = "327F32D8-5A79-4D64-B4F5-E4A412D056ED";
paths = (
{
closed = 1;
nodes = (
"538 -8 LINE",
"566 110 LINE",
"173 110 LINE",
"217 303 LINE",
"525 303 LINE",
"553 421 LINE",
"244 421 LINE",
"278 569 LINE",
"666 569 LINE",
"693 687 LINE",
"181 687 LINE",
"20 -8 LINE"
);
},
{
closed = 1;
nodes = (
"193 671 LINE",
"673 671 LINE",
"654 585 LINE",
"266 585 LINE",
"224 405 LINE",
"533 405 LINE",
"513 319 LINE",
"205 319 LINE",
"153 94 LINE",
"546 94 LINE",
"526 8 LINE",
"40 8 LINE"
);
},
{
closed = 1;
nodes = (
"376 740 LINE",
"451 817 LINE",
"489 740 LINE",
"607 740 LINE",
"534 927 LINE",
"412 927 LINE",
"255 740 LINE"
);
},
{
closed = 1;
nodes = (
"420 911 LINE",
"524 911 LINE",
"583 756 LINE",
"499 756 LINE",
"455 845 LINE",
"370 756 LINE",
"289 756 LINE"
);
}
);
width = 642;
}
);
note = Ecircumflex;
rightKerningGroup = AE;
unicode = 00CA;
},
{
glyphname = Edieresis;
lastChange = "2018-03-11 16:48:54 +0000";
layers = (
{
hints = (
{
horizontal = 1;
place = "{0, 102}";
type = Stem;
},
{
horizontal = 1;
place = "{311, 102}";
type = Stem;
},
{
horizontal = 1;
place = "{577, 102}";
type = Stem;
},
{
horizontal = 1;
place = "{760, 111}";
type = Stem;
},
{
place = "{30, 653}";
type = Stem;
}
);
layerId = "327F32D8-5A79-4D64-B4F5-E4A412D056ED";
paths = (
{
closed = 1;
nodes = (
"538 -8 LINE",
"566 110 LINE",
"173 110 LINE",
"217 303 LINE",
"525 303 LINE",
"553 421 LINE",
"244 421 LINE",
"278 569 LINE",
"666 569 LINE",
"693 687 LINE",
"181 687 LINE",
"20 -8 LINE"
);
},
{
closed = 1;
nodes = (
"193 671 LINE",
"673 671 LINE",
"654 585 LINE",
"266 585 LINE",
"224 405 LINE",
"533 405 LINE",
"513 319 LINE",
"205 319 LINE",
"153 94 LINE",
"546 94 LINE",
"526 8 LINE",
"40 8 LINE"
);
},
{
closed = 1;
nodes = (
"369 752 OFFCURVE",
"402 779 OFFCURVE",
"410 813 CURVE SMOOTH",
"418 849 OFFCURVE",
"395 879 OFFCURVE",
"360 879 CURVE SMOOTH",
"325 879 OFFCURVE",
"291 851 OFFCURVE",
"283 817 CURVE SMOOTH",
"275 782 OFFCURVE",
"299 752 OFFCURVE",
"335 752 CURVE SMOOTH"
);
},
{
closed = 1;
nodes = (
"309 768 OFFCURVE",
"293 788 OFFCURVE",
"299 813 CURVE SMOOTH",
"305 840 OFFCURVE",
"333 863 OFFCURVE",
"360 863 CURVE SMOOTH",
"385 863 OFFCURVE",
"400 843 OFFCURVE",
"394 817 CURVE SMOOTH",
"388 790 OFFCURVE",
"361 768 OFFCURVE",
"335 768 CURVE SMOOTH"
);
},
{
closed = 1;
nodes = (
"561 752 OFFCURVE",
"594 779 OFFCURVE",
"602 813 CURVE SMOOTH",
"610 849 OFFCURVE",
"587 879 OFFCURVE",
"552 879 CURVE SMOOTH",
"517 879 OFFCURVE",
"483 851 OFFCURVE",
"475 817 CURVE SMOOTH",
"467 782 OFFCURVE",
"491 752 OFFCURVE",
"527 752 CURVE SMOOTH"
);
},
{
closed = 1;
nodes = (
"501 768 OFFCURVE",
"485 788 OFFCURVE",
"491 813 CURVE SMOOTH",
"497 840 OFFCURVE",
"525 863 OFFCURVE",
"552 863 CURVE SMOOTH",
"577 863 OFFCURVE",
"592 843 OFFCURVE",
"586 817 CURVE SMOOTH",
"580 790 OFFCURVE",
"553 768 OFFCURVE",
"527 768 CURVE SMOOTH"
);
}
);
width = 642;
}
);
note = Edieresis;
rightKerningGroup = AE;
unicode = 00CB;
},
{
glyphname = Edotaccent;
lastChange = "2018-03-11 16:48:54 +0000";
layers = (
{
hints = (
{
horizontal = 1;
place = "{0, 102}";
type = Stem;
},
{
horizontal = 1;
place = "{311, 102}";
type = Stem;
},
{
horizontal = 1;
place = "{577, 102}";
type = Stem;
},
{
horizontal = 1;
place = "{753, 123}";
type = Stem;
},
{
place = "{30, 653}";
type = Stem;
}
);
layerId = "327F32D8-5A79-4D64-B4F5-E4A412D056ED";
paths = (
{
closed = 1;
nodes = (
"538 -8 LINE",
"566 110 LINE",
"173 110 LINE",
"217 303 LINE",
"525 303 LINE",
"553 421 LINE",
"244 421 LINE",
"278 569 LINE",
"666 569 LINE",
"693 687 LINE",
"181 687 LINE",
"20 -8 LINE"
);
},
{
closed = 1;
nodes = (
"193 671 LINE",
"673 671 LINE",
"654 585 LINE",
"266 585 LINE",
"224 405 LINE",
"533 405 LINE",
"513 319 LINE",
"205 319 LINE",
"153 94 LINE",
"546 94 LINE",
"526 8 LINE",
"40 8 LINE"
);
},
{
closed = 1;
nodes = (
"472 745 OFFCURVE",
"509 774 OFFCURVE",
"518 812 CURVE SMOOTH",
"527 852 OFFCURVE",
"502 884 OFFCURVE",
"462 884 CURVE SMOOTH",
"424 884 OFFCURVE",
"388 854 OFFCURVE",
"379 816 CURVE SMOOTH",
"370 777 OFFCURVE",
"395 745 OFFCURVE",
"434 745 CURVE SMOOTH"
);
},
{
closed = 1;
nodes = (
"405 761 OFFCURVE",
"388 783 OFFCURVE",
"395 812 CURVE SMOOTH",
"402 843 OFFCURVE",
"432 868 OFFCURVE",
"462 868 CURVE SMOOTH",
"492 868 OFFCURVE",
"509 846 OFFCURVE",
"502 816 CURVE SMOOTH",
"495 785 OFFCURVE",
"465 761 OFFCURVE",
"434 761 CURVE SMOOTH"
);
}
);
width = 642;
}
);
note = Edotaccent;
rightKerningGroup = AE;
unicode = 0116;
},
{
glyphname = Egrave;
lastChange = "2018-03-11 16:48:54 +0000";
layers = (
{
hints = (
{
horizontal = 1;
place = "{0, 102}";
type = Stem;
},
{
horizontal = 1;
place = "{311, 102}";
type = Stem;
},
{
horizontal = 1;
place = "{577, 102}";
type = Stem;
},
{
horizontal = 1;
place = "{748, 171}";
type = Stem;
},
{
place = "{30, 653}";
type = Stem;
}
);
layerId = "327F32D8-5A79-4D64-B4F5-E4A412D056ED";
paths = (
{
closed = 1;
nodes = (
"538 -8 LINE",
"566 110 LINE",
"173 110 LINE",
"217 303 LINE",
"525 303 LINE",
"553 421 LINE",
"244 421 LINE",
"278 569 LINE",
"666 569 LINE",
"693 687 LINE",
"181 687 LINE",
"20 -8 LINE"
);
},
{
closed = 1;
nodes = (
"193 671 LINE",
"673 671 LINE",
"654 585 LINE",
"266 585 LINE",
"224 405 LINE",
"533 405 LINE",
"513 319 LINE",
"205 319 LINE",
"153 94 LINE",
"546 94 LINE",
"526 8 LINE",
"40 8 LINE"
);
},
{
closed = 1;
nodes = (
"494 740 LINE",
"438 927 LINE",
"286 927 LINE",
"377 740 LINE"
);
},
{
closed = 1;
nodes = (
"312 911 LINE",
"426 911 LINE",
"472 756 LINE",
"387 756 LINE"
);
}
);
width = 642;
}
);
note = Egrave;
rightKerningGroup = AE;
unicode = 00C8;
},
{
glyphname = Emacron;
lastChange = "2018-03-11 16:48:54 +0000";
layers = (
{
hints = (
{
horizontal = 1;
place = "{0, 102}";
type = Stem;
},
{
horizontal = 1;
place = "{311, 102}";
type = Stem;
},
{
horizontal = 1;
place = "{577, 102}";
type = Stem;
},
{
horizontal = 1;
place = "{763, 90}";
type = Stem;
},
{
place = "{30, 653}";
type = Stem;
}
);
layerId = "327F32D8-5A79-4D64-B4F5-E4A412D056ED";
paths = (
{
closed = 1;
nodes = (
"538 -8 LINE",
"566 110 LINE",
"173 110 LINE",
"217 303 LINE",
"525 303 LINE",
"553 421 LINE",
"244 421 LINE",
"278 569 LINE",
"666 569 LINE",
"693 687 LINE",
"181 687 LINE",
"20 -8 LINE"
);
},
{
closed = 1;
nodes = (
"193 671 LINE",
"673 671 LINE",
"654 585 LINE",
"266 585 LINE",
"224 405 LINE",
"533 405 LINE",
"513 319 LINE",
"205 319 LINE",
"153 94 LINE",
"546 94 LINE",
"526 8 LINE",
"40 8 LINE"
);
},
{
closed = 1;
nodes = (
"581 755 LINE",
"606 861 LINE",
"313 861 LINE",
"288 755 LINE"
);
},
{
closed = 1;
nodes = (
"325 845 LINE",
"586 845 LINE",
"569 771 LINE",
"308 771 LINE"
);
}
);
width = 642;
}
);
note = Emacron;
rightKerningGroup = AE;
unicode = 0112;
},
{
glyphname = Eogonek;
lastChange = "2018-03-11 16:48:54 +0000";
layers = (
{
hints = (
{
horizontal = 1;
place = "{0, 102}";
type = Stem;
},
{
horizontal = 1;
place = "{311, 102}";
type = Stem;
},
{
horizontal = 1;
place = "{577, 102}";
type = Stem;
},
{
place = "{370.11, 93.89}";
type = Stem;
},
{
horizontal = 1;
place = "{-225, 88}";
type = Stem;
}
);
layerId = "327F32D8-5A79-4D64-B4F5-E4A412D056ED";
paths = (
{
closed = 1;
nodes = (
"525 -129 LINE",
"477 -130 OFFCURVE",
"466 -123 OFFCURVE",
"472 -96 CURVE SMOOTH",
"480 -61 OFFCURVE",
"539 -6 OFFCURVE",
"539 -6 CURVE",
"533 8 LINE",
"542 8 LINE",
"566 110 LINE",
"173 110 LINE",
"217 303 LINE",
"525 303 LINE",
"553 421 LINE",
"244 421 LINE",
"278 569 LINE",
"666 569 LINE",
"693 687 LINE",
"181 687 LINE",
"20 -8 LINE",
"433 -8 LINE",
"411 -27 OFFCURVE",
"376 -62 OFFCURVE",
"365 -107 CURVE SMOOTH",
"341 -209 OFFCURVE",
"452 -235 OFFCURVE",
"500 -233 CURVE"
);
},
{
closed = 1;
nodes = (
"438 -215 OFFCURVE",
"362 -190 OFFCURVE",
"381 -111 CURVE SMOOTH",
"395 -49 OFFCURVE",
"461 -7 OFFCURVE",
"461 -7 CURVE",
"457 8 LINE",
"40 8 LINE",
"193 671 LINE",
"673 671 LINE",
"654 585 LINE",
"266 585 LINE",
"224 405 LINE",
"533 405 LINE",
"513 319 LINE",
"205 319 LINE",
"153 94 LINE",
"546 94 LINE",
"522 -8 LINE",
"514 -8 LINE",
"495 -28 OFFCURVE",
"463 -65 OFFCURVE",
"456 -92 CURVE",
"449 -127 OFFCURVE",
"465 -143 OFFCURVE",
"505 -145 CURVE",
"488 -217 LINE"
);
}
);
width = 642;
}
);
note = Eogonek;
rightKerningGroup = AE;
unicode = 0118;
},
{
glyphname = F;
lastChange = "2018-03-11 16:48:54 +0000";
layers = (
{
hints = (
{
horizontal = 1;
place = "{311, 102}";
type = Stem;
},
{
horizontal = 1;
place = "{577, 102}";
type = Stem;
},
{
place = "{30, 653}";
type = Stem;
}
);
layerId = "327F32D8-5A79-4D64-B4F5-E4A412D056ED";
paths = (
{
closed = 1;
nodes = (
"145 -8 LINE",
"217 303 LINE",
"525 303 LINE",
"553 421 LINE",
"244 421 LINE",
"278 569 LINE",
"666 569 LINE",
"693 687 LINE",
"181 687 LINE",
"20 -8 LINE"
);
},
{
closed = 1;
nodes = (
"193 671 LINE",
"673 671 LINE",
"654 585 LINE",
"266 585 LINE",
"224 405 LINE",
"533 405 LINE",
"513 319 LINE",
"205 319 LINE",
"133 8 LINE",
"40 8 LINE"
);
}
);
width = 624;
}
);
note = F;
rightKerningGroup = F;
unicode = 0046;
},
{
glyphname = G;
lastChange = "2018-03-11 16:48:54 +0000";
layers = (
{
hints = (
{
horizontal = 1;
place = "{-15, 102}";
type = Stem;
},
{
horizontal = 1;
place = "{295, 102}";
type = Stem;
},
{
horizontal = 1;
place = "{593, 102}";
type = Stem;
},
{
place = "{58.41, 116.15}";
type = Stem;
}
);
layerId = "327F32D8-5A79-4D64-B4F5-E4A412D056ED";
paths = (
{
closed = 1;
nodes = (
"417 -23 OFFCURVE",
"482 -3 OFFCURVE",
"527 20 CURVE",
"521 -8 LINE",
"646 -8 LINE",
"742 405 LINE",
"414 405 LINE",
"386 287 LINE",
"589 287 LINE",
"558 153 LINE",
"501 117 OFFCURVE",
"431 95 OFFCURVE",
"367 95 CURVE SMOOTH",
"233 95 OFFCURVE",
"157 199 OFFCURVE",
"190 338 CURVE SMOOTH",
"224 485 OFFCURVE",
"349 585 OFFCURVE",
"502 585 CURVE SMOOTH",
"560 585 OFFCURVE",
"607 576 OFFCURVE",
"644 559 CURVE SMOOTH",
"687 539 OFFCURVE",
"716 519 OFFCURVE",
"728 500 CURVE",
"760 637 LINE",
"743 650 OFFCURVE",
"714 664 OFFCURVE",
"671 681 CURVE SMOOTH",
"633 696 OFFCURVE",
"585 703 OFFCURVE",
"526 703 CURVE SMOOTH",
"308 706 OFFCURVE",
"106 548 OFFCURVE",
"61 342 CURVE SMOOTH",
"11 137 OFFCURVE",
"134 -23 OFFCURVE",
"344 -23 CURVE SMOOTH"
);
},
{
closed = 1;
nodes = (
"145 -7 OFFCURVE",
"29 143 OFFCURVE",
"77 338 CURVE SMOOTH",
"120 537 OFFCURVE",
"316 690 OFFCURVE",
"526 687 CURVE SMOOTH",
"583 687 OFFCURVE",
"628 680 OFFCURVE",
"665 666 CURVE SMOOTH",
"700 653 OFFCURVE",
"725 641 OFFCURVE",
"742 630 CURVE",
"719 533 LINE",
"703 546 OFFCURVE",
"680 560 OFFCURVE",
"650 573 CURVE",
"613 592 OFFCURVE",
"563 601 OFFCURVE",
"502 601 CURVE SMOOTH",
"342 601 OFFCURVE",
"210 496 OFFCURVE",
"174 342 CURVE SMOOTH",
"139 192 OFFCURVE",
"222 79 OFFCURVE",
"367 79 CURVE SMOOTH",
"449 79 OFFCURVE",
"526 112 OFFCURVE",
"572 143 CURVE",
"609 303 LINE",
"406 303 LINE",
"426 389 LINE",
"722 389 LINE",
"634 8 LINE",
"541 8 LINE",
"551 51 LINE",
"493 15 OFFCURVE",
"416 -7 OFFCURVE",
"344 -7 CURVE SMOOTH"
);
}
);
width = 776;
}
);
leftKerningGroup = C;
note = G;
unicode = 0047;
},
{
glyphname = Gbreve;
lastChange = "2018-03-11 16:48:54 +0000";
layers = (
{
hints = (
{
horizontal = 1;
place = "{-15, 102}";
type = Stem;
},
{
horizontal = 1;
place = "{295, 102}";
type = Stem;
},
{
horizontal = 1;
place = "{593, 102}";
type = Stem;
},
{
horizontal = 1;
place = "{748, 88}";
type = Stem;
},
{
place = "{58.41, 116.15}";
type = Stem;
},
{
place = "{373.01, 103.11}";
type = Stem;
}
);
layerId = "327F32D8-5A79-4D64-B4F5-E4A412D056ED";
paths = (
{
closed = 1;
nodes = (
"417 -23 OFFCURVE",
"482 -3 OFFCURVE",
"527 20 CURVE",
"521 -8 LINE",
"646 -8 LINE",
"742 405 LINE",
"414 405 LINE",
"386 287 LINE",
"589 287 LINE",
"558 153 LINE",
"501 117 OFFCURVE",
"431 95 OFFCURVE",
"367 95 CURVE SMOOTH",
"233 95 OFFCURVE",
"157 199 OFFCURVE",
"190 338 CURVE SMOOTH",
"224 485 OFFCURVE",
"349 585 OFFCURVE",
"502 585 CURVE SMOOTH",
"560 585 OFFCURVE",
"607 576 OFFCURVE",
"644 559 CURVE SMOOTH",
"687 539 OFFCURVE",
"716 519 OFFCURVE",
"728 500 CURVE",
"760 637 LINE",
"743 650 OFFCURVE",
"714 664 OFFCURVE",
"671 681 CURVE SMOOTH",
"633 696 OFFCURVE",
"585 703 OFFCURVE",
"526 703 CURVE SMOOTH",
"308 706 OFFCURVE",
"106 548 OFFCURVE",
"61 342 CURVE SMOOTH",
"11 137 OFFCURVE",
"134 -23 OFFCURVE",
"344 -23 CURVE SMOOTH"
);
},
{
closed = 1;
nodes = (
"145 -7 OFFCURVE",
"29 143 OFFCURVE",
"77 338 CURVE SMOOTH",
"120 537 OFFCURVE",
"316 690 OFFCURVE",
"526 687 CURVE SMOOTH",
"583 687 OFFCURVE",
"628 680 OFFCURVE",
"665 666 CURVE SMOOTH",
"700 653 OFFCURVE",
"725 641 OFFCURVE",
"742 630 CURVE",
"719 533 LINE",
"703 546 OFFCURVE",
"680 560 OFFCURVE",
"650 573 CURVE",
"613 592 OFFCURVE",
"563 601 OFFCURVE",
"502 601 CURVE SMOOTH",
"342 601 OFFCURVE",
"210 496 OFFCURVE",
"174 342 CURVE SMOOTH",
"139 192 OFFCURVE",
"222 79 OFFCURVE",
"367 79 CURVE SMOOTH",
"449 79 OFFCURVE",
"526 112 OFFCURVE",
"572 143 CURVE",
"609 303 LINE",
"406 303 LINE",
"426 389 LINE",
"722 389 LINE",
"634 8 LINE",
"541 8 LINE",
"551 51 LINE",
"493 15 OFFCURVE",
"416 -7 OFFCURVE",
"344 -7 CURVE SMOOTH"
);
},
{
closed = 1;
nodes = (
"626 740 OFFCURVE",
"696 847 OFFCURVE",
"711 927 CURVE",
"593 927 LINE",
"589 901 OFFCURVE",
"563 844 OFFCURVE",
"520 844 CURVE SMOOTH",
"478 844 OFFCURVE",
"480 902 OFFCURVE",
"490 927 CURVE",
"372 927 LINE",
"343 818 OFFCURVE",
"396 740 OFFCURVE",
"500 740 CURVE SMOOTH"
);
},
{
closed = 1;
nodes = (
"392 756 OFFCURVE",
"369 837 OFFCURVE",
"384 911 CURVE",
"469 911 LINE",
"465 879 OFFCURVE",
"473 828 OFFCURVE",
"520 828 CURVE SMOOTH",
"567 828 OFFCURVE",
"597 880 OFFCURVE",
"606 911 CURVE",
"691 911 LINE",
"670 838 OFFCURVE",
"608 756 OFFCURVE",
"500 756 CURVE SMOOTH"
);
}
);
width = 776;
}
);
leftKerningGroup = C;
note = Gbreve;
unicode = 011E;
},
{
glyphname = Gdotaccent;
lastChange = "2018-03-11 16:48:54 +0000";
layers = (
{
hints = (
{
horizontal = 1;
place = "{-15, 102}";
type = Stem;
},
{
horizontal = 1;
place = "{295, 102}";
type = Stem;
},
{
horizontal = 1;
place = "{593, 102}";
type = Stem;
},
{
horizontal = 1;
place = "{753, 123}";
type = Stem;
},
{
place = "{58.41, 116.15}";
type = Stem;
}
);
layerId = "327F32D8-5A79-4D64-B4F5-E4A412D056ED";
paths = (
{
closed = 1;
nodes = (
"417 -23 OFFCURVE",
"482 -3 OFFCURVE",
"527 20 CURVE",
"521 -8 LINE",
"646 -8 LINE",
"742 405 LINE",
"414 405 LINE",
"386 287 LINE",
"589 287 LINE",
"558 153 LINE",
"501 117 OFFCURVE",
"431 95 OFFCURVE",
"367 95 CURVE SMOOTH",
"233 95 OFFCURVE",
"157 199 OFFCURVE",
"190 338 CURVE SMOOTH",
"224 485 OFFCURVE",
"349 585 OFFCURVE",
"502 585 CURVE SMOOTH",
"560 585 OFFCURVE",
"607 576 OFFCURVE",
"644 559 CURVE SMOOTH",
"687 539 OFFCURVE",
"716 519 OFFCURVE",
"728 500 CURVE",
"760 637 LINE",
"743 650 OFFCURVE",
"714 664 OFFCURVE",
"671 681 CURVE SMOOTH",
"633 696 OFFCURVE",
"585 703 OFFCURVE",
"526 703 CURVE SMOOTH",
"308 706 OFFCURVE",
"106 548 OFFCURVE",
"61 342 CURVE SMOOTH",
"11 137 OFFCURVE",
"134 -23 OFFCURVE",
"344 -23 CURVE SMOOTH"
);
},
{
closed = 1;
nodes = (
"145 -7 OFFCURVE",
"29 143 OFFCURVE",
"77 338 CURVE SMOOTH",
"120 537 OFFCURVE",
"316 690 OFFCURVE",
"526 687 CURVE SMOOTH",
"583 687 OFFCURVE",
"628 680 OFFCURVE",
"665 666 CURVE SMOOTH",
"700 653 OFFCURVE",
"725 641 OFFCURVE",
"742 630 CURVE",
"719 533 LINE",
"703 546 OFFCURVE",
"680 560 OFFCURVE",
"650 573 CURVE",
"613 592 OFFCURVE",
"563 601 OFFCURVE",
"502 601 CURVE SMOOTH",
"342 601 OFFCURVE",
"210 496 OFFCURVE",
"174 342 CURVE SMOOTH",
"139 192 OFFCURVE",
"222 79 OFFCURVE",
"367 79 CURVE SMOOTH",
"449 79 OFFCURVE",
"526 112 OFFCURVE",
"572 143 CURVE",
"609 303 LINE",
"406 303 LINE",
"426 389 LINE",
"722 389 LINE",
"634 8 LINE",
"541 8 LINE",
"551 51 LINE",
"493 15 OFFCURVE",
"416 -7 OFFCURVE",
"344 -7 CURVE SMOOTH"
);
},
{
closed = 1;
nodes = (
"539 745 OFFCURVE",
"576 774 OFFCURVE",
"585 812 CURVE SMOOTH",
"594 852 OFFCURVE",
"569 884 OFFCURVE",
"529 884 CURVE SMOOTH",
"491 884 OFFCURVE",
"455 854 OFFCURVE",
"446 816 CURVE SMOOTH",
"437 777 OFFCURVE",
"462 745 OFFCURVE",
"501 745 CURVE SMOOTH"
);
},
{
closed = 1;
nodes = (
"472 761 OFFCURVE",
"455 783 OFFCURVE",
"462 812 CURVE SMOOTH",
"469 843 OFFCURVE",
"499 868 OFFCURVE",
"529 868 CURVE SMOOTH",
"559 868 OFFCURVE",
"576 846 OFFCURVE",
"569 816 CURVE SMOOTH",
"562 785 OFFCURVE",
"532 761 OFFCURVE",
"501 761 CURVE SMOOTH"
);
}
);
width = 776;
}
);
leftKerningGroup = C;
note = Gdotaccent;
unicode = 0120;
},
{
glyphname = H;
lastChange = "2018-03-11 16:48:54 +0000";
layers = (
{
hints = (
{
horizontal = 1;
place = "{311, 102}";
type = Stem;
},
{
place = "{30, 731}";
type = Stem;
}
);
layerId = "327F32D8-5A79-4D64-B4F5-E4A412D056ED";
paths = (
{
closed = 1;
nodes = (
"145 -8 LINE",
"217 303 LINE",
"557 303 LINE",
"485 -8 LINE",
"610 -8 LINE",
"771 687 LINE",
"646 687 LINE",
"584 421 LINE",
"244 421 LINE",
"306 687 LINE",
"181 687 LINE",
"20 -8 LINE"
);
},
{
closed = 1;
nodes = (
"193 671 LINE",
"286 671 LINE",
"224 405 LINE",
"596 405 LINE",
"658 671 LINE",
"751 671 LINE",
"598 8 LINE",
"505 8 LINE",
"577 319 LINE",
"205 319 LINE",
"133 8 LINE",
"40 8 LINE"
);
}
);
width = 754;
}
);
leftKerningGroup = H;
note = H;
unicode = 0048;
},
{
glyphname = Hbar;
lastChange = "2018-03-11 16:48:54 +0000";
layers = (
{
hints = (
{
horizontal = 1;
place = "{311, 102}";
type = Stem;
},
{
horizontal = 1;
place = "{504, 90}";
type = Stem;
},
{
place = "{30, 764}";
type = Stem;
}
);
layerId = "327F32D8-5A79-4D64-B4F5-E4A412D056ED";
paths = (
{
closed = 1;
nodes = (
"145 -8 LINE",
"217 303 LINE",
"557 303 LINE",
"485 -8 LINE",
"610 -8 LINE",
"727 496 LINE",
"779 496 LINE",
"804 602 LINE",
"751 602 LINE",
"771 687 LINE",
"646 687 LINE",
"626 602 LINE",
"286 602 LINE",
"306 687 LINE",
"181 687 LINE",
"161 602 LINE",
"107 602 LINE",
"82 496 LINE",
"137 496 LINE",
"20 -8 LINE"
);
},
{
closed = 1;
nodes = (
"157 512 LINE",
"102 512 LINE",
"119 586 LINE",
"173 586 LINE",
"193 671 LINE",
"286 671 LINE",
"266 586 LINE",
"638 586 LINE",
"658 671 LINE",
"751 671 LINE",
"731 586 LINE",
"784 586 LINE",
"767 512 LINE",
"715 512 LINE",
"598 8 LINE",
"505 8 LINE",
"577 319 LINE",
"205 319 LINE",
"133 8 LINE",
"40 8 LINE"
);
},
{
closed = 1;
nodes = (
"262 496 LINE",
"602 496 LINE",
"584 421 LINE",
"244 421 LINE"
);
},
{
closed = 1;
nodes = (
"596 405 LINE",
"622 512 LINE",
"250 512 LINE",
"224 405 LINE"
);
}
);
width = 754;
}
);
leftKerningGroup = H;
note = Hbar;
unicode = 0126;
},
{
glyphname = I;
lastChange = "2018-03-11 16:48:54 +0000";
layers = (
{
hints = (
{
place = "{30, 266}";
type = Stem;
}
);
layerId = "327F32D8-5A79-4D64-B4F5-E4A412D056ED";
paths = (
{
closed = 1;
nodes = (
"145 -8 LINE",
"306 687 LINE",
"181 687 LINE",
"20 -8 LINE"
);
},
{
closed = 1;
nodes = (
"193 671 LINE",
"286 671 LINE",
"133 8 LINE",
"40 8 LINE"
);
}
);
width = 289;
}
);
note = I;
unicode = 0049;
},
{
glyphname = Iacute;
lastChange = "2018-03-11 16:48:54 +0000";
layers = (
{
hints = (
{
horizontal = 1;
place = "{748, 171}";
type = Stem;
},
{
place = "{30, 442}";
type = Stem;
}
);
layerId = "327F32D8-5A79-4D64-B4F5-E4A412D056ED";
paths = (
{
closed = 1;
nodes = (
"145 -8 LINE",
"306 687 LINE",
"181 687 LINE",
"20 -8 LINE"
);
},
{
closed = 1;
nodes = (
"193 671 LINE",
"286 671 LINE",
"133 8 LINE",
"40 8 LINE"
);
},
{
closed = 1;
nodes = (
"314 740 LINE",
"491 927 LINE",
"335 927 LINE",
"194 740 LINE"
);
},
{
closed = 1;
nodes = (
"343 911 LINE",
"453 911 LINE",
"308 756 LINE",
"226 756 LINE"
);
}
);
width = 289;
}
);
note = Iacute;
unicode = 00CD;
},
{
glyphname = Icircumflex;
lastChange = "2018-03-11 16:48:54 +0000";
layers = (
{
hints = (
{
horizontal = 1;
place = "{748, 171}";
type = Stem;
},
{
place = "{30, 389}";
type = Stem;
}
);
layerId = "327F32D8-5A79-4D64-B4F5-E4A412D056ED";
paths = (
{
closed = 1;
nodes = (
"145 -8 LINE",
"306 687 LINE",
"181 687 LINE",
"20 -8 LINE"
);
},
{
closed = 1;
nodes = (
"193 671 LINE",
"286 671 LINE",
"133 8 LINE",
"40 8 LINE"
);
},
{
closed = 1;
nodes = (
"200 740 LINE",
"275 817 LINE",
"313 740 LINE",
"431 740 LINE",
"358 927 LINE",
"236 927 LINE",
"79 740 LINE"
);
},
{
closed = 1;
nodes = (
"244 911 LINE",
"348 911 LINE",
"407 756 LINE",
"323 756 LINE",
"279 845 LINE",
"194 756 LINE",
"113 756 LINE"
);
}
);
width = 289;
}
);
note = Icircumflex;
unicode = 00CE;
},
{
glyphname = Idieresis;
lastChange = "2018-03-11 16:48:54 +0000";
layers = (
{
hints = (
{
horizontal = 1;
place = "{760, 111}";
type = Stem;
},
{
place = "{30, 389.43}";
type = Stem;
}
);
layerId = "327F32D8-5A79-4D64-B4F5-E4A412D056ED";
paths = (
{
closed = 1;
nodes = (
"145 -8 LINE",
"306 687 LINE",
"181 687 LINE",
"20 -8 LINE"
);
},
{
closed = 1;
nodes = (
"193 671 LINE",
"286 671 LINE",
"133 8 LINE",
"40 8 LINE"
);
},
{
closed = 1;
nodes = (
"193 752 OFFCURVE",
"226 779 OFFCURVE",
"234 813 CURVE SMOOTH",
"242 849 OFFCURVE",
"219 879 OFFCURVE",
"184 879 CURVE SMOOTH",
"149 879 OFFCURVE",
"115 851 OFFCURVE",
"107 817 CURVE SMOOTH",
"99 782 OFFCURVE",
"123 752 OFFCURVE",
"159 752 CURVE SMOOTH"
);
},
{
closed = 1;
nodes = (
"133 768 OFFCURVE",
"117 788 OFFCURVE",
"123 813 CURVE SMOOTH",
"129 840 OFFCURVE",
"157 863 OFFCURVE",
"184 863 CURVE SMOOTH",
"209 863 OFFCURVE",
"224 843 OFFCURVE",
"218 817 CURVE SMOOTH",
"212 790 OFFCURVE",
"185 768 OFFCURVE",
"159 768 CURVE SMOOTH"
);
},
{
closed = 1;
nodes = (
"385 752 OFFCURVE",
"418 779 OFFCURVE",
"426 813 CURVE SMOOTH",
"434 849 OFFCURVE",
"411 879 OFFCURVE",
"376 879 CURVE SMOOTH",
"341 879 OFFCURVE",
"307 851 OFFCURVE",
"299 817 CURVE SMOOTH",
"291 782 OFFCURVE",
"315 752 OFFCURVE",
"351 752 CURVE SMOOTH"
);
},
{
closed = 1;
nodes = (
"325 768 OFFCURVE",
"309 788 OFFCURVE",
"315 813 CURVE SMOOTH",
"321 840 OFFCURVE",
"349 863 OFFCURVE",
"376 863 CURVE SMOOTH",
"401 863 OFFCURVE",
"416 843 OFFCURVE",
"410 817 CURVE SMOOTH",
"404 790 OFFCURVE",
"377 768 OFFCURVE",
"351 768 CURVE SMOOTH"
);
}
);
width = 289;
}
);
note = Idieresis;
unicode = 00CF;
},
{
glyphname = Idotaccent;
lastChange = "2018-03-11 16:48:54 +0000";
layers = (
{
hints = (
{
horizontal = 1;
place = "{753, 123}";
type = Stem;
},
{
place = "{30, 305.66}";
type = Stem;
}
);
layerId = "327F32D8-5A79-4D64-B4F5-E4A412D056ED";
paths = (
{
closed = 1;
nodes = (
"145 -8 LINE",
"306 687 LINE",
"181 687 LINE",
"20 -8 LINE"
);
},
{
closed = 1;
nodes = (
"193 671 LINE",
"286 671 LINE",
"133 8 LINE",
"40 8 LINE"
);
},
{
closed = 1;
nodes = (
"296 745 OFFCURVE",
"333 774 OFFCURVE",
"342 812 CURVE SMOOTH",
"351 852 OFFCURVE",
"326 884 OFFCURVE",
"286 884 CURVE SMOOTH",
"248 884 OFFCURVE",
"212 854 OFFCURVE",
"203 816 CURVE SMOOTH",
"194 777 OFFCURVE",
"219 745 OFFCURVE",
"258 745 CURVE SMOOTH"
);
},
{
closed = 1;
nodes = (
"229 761 OFFCURVE",
"212 783 OFFCURVE",
"219 812 CURVE SMOOTH",
"226 843 OFFCURVE",
"256 868 OFFCURVE",
"286 868 CURVE SMOOTH",
"316 868 OFFCURVE",
"333 846 OFFCURVE",
"326 816 CURVE SMOOTH",
"319 785 OFFCURVE",
"289 761 OFFCURVE",
"258 761 CURVE SMOOTH"
);
}
);
width = 289;
}
);
note = Idotaccent;
unicode = 0130;
},
{
glyphname = Igrave;
lastChange = "2018-03-11 16:48:54 +0000";
layers = (
{
hints = (
{
horizontal = 1;
place = "{748, 171}";
type = Stem;
},
{
place = "{30, 277}";
type = Stem;
}
);
layerId = "327F32D8-5A79-4D64-B4F5-E4A412D056ED";
paths = (
{
closed = 1;
nodes = (
"145 -8 LINE",
"306 687 LINE",
"181 687 LINE",
"20 -8 LINE"
);
},
{
closed = 1;
nodes = (
"193 671 LINE",
"286 671 LINE",
"133 8 LINE",
"40 8 LINE"
);
},
{
closed = 1;
nodes = (
"318 740 LINE",
"262 927 LINE",
"110 927 LINE",
"201 740 LINE"
);
},
{
closed = 1;
nodes = (
"136 911 LINE",
"250 911 LINE",
"296 756 LINE",
"211 756 LINE"
);
}
);
width = 289;
}
);
note = Igrave;
unicode = 00CC;
},
{
glyphname = Imacron;
lastChange = "2018-03-11 16:48:54 +0000";
layers = (
{
hints = (
{
horizontal = 1;
place = "{763, 90}";
type = Stem;
},
{
place = "{30, 390}";
type = Stem;
}
);
layerId = "327F32D8-5A79-4D64-B4F5-E4A412D056ED";
paths = (
{
closed = 1;
nodes = (
"145 -8 LINE",
"306 687 LINE",
"181 687 LINE",
"20 -8 LINE"
);
},
{
closed = 1;
nodes = (
"193 671 LINE",
"286 671 LINE",
"133 8 LINE",
"40 8 LINE"
);
},
{
closed = 1;
nodes = (
"405 755 LINE",
"430 861 LINE",
"137 861 LINE",
"112 755 LINE"
);
},
{
closed = 1;
nodes = (
"149 845 LINE",
"410 845 LINE",
"393 771 LINE",
"132 771 LINE"
);
}
);
width = 289;
}
);
note = Imacron;
unicode = 012A;
},
{
glyphname = Iogonek;
lastChange = "2018-03-11 16:48:54 +0000";
layers = (
{
hints = (
{
place = "{-26.89, 93.89}";
type = Stem;
},
{
horizontal = 1;
place = "{-216, 88}";
type = Stem;
}
);
layerId = "327F32D8-5A79-4D64-B4F5-E4A412D056ED";
paths = (
{
closed = 1;
nodes = (
"128 -120 LINE",
"80 -121 OFFCURVE",
"69 -114 OFFCURVE",
"75 -87 CURVE SMOOTH",
"81 -62 OFFCURVE",
"113 -27 OFFCURVE",
"130 -8 CURVE",
"145 -8 LINE",
"306 687 LINE",
"181 687 LINE",
"20 -8 LINE",
"26 -8 LINE",
"4 -28 OFFCURVE",
"-23 -59 OFFCURVE",
"-32 -98 CURVE SMOOTH",
"-56 -200 OFFCURVE",
"55 -226 OFFCURVE",
"103 -224 CURVE"
);
},
{
closed = 1;
nodes = (
"41 -206 OFFCURVE",
"-35 -181 OFFCURVE",
"-16 -102 CURVE SMOOTH",
"-6 -56 OFFCURVE",
"32 -22 OFFCURVE",
"53 -6 CURVE",
"48 8 LINE",
"40 8 LINE",
"193 671 LINE",
"286 671 LINE",
"133 8 LINE",
"124 8 LINE",
"108 -9 OFFCURVE",
"67 -52 OFFCURVE",
"59 -83 CURVE",
"52 -118 OFFCURVE",
"68 -134 OFFCURVE",
"108 -136 CURVE",
"91 -208 LINE"
);
}
);
width = 289;
}
);
note = Iogonek;
unicode = 012E;
},
{
glyphname = J;
lastChange = "2018-03-11 16:48:54 +0000";
layers = (
{
hints = (
{
horizontal = 1;
place = "{-15, 103}";
type = Stem;
},
{
place = "{-10, 584}";
type = Stem;
}
);
layerId = "327F32D8-5A79-4D64-B4F5-E4A412D056ED";
paths = (
{
closed = 1;
nodes = (
"324 -23 OFFCURVE",
"442 72 OFFCURVE",
"478 227 CURVE SMOOTH",
"584 687 LINE",
"459 687 LINE",
"353 229 LINE SMOOTH",
"331 133 OFFCURVE",
"281 96 OFFCURVE",
"175 96 CURVE SMOOTH",
"105 96 OFFCURVE",
"28 142 OFFCURVE",
"19 149 CURVE",
"6 144 LINE",
"-18 40 LINE SMOOTH",
"-23 15 OFFCURVE",
"103 -23 OFFCURVE",
"166 -23 CURVE SMOOTH"
);
},
{
closed = 1;
nodes = (
"74 -7 OFFCURVE",
"-2 37 OFFCURVE",
"-2 36 CURVE",
"19 129 LINE",
"45 114 OFFCURVE",
"113 80 OFFCURVE",
"175 80 CURVE SMOOTH",
"288 80 OFFCURVE",
"345 122 OFFCURVE",
"369 225 CURVE SMOOTH",
"471 671 LINE",
"564 671 LINE",
"462 231 LINE SMOOTH",
"428 82 OFFCURVE",
"317 -7 OFFCURVE",
"166 -7 CURVE SMOOTH"
);
}
);
width = 542;
}
);
leftKerningGroup = J;
note = J;
unicode = 004A;
},
{
glyphname = K;
lastChange = "2018-03-11 16:48:54 +0000";
layers = (
{
hints = (
{
place = "{30, 735}";
type = Stem;
}
);
layerId = "327F32D8-5A79-4D64-B4F5-E4A412D056ED";
paths = (
{
closed = 1;
nodes = (
"144 -8 LINE",
"198 226 LINE",
"316 318 LINE",
"482 -8 LINE",
"621 -8 LINE",
"415 396 LINE",
"788 687 LINE",
"610 687 LINE",
"237 392 LINE",
"305 687 LINE",
"181 687 LINE",
"20 -8 LINE"
);
},
{
closed = 1;
nodes = (
"193 671 LINE",
"285 671 LINE",
"211 352 LINE",
"616 671 LINE",
"742 671 LINE",
"395 400 LINE",
"595 8 LINE",
"492 8 LINE",
"322 342 LINE",
"184 236 LINE",
"132 8 LINE",
"40 8 LINE"
);
}
);
width = 686;
}
);
note = K;
rightKerningGroup = K;
unicode = 004B;
},
{
glyphname = L;
lastChange = "2018-03-11 16:48:54 +0000";
layers = (
{
hints = (
{
horizontal = 1;
place = "{0, 102}";
type = Stem;
},
{
place = "{30, 544}";
type = Stem;
}
);
layerId = "327F32D8-5A79-4D64-B4F5-E4A412D056ED";
paths = (
{
closed = 1;
nodes = (
"556 -8 LINE",
"584 110 LINE",
"172 110 LINE",
"305 687 LINE",
"181 687 LINE",
"20 -8 LINE"
);
},
{
closed = 1;
nodes = (
"193 671 LINE",
"285 671 LINE",
"152 94 LINE",
"564 94 LINE",
"544 8 LINE",
"40 8 LINE"
);
}
);
width = 648;
}
);
note = L;
rightKerningGroup = L;
unicode = 004C;
},
{
glyphname = Lacute;
lastChange = "2018-03-11 16:48:54 +0000";
layers = (
{
hints = (
{
horizontal = 1;
place = "{0, 102}";
type = Stem;
},
{
horizontal = 1;
place = "{748, 171}";
type = Stem;
},
{
place = "{30, 544}";
type = Stem;
}
);
layerId = "327F32D8-5A79-4D64-B4F5-E4A412D056ED";
paths = (
{
closed = 1;
nodes = (
"556 -8 LINE",
"584 110 LINE",
"172 110 LINE",
"305 687 LINE",
"181 687 LINE",
"20 -8 LINE"
);
},
{
closed = 1;
nodes = (
"193 671 LINE",
"285 671 LINE",
"152 94 LINE",
"564 94 LINE",
"544 8 LINE",
"40 8 LINE"
);
},
{
closed = 1;
nodes = (
"307 740 LINE",
"484 927 LINE",
"328 927 LINE",
"187 740 LINE"
);
},
{
closed = 1;
nodes = (
"336 911 LINE",
"446 911 LINE",
"301 756 LINE",
"219 756 LINE"
);
}
);
width = 648;
}
);
note = Lacute;
rightKerningGroup = L;
unicode = 0139;
},
{
glyphname = Lcaron;
lastChange = "2018-03-11 16:48:54 +0000";
layers = (
{
hints = (
{
horizontal = 1;
place = "{0, 102}";
type = Stem;
},
{
horizontal = 1;
place = "{523, 156}";
type = Stem;
},
{
place = "{30, 544}";
type = Stem;
}
);
layerId = "327F32D8-5A79-4D64-B4F5-E4A412D056ED";
paths = (
{
closed = 1;
nodes = (
"556 -8 LINE",
"584 110 LINE",
"172 110 LINE",
"305 687 LINE",
"181 687 LINE",
"20 -8 LINE"
);
},
{
closed = 1;
nodes = (
"193 671 LINE",
"285 671 LINE",
"152 94 LINE",
"564 94 LINE",
"544 8 LINE",
"40 8 LINE"
);
},
{
closed = 1;
nodes = (
"470 515 LINE",
"583 687 LINE",
"454 687 LINE",
"387 515 LINE"
);
},
{
closed = 1;
nodes = (
"464 671 LINE",
"553 671 LINE",
"462 531 LINE",
"411 531 LINE"
);
}
);
width = 648;
}
);
note = Lcaron;
rightKerningGroup = L;
unicode = 013D;
},
{
glyphname = Ldot;
lastChange = "2018-03-11 16:48:54 +0000";
layers = (
{
hints = (
{
horizontal = 1;
place = "{0, 102}";
type = Stem;
},
{
horizontal = 1;
place = "{266, 160}";
type = Stem;
},
{
place = "{361.9, 164.15}";
type = Stem;
}
);
layerId = "327F32D8-5A79-4D64-B4F5-E4A412D056ED";
paths = (
{
closed = 1;
nodes = (
"556 -8 LINE",
"584 110 LINE",
"172 110 LINE",
"305 687 LINE",
"181 687 LINE",
"20 -8 LINE"
);
},
{
closed = 1;
nodes = (
"193 671 LINE",
"285 671 LINE",
"152 94 LINE",
"564 94 LINE",
"544 8 LINE",
"40 8 LINE"
);
},
{
closed = 1;
nodes = (
"475 258 OFFCURVE",
"521 296 OFFCURVE",
"532 344 CURVE SMOOTH",
"543 393 OFFCURVE",
"512 434 OFFCURVE",
"463 434 CURVE SMOOTH",
"414 434 OFFCURVE",
"367 396 OFFCURVE",
"356 348 CURVE SMOOTH",
"345 297 OFFCURVE",
"375 258 OFFCURVE",
"426 258 CURVE SMOOTH"
);
},
{
closed = 1;
nodes = (
"385 274 OFFCURVE",
"363 303 OFFCURVE",
"372 344 CURVE SMOOTH",
"381 385 OFFCURVE",
"422 418 OFFCURVE",
"463 418 CURVE SMOOTH",
"502 418 OFFCURVE",
"525 387 OFFCURVE",
"516 348 CURVE SMOOTH",
"507 307 OFFCURVE",
"467 274 OFFCURVE",
"426 274 CURVE SMOOTH"
);
}
);
width = 648;
}
);
note = Ldot;
unicode = 013F;
},
{
glyphname = Lslash;
lastChange = "2018-03-11 16:48:54 +0000";
layers = (
{
hints = (
{
horizontal = 1;
place = "{0, 102}";
type = Stem;
},
{
horizontal = 1;
place = "{318, 90}";
type = Stem;
},
{
place = "{-15, 589}";
type = Stem;
}
);
layerId = "327F32D8-5A79-4D64-B4F5-E4A412D056ED";
paths = (
{
closed = 1;
nodes = (
"556 -8 LINE",
"584 110 LINE",
"172 110 LINE",
"218 310 LINE",
"338 310 LINE",
"363 416 LINE",
"243 416 LINE",
"305 687 LINE",
"181 687 LINE",
"118 416 LINE",
"0 416 LINE",
"-25 310 LINE",
"94 310 LINE",
"20 -8 LINE"
);
},
{
closed = 1;
nodes = (
"114 326 LINE",
"-5 326 LINE",
"12 400 LINE",
"130 400 LINE",
"193 671 LINE",
"285 671 LINE",
"223 400 LINE",
"343 400 LINE",
"326 326 LINE",
"206 326 LINE",
"152 94 LINE",
"564 94 LINE",
"544 8 LINE",
"40 8 LINE"
);
}
);
width = 648;
}
);
note = Lslash;
rightKerningGroup = L;
unicode = 0141;
},
{
glyphname = M;
lastChange = "2018-03-11 16:48:54 +0000";
layers = (
{
hints = (
{
place = "{30, 804}";
type = Stem;
}
);
layerId = "327F32D8-5A79-4D64-B4F5-E4A412D056ED";
paths = (
{
closed = 1;
nodes = (
"144 -8 LINE",
"259 489 LINE",
"360 255 LINE",
"468 255 LINE",
"673 486 LINE",
"559 -8 LINE",
"683 -8 LINE",
"844 687 LINE",
"703 687 LINE",
"448 397 LINE",
"448 379 LINE",
"319 687 LINE",
"181 687 LINE",
"20 -8 LINE"
);
},
{
closed = 1;
nodes = (
"193 671 LINE",
"309 671 LINE",
"432 375 LINE",
"432 355 LINE",
"711 671 LINE",
"824 671 LINE",
"671 8 LINE",
"579 8 LINE",
"703 544 LINE",
"460 271 LINE",
"370 271 LINE",
"255 541 LINE",
"132 8 LINE",
"40 8 LINE"
);
}
);
width = 827;
}
);
note = M;
unicode = 004D;
},
{
glyphname = N;
lastChange = "2018-03-11 16:48:54 +0000";
layers = (
{
hints = (
{
place = "{30, 748}";
type = Stem;
}
);
layerId = "327F32D8-5A79-4D64-B4F5-E4A412D056ED";
paths = (
{
closed = 1;
nodes = (
"144 -8 LINE",
"261 494 LINE",
"495 -8 LINE",
"627 -8 LINE",
"788 687 LINE",
"664 687 LINE",
"549 194 LINE",
"317 687 LINE",
"181 687 LINE",
"20 -8 LINE"
);
},
{
closed = 1;
nodes = (
"193 671 LINE",
"307 671 LINE",
"555 146 LINE",
"676 671 LINE",
"768 671 LINE",
"615 8 LINE",
"505 8 LINE",
"255 542 LINE",
"132 8 LINE",
"40 8 LINE"
);
}
);
width = 771;
}
);
note = N;
unicode = 004E;
},
{
glyphname = Nacute;
lastChange = "2018-03-11 16:48:54 +0000";
layers = (
{
hints = (
{
horizontal = 1;
place = "{748, 171}";
type = Stem;
},
{
place = "{30, 748}";
type = Stem;
}
);
layerId = "327F32D8-5A79-4D64-B4F5-E4A412D056ED";
paths = (
{
closed = 1;
nodes = (
"144 -8 LINE",
"261 494 LINE",
"495 -8 LINE",
"627 -8 LINE",
"788 687 LINE",
"664 687 LINE",
"549 194 LINE",
"317 687 LINE",
"181 687 LINE",
"20 -8 LINE"
);
},
{
closed = 1;
nodes = (
"193 671 LINE",
"307 671 LINE",
"555 146 LINE",
"676 671 LINE",
"768 671 LINE",
"615 8 LINE",
"505 8 LINE",
"255 542 LINE",
"132 8 LINE",
"40 8 LINE"
);
},
{
closed = 1;
nodes = (
"555 740 LINE",
"732 927 LINE",
"576 927 LINE",
"435 740 LINE"
);
},
{
closed = 1;
nodes = (
"584 911 LINE",
"694 911 LINE",
"549 756 LINE",
"467 756 LINE"
);
}
);
width = 771;
}
);
note = Nacute;
unicode = 0143;
},
{
glyphname = Ncaron;
lastChange = "2018-03-11 16:48:54 +0000";
layers = (
{
hints = (
{
horizontal = 1;
place = "{748, 171}";
type = Stem;
},
{
place = "{30, 748}";
type = Stem;
}
);
layerId = "327F32D8-5A79-4D64-B4F5-E4A412D056ED";
paths = (
{
closed = 1;
nodes = (
"144 -8 LINE",
"261 494 LINE",
"495 -8 LINE",
"627 -8 LINE",
"788 687 LINE",
"664 687 LINE",
"549 194 LINE",
"317 687 LINE",
"181 687 LINE",
"20 -8 LINE"
);
},
{
closed = 1;
nodes = (
"193 671 LINE",
"307 671 LINE",
"555 146 LINE",
"676 671 LINE",
"768 671 LINE",
"615 8 LINE",
"505 8 LINE",
"255 542 LINE",
"132 8 LINE",
"40 8 LINE"
);
},
{
closed = 1;
nodes = (
"559 740 LINE",
"716 927 LINE",
"595 927 LINE",
"521 850 LINE",
"482 927 LINE",
"364 927 LINE",
"437 740 LINE"
);
},
{
closed = 1;
nodes = (
"388 911 LINE",
"472 911 LINE",
"517 822 LINE",
"601 911 LINE",
"682 911 LINE",
"551 756 LINE",
"447 756 LINE"
);
}
);
width = 771;
}
);
note = Ncaron;
unicode = 0147;
},
{
glyphname = Eng;
lastChange = "2018-03-11 16:48:54 +0000";
layers = (
{
hints = (
{
horizontal = 1;
place = "{-224, 96}";
type = Stem;
},
{
place = "{30, 748}";
type = Stem;
}
);
layerId = "327F32D8-5A79-4D64-B4F5-E4A412D056ED";
paths = (
{
closed = 1;
nodes = (
"516 -232 OFFCURVE",
"592 -160 OFFCURVE",
"622 -33 CURVE SMOOTH",
"651 92 LINE",
"650 92 LINE",
"788 687 LINE",
"664 687 LINE",
"549 194 LINE",
"317 687 LINE",
"181 687 LINE",
"20 -8 LINE",
"144 -8 LINE",
"261 494 LINE",
"495 -8 LINE",
"503 -8 LINE",
"496 -38 LINE SMOOTH",
"487 -78 OFFCURVE",
"465 -120 OFFCURVE",
"417 -120 CURVE SMOOTH",
"342 -120 OFFCURVE",
"311 -46 OFFCURVE",
"311 -46 CURVE",
"296 -47 LINE",
"270 -159 LINE",
"271 -164 LINE",
"271 -164 OFFCURVE",
"294 -232 OFFCURVE",
"410 -232 CURVE SMOOTH"
);
},
{
closed = 1;
nodes = (
"318 -216 OFFCURVE",
"291 -171 OFFCURVE",
"286 -160 CURVE",
"307 -71 LINE",
"323 -96 OFFCURVE",
"358 -136 OFFCURVE",
"417 -136 CURVE SMOOTH",
"464 -136 OFFCURVE",
"499 -101 OFFCURVE",
"512 -42 CURVE SMOOTH",
"523 8 LINE",
"505 8 LINE",
"255 542 LINE",
"132 8 LINE",
"40 8 LINE",
"193 671 LINE",
"307 671 LINE",
"555 146 LINE",
"676 671 LINE",
"768 671 LINE",
"630 76 LINE",
"631 76 LINE",
"606 -29 LINE SMOOTH",
"588 -105 OFFCURVE",
"539 -216 OFFCURVE",
"410 -216 CURVE SMOOTH"
);
}
);
width = 771;
}
);
note = Eng;
unicode = 014A;
},
{
glyphname = Ntilde;
lastChange = "2018-03-11 16:48:54 +0000";
layers = (
{
hints = (
{
horizontal = 1;
place = "{797, 90}";
type = Stem;
},
{
place = "{30, 748}";
type = Stem;
},
{
horizontal = 1;
place = "{743, 90}";
type = Stem;
}
);
layerId = "327F32D8-5A79-4D64-B4F5-E4A412D056ED";
paths = (
{
closed = 1;
nodes = (
"144 -8 LINE",
"261 494 LINE",
"495 -8 LINE",
"627 -8 LINE",
"788 687 LINE",
"664 687 LINE",
"549 194 LINE",
"317 687 LINE",
"181 687 LINE",
"20 -8 LINE"
);
},
{
closed = 1;
nodes = (
"193 671 LINE",
"307 671 LINE",
"555 146 LINE",
"676 671 LINE",
"768 671 LINE",
"615 8 LINE",
"505 8 LINE",
"255 542 LINE",
"132 8 LINE",
"40 8 LINE"
);
},
{
closed = 1;
nodes = (
"623 735 OFFCURVE",
"669 779 OFFCURVE",
"697 855 CURVE",
"607 890 LINE",
"596 868 OFFCURVE",
"590 841 OFFCURVE",
"571 841 CURVE SMOOTH",
"562 841 OFFCURVE",
"550 848 OFFCURVE",
"529 866 CURVE",
"524 868 LINE",
"542 868 LINE",
"543 869 LINE",
"526 869 LINE",
"511 881 OFFCURVE",
"488 895 OFFCURVE",
"456 895 CURVE SMOOTH",
"403 895 OFFCURVE",
"357 851 OFFCURVE",
"329 775 CURVE",
"419 740 LINE",
"430 762 OFFCURVE",
"436 789 OFFCURVE",
"455 789 CURVE SMOOTH",
"464 789 OFFCURVE",
"476 782 OFFCURVE",
"497 764 CURVE",
"502 762 LINE",
"484 762 LINE",
"483 761 LINE",
"500 761 LINE",
"515 749 OFFCURVE",
"538 735 OFFCURVE",
"570 735 CURVE SMOOTH"
);
},
{
closed = 1;
nodes = (
"548 751 OFFCURVE",
"530 758 OFFCURVE",
"508 775 CURVE",
"503 777 LINE",
"521 777 LINE",
"522 778 LINE",
"505 778 LINE",
"490 791 OFFCURVE",
"472 805 OFFCURVE",
"455 805 CURVE SMOOTH",
"429 805 OFFCURVE",
"419 780 OFFCURVE",
"411 760 CURVE",
"349 784 LINE",
"375 845 OFFCURVE",
"414 879 OFFCURVE",
"456 879 CURVE SMOOTH",
"478 879 OFFCURVE",
"496 872 OFFCURVE",
"518 855 CURVE",
"523 853 LINE",
"505 853 LINE",
"504 852 LINE",
"521 852 LINE",
"536 839 OFFCURVE",
"554 825 OFFCURVE",
"571 825 CURVE SMOOTH",
"597 825 OFFCURVE",
"607 850 OFFCURVE",
"615 870 CURVE",
"677 846 LINE",
"651 785 OFFCURVE",
"612 751 OFFCURVE",
"570 751 CURVE SMOOTH"
);
}
);
width = 771;
}
);
note = Ntilde;
unicode = 00D1;
},
{
glyphname = O;
lastChange = "2018-03-11 16:48:54 +0000";
layers = (
{
hints = (
{
horizontal = 1;
place = "{-15, 103}";
type = Stem;
},
{
horizontal = 1;
place = "{593, 102}";
type = Stem;
},
{
place = "{53.45, 114.76}";
type = Stem;
},
{
place = "{671.93, 115.52}";
type = Stem;
}
);
layerId = "327F32D8-5A79-4D64-B4F5-E4A412D056ED";
paths = (
{
closed = 1;
nodes = (
"542 -26 OFFCURVE",
"741 135 OFFCURVE",
"785 338 CURVE SMOOTH",
"835 542 OFFCURVE",
"709 706 OFFCURVE",
"502 703 CURVE SMOOTH",
"298 706 OFFCURVE",
"100 546 OFFCURVE",
"56 342 CURVE SMOOTH",
"6 137 OFFCURVE",
"131 -26 OFFCURVE",
"338 -23 CURVE SMOOTH"
);
},
{
closed = 1;
nodes = (
"141 -10 OFFCURVE",
"24 143 OFFCURVE",
"72 338 CURVE SMOOTH",
"114 535 OFFCURVE",
"305 690 OFFCURVE",
"502 687 CURVE SMOOTH",
"698 690 OFFCURVE",
"817 536 OFFCURVE",
"769 342 CURVE SMOOTH",
"727 146 OFFCURVE",
"534 -10 OFFCURVE",
"338 -7 CURVE SMOOTH"
);
},
{
closed = 1;
nodes = (
"224 96 OFFCURVE",
"151 195 OFFCURVE",
"184 338 CURVE SMOOTH",
"217 483 OFFCURVE",
"340 585 OFFCURVE",
"478 585 CURVE SMOOTH",
"616 585 OFFCURVE",
"690 485 OFFCURVE",
"656 342 CURVE SMOOTH",
"623 196 OFFCURVE",
"502 96 OFFCURVE",
"362 96 CURVE SMOOTH"
);
},
{
closed = 1;
nodes = (
"510 80 OFFCURVE",
"637 186 OFFCURVE",
"672 338 CURVE SMOOTH",
"707 491 OFFCURVE",
"627 601 OFFCURVE",
"478 601 CURVE SMOOTH",
"332 601 OFFCURVE",
"203 493 OFFCURVE",
"168 342 CURVE SMOOTH",
"133 189 OFFCURVE",
"213 80 OFFCURVE",
"362 80 CURVE SMOOTH"
);
}
);
width = 803;
}
);
leftKerningGroup = C;
note = O;
rightKerningGroup = O;
unicode = 004F;
},
{
glyphname = Oacute;
lastChange = "2018-03-11 16:48:54 +0000";
layers = (
{
hints = (
{
horizontal = 1;
place = "{-15, 103}";
type = Stem;
},
{
horizontal = 1;
place = "{593, 102}";
type = Stem;
},
{
horizontal = 1;
place = "{748, 171}";
type = Stem;
},
{
place = "{53.45, 114.76}";
type = Stem;
},
{
place = "{671.93, 115.52}";
type = Stem;
}
);
layerId = "327F32D8-5A79-4D64-B4F5-E4A412D056ED";
paths = (
{
closed = 1;
nodes = (
"542 -26 OFFCURVE",
"741 135 OFFCURVE",
"785 338 CURVE SMOOTH",
"835 542 OFFCURVE",
"709 706 OFFCURVE",
"502 703 CURVE SMOOTH",
"298 706 OFFCURVE",
"100 546 OFFCURVE",
"56 342 CURVE SMOOTH",
"6 137 OFFCURVE",
"131 -26 OFFCURVE",
"338 -23 CURVE SMOOTH"
);
},
{
closed = 1;
nodes = (
"141 -10 OFFCURVE",
"24 143 OFFCURVE",
"72 338 CURVE SMOOTH",
"114 535 OFFCURVE",
"305 690 OFFCURVE",
"502 687 CURVE SMOOTH",
"698 690 OFFCURVE",
"817 536 OFFCURVE",
"769 342 CURVE SMOOTH",
"727 146 OFFCURVE",
"534 -10 OFFCURVE",
"338 -7 CURVE SMOOTH"
);
},
{
closed = 1;
nodes = (
"224 96 OFFCURVE",
"151 195 OFFCURVE",
"184 338 CURVE SMOOTH",
"217 483 OFFCURVE",
"340 585 OFFCURVE",
"478 585 CURVE SMOOTH",
"616 585 OFFCURVE",
"690 485 OFFCURVE",
"656 342 CURVE SMOOTH",
"623 196 OFFCURVE",
"502 96 OFFCURVE",
"362 96 CURVE SMOOTH"
);
},
{
closed = 1;
nodes = (
"510 80 OFFCURVE",
"637 186 OFFCURVE",
"672 338 CURVE SMOOTH",
"707 491 OFFCURVE",
"627 601 OFFCURVE",
"478 601 CURVE SMOOTH",
"332 601 OFFCURVE",
"203 493 OFFCURVE",
"168 342 CURVE SMOOTH",
"133 189 OFFCURVE",
"213 80 OFFCURVE",
"362 80 CURVE SMOOTH"
);
},
{
closed = 1;
nodes = (
"571 740 LINE",
"748 927 LINE",
"592 927 LINE",
"451 740 LINE"
);
},
{
closed = 1;
nodes = (
"600 911 LINE",
"710 911 LINE",
"565 756 LINE",
"483 756 LINE"
);
}
);
width = 803;
}
);
leftKerningGroup = C;
note = Oacute;
rightKerningGroup = O;
unicode = 00D3;
},
{
glyphname = Ocircumflex;
lastChange = "2018-03-11 16:48:54 +0000";
layers = (
{
hints = (
{
horizontal = 1;
place = "{-15, 103}";
type = Stem;
},
{
horizontal = 1;
place = "{593, 102}";
type = Stem;
},
{
horizontal = 1;
place = "{748, 171}";
type = Stem;
},
{
place = "{53.45, 114.76}";
type = Stem;
},
{
place = "{671.93, 115.52}";
type = Stem;
}
);
layerId = "327F32D8-5A79-4D64-B4F5-E4A412D056ED";
paths = (
{
closed = 1;
nodes = (
"542 -26 OFFCURVE",
"741 135 OFFCURVE",
"785 338 CURVE SMOOTH",
"835 542 OFFCURVE",
"709 706 OFFCURVE",
"502 703 CURVE SMOOTH",
"298 706 OFFCURVE",
"100 546 OFFCURVE",
"56 342 CURVE SMOOTH",
"6 137 OFFCURVE",
"131 -26 OFFCURVE",
"338 -23 CURVE SMOOTH"
);
},
{
closed = 1;
nodes = (
"141 -10 OFFCURVE",
"24 143 OFFCURVE",
"72 338 CURVE SMOOTH",
"114 535 OFFCURVE",
"305 690 OFFCURVE",
"502 687 CURVE SMOOTH",
"698 690 OFFCURVE",
"817 536 OFFCURVE",
"769 342 CURVE SMOOTH",
"727 146 OFFCURVE",
"534 -10 OFFCURVE",
"338 -7 CURVE SMOOTH"
);
},
{
closed = 1;
nodes = (
"224 96 OFFCURVE",
"151 195 OFFCURVE",
"184 338 CURVE SMOOTH",
"217 483 OFFCURVE",
"340 585 OFFCURVE",
"478 585 CURVE SMOOTH",
"616 585 OFFCURVE",
"690 485 OFFCURVE",
"656 342 CURVE SMOOTH",
"623 196 OFFCURVE",
"502 96 OFFCURVE",
"362 96 CURVE SMOOTH"
);
},
{
closed = 1;
nodes = (
"510 80 OFFCURVE",
"637 186 OFFCURVE",
"672 338 CURVE SMOOTH",
"707 491 OFFCURVE",
"627 601 OFFCURVE",
"478 601 CURVE SMOOTH",
"332 601 OFFCURVE",
"203 493 OFFCURVE",
"168 342 CURVE SMOOTH",
"133 189 OFFCURVE",
"213 80 OFFCURVE",
"362 80 CURVE SMOOTH"
);
},
{
closed = 1;
nodes = (
"457 740 LINE",
"532 817 LINE",
"570 740 LINE",
"688 740 LINE",
"615 927 LINE",
"493 927 LINE",
"336 740 LINE"
);
},
{
closed = 1;
nodes = (
"501 911 LINE",
"605 911 LINE",
"664 756 LINE",
"580 756 LINE",
"536 845 LINE",
"451 756 LINE",
"370 756 LINE"
);
}
);
width = 803;
}
);
leftKerningGroup = C;
note = Ocircumflex;
rightKerningGroup = O;
unicode = 00D4;
},
{
glyphname = Odieresis;
lastChange = "2018-03-11 16:48:54 +0000";
layers = (
{
hints = (
{
horizontal = 1;
place = "{-15, 103}";
type = Stem;
},
{
horizontal = 1;
place = "{593, 102}";
type = Stem;
},
{
horizontal = 1;
place = "{760, 111}";
type = Stem;
},
{
place = "{53.45, 114.76}";
type = Stem;
},
{
place = "{671.93, 115.52}";
type = Stem;
}
);
layerId = "327F32D8-5A79-4D64-B4F5-E4A412D056ED";
paths = (
{
closed = 1;
nodes = (
"542 -26 OFFCURVE",
"741 135 OFFCURVE",
"785 338 CURVE SMOOTH",
"835 542 OFFCURVE",
"709 706 OFFCURVE",
"502 703 CURVE SMOOTH",
"298 706 OFFCURVE",
"100 546 OFFCURVE",
"56 342 CURVE SMOOTH",
"6 137 OFFCURVE",
"131 -26 OFFCURVE",
"338 -23 CURVE SMOOTH"
);
},
{
closed = 1;
nodes = (
"141 -10 OFFCURVE",
"24 143 OFFCURVE",
"72 338 CURVE SMOOTH",
"114 535 OFFCURVE",
"305 690 OFFCURVE",
"502 687 CURVE SMOOTH",
"698 690 OFFCURVE",
"817 536 OFFCURVE",
"769 342 CURVE SMOOTH",
"727 146 OFFCURVE",
"534 -10 OFFCURVE",
"338 -7 CURVE SMOOTH"
);
},
{
closed = 1;
nodes = (
"224 96 OFFCURVE",
"151 195 OFFCURVE",
"184 338 CURVE SMOOTH",
"217 483 OFFCURVE",
"340 585 OFFCURVE",
"478 585 CURVE SMOOTH",
"616 585 OFFCURVE",
"690 485 OFFCURVE",
"656 342 CURVE SMOOTH",
"623 196 OFFCURVE",
"502 96 OFFCURVE",
"362 96 CURVE SMOOTH"
);
},
{
closed = 1;
nodes = (
"510 80 OFFCURVE",
"637 186 OFFCURVE",
"672 338 CURVE SMOOTH",
"707 491 OFFCURVE",
"627 601 OFFCURVE",
"478 601 CURVE SMOOTH",
"332 601 OFFCURVE",
"203 493 OFFCURVE",
"168 342 CURVE SMOOTH",
"133 189 OFFCURVE",
"213 80 OFFCURVE",
"362 80 CURVE SMOOTH"
);
},
{
closed = 1;
nodes = (
"450 752 OFFCURVE",
"483 779 OFFCURVE",
"491 813 CURVE SMOOTH",
"499 849 OFFCURVE",
"476 879 OFFCURVE",
"441 879 CURVE SMOOTH",
"406 879 OFFCURVE",
"372 851 OFFCURVE",
"364 817 CURVE SMOOTH",
"356 782 OFFCURVE",
"380 752 OFFCURVE",
"416 752 CURVE SMOOTH"
);
},
{
closed = 1;
nodes = (
"390 768 OFFCURVE",
"374 788 OFFCURVE",
"380 813 CURVE SMOOTH",
"386 840 OFFCURVE",
"414 863 OFFCURVE",
"441 863 CURVE SMOOTH",
"466 863 OFFCURVE",
"481 843 OFFCURVE",
"475 817 CURVE SMOOTH",
"469 790 OFFCURVE",
"442 768 OFFCURVE",
"416 768 CURVE SMOOTH"
);
},
{
closed = 1;
nodes = (
"642 752 OFFCURVE",
"675 779 OFFCURVE",
"683 813 CURVE SMOOTH",
"691 849 OFFCURVE",
"668 879 OFFCURVE",
"633 879 CURVE SMOOTH",
"598 879 OFFCURVE",
"564 851 OFFCURVE",
"556 817 CURVE SMOOTH",
"548 782 OFFCURVE",
"572 752 OFFCURVE",
"608 752 CURVE SMOOTH"
);
},
{
closed = 1;
nodes = (
"582 768 OFFCURVE",
"566 788 OFFCURVE",
"572 813 CURVE SMOOTH",
"578 840 OFFCURVE",
"606 863 OFFCURVE",
"633 863 CURVE SMOOTH",
"658 863 OFFCURVE",
"673 843 OFFCURVE",
"667 817 CURVE SMOOTH",
"661 790 OFFCURVE",
"634 768 OFFCURVE",
"608 768 CURVE SMOOTH"
);
}
);
width = 803;
}
);
leftKerningGroup = C;
note = Odieresis;
rightKerningGroup = O;
unicode = 00D6;
},
{
glyphname = Ograve;
lastChange = "2018-03-11 16:48:54 +0000";
layers = (
{
hints = (
{
horizontal = 1;
place = "{-15, 103}";
type = Stem;
},
{
horizontal = 1;
place = "{593, 102}";
type = Stem;
},
{
horizontal = 1;
place = "{748, 171}";
type = Stem;
},
{
place = "{53.45, 114.76}";
type = Stem;
},
{
place = "{671.93, 115.52}";
type = Stem;
}
);
layerId = "327F32D8-5A79-4D64-B4F5-E4A412D056ED";
paths = (
{
closed = 1;
nodes = (
"542 -26 OFFCURVE",
"741 135 OFFCURVE",
"785 338 CURVE SMOOTH",
"835 542 OFFCURVE",
"709 706 OFFCURVE",
"502 703 CURVE SMOOTH",
"298 706 OFFCURVE",
"100 546 OFFCURVE",
"56 342 CURVE SMOOTH",
"6 137 OFFCURVE",
"131 -26 OFFCURVE",
"338 -23 CURVE SMOOTH"
);
},
{
closed = 1;
nodes = (
"141 -10 OFFCURVE",
"24 143 OFFCURVE",
"72 338 CURVE SMOOTH",
"114 535 OFFCURVE",
"305 690 OFFCURVE",
"502 687 CURVE SMOOTH",
"698 690 OFFCURVE",
"817 536 OFFCURVE",
"769 342 CURVE SMOOTH",
"727 146 OFFCURVE",
"534 -10 OFFCURVE",
"338 -7 CURVE SMOOTH"
);
},
{
closed = 1;
nodes = (
"224 96 OFFCURVE",
"151 195 OFFCURVE",
"184 338 CURVE SMOOTH",
"217 483 OFFCURVE",
"340 585 OFFCURVE",
"478 585 CURVE SMOOTH",
"616 585 OFFCURVE",
"690 485 OFFCURVE",
"656 342 CURVE SMOOTH",
"623 196 OFFCURVE",
"502 96 OFFCURVE",
"362 96 CURVE SMOOTH"
);
},
{
closed = 1;
nodes = (
"510 80 OFFCURVE",
"637 186 OFFCURVE",
"672 338 CURVE SMOOTH",
"707 491 OFFCURVE",
"627 601 OFFCURVE",
"478 601 CURVE SMOOTH",
"332 601 OFFCURVE",
"203 493 OFFCURVE",
"168 342 CURVE SMOOTH",
"133 189 OFFCURVE",
"213 80 OFFCURVE",
"362 80 CURVE SMOOTH"
);
},
{
closed = 1;
nodes = (
"575 740 LINE",
"519 927 LINE",
"367 927 LINE",
"458 740 LINE"
);
},
{
closed = 1;
nodes = (
"393 911 LINE",
"507 911 LINE",
"553 756 LINE",
"468 756 LINE"
);
}
);
width = 803;
}
);
leftKerningGroup = C;
note = Ograve;
rightKerningGroup = O;
unicode = 00D2;
},
{
glyphname = Ohungarumlaut;
lastChange = "2018-03-11 16:48:54 +0000";
layers = (
{
hints = (
{
horizontal = 1;
place = "{-15, 103}";
type = Stem;
},
{
horizontal = 1;
place = "{593, 102}";
type = Stem;
},
{
horizontal = 1;
place = "{748, 171}";
type = Stem;
},
{
place = "{53.45, 114.76}";
type = Stem;
},
{
place = "{671.93, 115.52}";
type = Stem;
}
);
layerId = "327F32D8-5A79-4D64-B4F5-E4A412D056ED";
paths = (
{
closed = 1;
nodes = (
"542 -26 OFFCURVE",
"741 135 OFFCURVE",
"785 338 CURVE SMOOTH",
"835 542 OFFCURVE",
"709 706 OFFCURVE",
"502 703 CURVE SMOOTH",
"298 706 OFFCURVE",
"100 546 OFFCURVE",
"56 342 CURVE SMOOTH",
"6 137 OFFCURVE",
"131 -26 OFFCURVE",
"338 -23 CURVE SMOOTH"
);
},
{
closed = 1;
nodes = (
"141 -10 OFFCURVE",
"24 143 OFFCURVE",
"72 338 CURVE SMOOTH",
"114 535 OFFCURVE",
"305 690 OFFCURVE",
"502 687 CURVE SMOOTH",
"698 690 OFFCURVE",
"817 536 OFFCURVE",
"769 342 CURVE SMOOTH",
"727 146 OFFCURVE",
"534 -10 OFFCURVE",
"338 -7 CURVE SMOOTH"
);
},
{
closed = 1;
nodes = (
"224 96 OFFCURVE",
"151 195 OFFCURVE",
"184 338 CURVE SMOOTH",
"217 483 OFFCURVE",
"340 585 OFFCURVE",
"478 585 CURVE SMOOTH",
"616 585 OFFCURVE",
"690 485 OFFCURVE",
"656 342 CURVE SMOOTH",
"623 196 OFFCURVE",
"502 96 OFFCURVE",
"362 96 CURVE SMOOTH"
);
},
{
closed = 1;
nodes = (
"510 80 OFFCURVE",
"637 186 OFFCURVE",
"672 338 CURVE SMOOTH",
"707 491 OFFCURVE",
"627 601 OFFCURVE",
"478 601 CURVE SMOOTH",
"332 601 OFFCURVE",
"203 493 OFFCURVE",
"168 342 CURVE SMOOTH",
"133 189 OFFCURVE",
"213 80 OFFCURVE",
"362 80 CURVE SMOOTH"
);
},
{
closed = 1;
nodes = (
"482 740 LINE",
"659 927 LINE",
"503 927 LINE",
"362 740 LINE"
);
},
{
closed = 1;
nodes = (
"511 911 LINE",
"621 911 LINE",
"476 756 LINE",
"394 756 LINE"
);
},
{
closed = 1;
nodes = (
"662 740 LINE",
"849 927 LINE",
"693 927 LINE",
"541 740 LINE"
);
},
{
closed = 1;
nodes = (
"701 911 LINE",
"811 911 LINE",
"656 756 LINE",
"575 756 LINE"
);
}
);
width = 803;
}
);
leftKerningGroup = C;
note = Ohungarumlaut;
rightKerningGroup = O;
unicode = 0150;
},
{
glyphname = Omacron;
lastChange = "2018-03-11 16:48:54 +0000";
layers = (
{
hints = (
{
horizontal = 1;
place = "{-15, 103}";
type = Stem;
},
{
horizontal = 1;
place = "{593, 102}";
type = Stem;
},
{
horizontal = 1;
place = "{763, 90}";
type = Stem;
},
{
place = "{53.45, 114.76}";
type = Stem;
},
{
place = "{671.93, 115.52}";
type = Stem;
}
);
layerId = "327F32D8-5A79-4D64-B4F5-E4A412D056ED";
paths = (
{
closed = 1;
nodes = (
"542 -26 OFFCURVE",
"741 135 OFFCURVE",
"785 338 CURVE SMOOTH",
"835 542 OFFCURVE",
"709 706 OFFCURVE",
"502 703 CURVE SMOOTH",
"298 706 OFFCURVE",
"100 546 OFFCURVE",
"56 342 CURVE SMOOTH",
"6 137 OFFCURVE",
"131 -26 OFFCURVE",
"338 -23 CURVE SMOOTH"
);
},
{
closed = 1;
nodes = (
"141 -10 OFFCURVE",
"24 143 OFFCURVE",
"72 338 CURVE SMOOTH",
"114 535 OFFCURVE",
"305 690 OFFCURVE",
"502 687 CURVE SMOOTH",
"698 690 OFFCURVE",
"817 536 OFFCURVE",
"769 342 CURVE SMOOTH",
"727 146 OFFCURVE",
"534 -10 OFFCURVE",
"338 -7 CURVE SMOOTH"
);
},
{
closed = 1;
nodes = (
"224 96 OFFCURVE",
"151 195 OFFCURVE",
"184 338 CURVE SMOOTH",
"217 483 OFFCURVE",
"340 585 OFFCURVE",
"478 585 CURVE SMOOTH",
"616 585 OFFCURVE",
"690 485 OFFCURVE",
"656 342 CURVE SMOOTH",
"623 196 OFFCURVE",
"502 96 OFFCURVE",
"362 96 CURVE SMOOTH"
);
},
{
closed = 1;
nodes = (
"510 80 OFFCURVE",
"637 186 OFFCURVE",
"672 338 CURVE SMOOTH",
"707 491 OFFCURVE",
"627 601 OFFCURVE",
"478 601 CURVE SMOOTH",
"332 601 OFFCURVE",
"203 493 OFFCURVE",
"168 342 CURVE SMOOTH",
"133 189 OFFCURVE",
"213 80 OFFCURVE",
"362 80 CURVE SMOOTH"
);
},
{
closed = 1;
nodes = (
"662 755 LINE",
"687 861 LINE",
"394 861 LINE",
"369 755 LINE"
);
},
{
closed = 1;
nodes = (
"406 845 LINE",
"667 845 LINE",
"650 771 LINE",
"389 771 LINE"
);
}
);
width = 803;
}
);
leftKerningGroup = C;
note = Omacron;
rightKerningGroup = O;
unicode = 014C;
},
{
glyphname = Oslash;
lastChange = "2018-03-11 16:48:54 +0000";
layers = (
{
hints = (
{
horizontal = 1;
place = "{-15, 103}";
type = Stem;
},
{
place = "{53.23, 115.14}";
type = Stem;
},
{
place = "{672.25, 115.78}";
type = Stem;
},
{
horizontal = 1;
place = "{593, 102}";
type = Stem;
}
);
layerId = "327F32D8-5A79-4D64-B4F5-E4A412D056ED";
paths = (
{
closed = 1;
nodes = (
"542 -26 OFFCURVE",
"741 135 OFFCURVE",
"785 338 CURVE SMOOTH",
"803 410 OFFCURVE",
"799 481 OFFCURVE",
"773 542 CURVE",
"877 622 LINE",
"807 712 LINE",
"706 634 LINE",
"653 680 OFFCURVE",
"582 704 OFFCURVE",
"502 703 CURVE SMOOTH",
"298 706 OFFCURVE",
"100 546 OFFCURVE",
"56 342 CURVE SMOOTH",
"39 272 OFFCURVE",
"42 203 OFFCURVE",
"65 144 CURVE",
"-35 66 LINE",
"35 -24 LINE",
"130 49 LINE",
"183 1 OFFCURVE",
"255 -24 OFFCURVE",
"338 -23 CURVE SMOOTH"
);
},
{
closed = 1;
nodes = (
"253 -8 OFFCURVE",
"181 19 OFFCURVE",
"132 71 CURVE",
"37 -2 LINE",
"-13 64 LINE",
"85 138 LINE",
"59 196 OFFCURVE",
"54 266 OFFCURVE",
"72 338 CURVE",
"114 535 OFFCURVE",
"305 690 OFFCURVE",
"502 687 CURVE SMOOTH",
"584 688 OFFCURVE",
"654 662 OFFCURVE",
"706 614 CURVE",
"805 690 LINE",
"855 624 LINE",
"753 546 LINE",
"782 488 OFFCURVE",
"788 416 OFFCURVE",
"769 342 CURVE",
"727 146 OFFCURVE",
"534 -10 OFFCURVE",
"338 -7 CURVE SMOOTH"
);
},
{
closed = 1;
nodes = (
"312 96 OFFCURVE",
"270 109 OFFCURVE",
"239 133 CURVE",
"659 454 LINE",
"667 421 OFFCURVE",
"666 383 OFFCURVE",
"656 342 CURVE SMOOTH",
"623 196 OFFCURVE",
"502 96 OFFCURVE",
"362 96 CURVE SMOOTH"
);
},
{
closed = 1;
nodes = (
"510 80 OFFCURVE",
"637 186 OFFCURVE",
"672 338 CURVE SMOOTH",
"684 391 OFFCURVE",
"683 440 OFFCURVE",
"668 481 CURVE",
"214 134 LINE",
"249 98 OFFCURVE",
"301 80 OFFCURVE",
"362 80 CURVE SMOOTH"
);
},
{
closed = 1;
nodes = (
"174 264 OFFCURVE",
"175 300 OFFCURVE",
"184 338 CURVE SMOOTH",
"217 483 OFFCURVE",
"340 585 OFFCURVE",
"478 585 CURVE SMOOTH",
"527 585 OFFCURVE",
"567 573 OFFCURVE",
"597 551 CURVE",
"180 231 LINE"
);
},
{
closed = 1;
nodes = (
"623 551 LINE",
"587 584 OFFCURVE",
"538 601 OFFCURVE",
"478 601 CURVE SMOOTH",
"332 601 OFFCURVE",
"203 493 OFFCURVE",
"168 342 CURVE SMOOTH",
"157 291 OFFCURVE",
"158 244 OFFCURVE",
"171 203 CURVE"
);
}
);
width = 803;
}
);
leftKerningGroup = C;
note = Oslash;
rightKerningGroup = O;
unicode = 00D8;
},
{
glyphname = Otilde;
lastChange = "2018-03-11 16:48:54 +0000";
layers = (
{
hints = (
{
horizontal = 1;
place = "{-15, 103}";
type = Stem;
},
{
horizontal = 1;
place = "{593, 102}";
type = Stem;
},
{
horizontal = 1;
place = "{743, 90}";
type = Stem;
},
{
place = "{53.45, 114.76}";
type = Stem;
},
{
place = "{671.93, 115.52}";
type = Stem;
},
{
horizontal = 1;
place = "{797, 90}";
type = Stem;
}
);
layerId = "327F32D8-5A79-4D64-B4F5-E4A412D056ED";
paths = (
{
closed = 1;
nodes = (
"542 -26 OFFCURVE",
"741 135 OFFCURVE",
"785 338 CURVE SMOOTH",
"835 542 OFFCURVE",
"709 706 OFFCURVE",
"502 703 CURVE SMOOTH",
"298 706 OFFCURVE",
"100 546 OFFCURVE",
"56 342 CURVE SMOOTH",
"6 137 OFFCURVE",
"131 -26 OFFCURVE",
"338 -23 CURVE SMOOTH"
);
},
{
closed = 1;
nodes = (
"141 -10 OFFCURVE",
"24 143 OFFCURVE",
"72 338 CURVE SMOOTH",
"114 535 OFFCURVE",
"305 690 OFFCURVE",
"502 687 CURVE SMOOTH",
"698 690 OFFCURVE",
"817 536 OFFCURVE",
"769 342 CURVE SMOOTH",
"727 146 OFFCURVE",
"534 -10 OFFCURVE",
"338 -7 CURVE SMOOTH"
);
},
{
closed = 1;
nodes = (
"224 96 OFFCURVE",
"151 195 OFFCURVE",
"184 338 CURVE SMOOTH",
"217 483 OFFCURVE",
"340 585 OFFCURVE",
"478 585 CURVE SMOOTH",
"616 585 OFFCURVE",
"690 485 OFFCURVE",
"656 342 CURVE SMOOTH",
"623 196 OFFCURVE",
"502 96 OFFCURVE",
"362 96 CURVE SMOOTH"
);
},
{
closed = 1;
nodes = (
"510 80 OFFCURVE",
"637 186 OFFCURVE",
"672 338 CURVE SMOOTH",
"707 491 OFFCURVE",
"627 601 OFFCURVE",
"478 601 CURVE SMOOTH",
"332 601 OFFCURVE",
"203 493 OFFCURVE",
"168 342 CURVE SMOOTH",
"133 189 OFFCURVE",
"213 80 OFFCURVE",
"362 80 CURVE SMOOTH"
);
},
{
closed = 1;
nodes = (
"639 735 OFFCURVE",
"685 779 OFFCURVE",
"713 855 CURVE",
"623 890 LINE",
"612 868 OFFCURVE",
"606 841 OFFCURVE",
"587 841 CURVE SMOOTH",
"578 841 OFFCURVE",
"566 848 OFFCURVE",
"545 866 CURVE",
"540 868 LINE",
"558 868 LINE",
"559 869 LINE",
"542 869 LINE",
"527 881 OFFCURVE",
"504 895 OFFCURVE",
"472 895 CURVE SMOOTH",
"419 895 OFFCURVE",
"373 851 OFFCURVE",
"345 775 CURVE",
"435 740 LINE",
"446 762 OFFCURVE",
"452 789 OFFCURVE",
"471 789 CURVE SMOOTH",
"480 789 OFFCURVE",
"492 782 OFFCURVE",
"513 764 CURVE",
"518 762 LINE",
"500 762 LINE",
"499 761 LINE",
"516 761 LINE",
"531 749 OFFCURVE",
"554 735 OFFCURVE",
"586 735 CURVE SMOOTH"
);
},
{
closed = 1;
nodes = (
"564 751 OFFCURVE",
"546 758 OFFCURVE",
"524 775 CURVE",
"519 777 LINE",
"537 777 LINE",
"538 778 LINE",
"521 778 LINE",
"506 791 OFFCURVE",
"488 805 OFFCURVE",
"471 805 CURVE SMOOTH",
"445 805 OFFCURVE",
"435 780 OFFCURVE",
"427 760 CURVE",
"365 784 LINE",
"391 845 OFFCURVE",
"430 879 OFFCURVE",
"472 879 CURVE SMOOTH",
"494 879 OFFCURVE",
"512 872 OFFCURVE",
"534 855 CURVE",
"539 853 LINE",
"521 853 LINE",
"520 852 LINE",
"537 852 LINE",
"552 839 OFFCURVE",
"570 825 OFFCURVE",
"587 825 CURVE SMOOTH",
"613 825 OFFCURVE",
"623 850 OFFCURVE",
"631 870 CURVE",
"693 846 LINE",
"667 785 OFFCURVE",
"628 751 OFFCURVE",
"586 751 CURVE SMOOTH"
);
}
);
width = 803;
}
);
leftKerningGroup = C;
note = Otilde;
rightKerningGroup = O;
unicode = 00D5;
},
{
glyphname = OE;
lastChange = "2018-03-11 16:48:54 +0000";
layers = (
{
hints = (
{
horizontal = 1;
place = "{0, 102}";
type = Stem;
},
{
horizontal = 1;
place = "{311, 102}";
type = Stem;
},
{
horizontal = 1;
place = "{577, 102}";
type = Stem;
},
{
place = "{53.45, 114.76}";
type = Stem;
},
{
horizontal = 1;
place = "{-15, 103}";
type = Stem;
},
{
horizontal = 1;
place = "{593, 102}";
type = Stem;
}
);
layerId = "327F32D8-5A79-4D64-B4F5-E4A412D056ED";
paths = (
{
closed = 1;
nodes = (
"425 -24 OFFCURVE",
"513 4 OFFCURVE",
"590 56 CURVE",
"575 -8 LINE",
"1093 -8 LINE",
"1121 110 LINE",
"728 110 LINE",
"772 303 LINE",
"1080 303 LINE",
"1108 421 LINE",
"799 421 LINE",
"833 569 LINE",
"1221 569 LINE",
"1248 687 LINE",
"736 687 LINE",
"721 621 LINE",
"667 675 OFFCURVE",
"590 704 OFFCURVE",
"502 703 CURVE SMOOTH",
"298 706 OFFCURVE",
"100 546 OFFCURVE",
"56 342 CURVE SMOOTH",
"6 137 OFFCURVE",
"131 -26 OFFCURVE",
"338 -23 CURVE SMOOTH"
);
},
{
closed = 1;
nodes = (
"141 -10 OFFCURVE",
"24 143 OFFCURVE",
"72 338 CURVE SMOOTH",
"114 535 OFFCURVE",
"305 690 OFFCURVE",
"502 687 CURVE SMOOTH",
"598 688 OFFCURVE",
"679 652 OFFCURVE",
"729 586 CURVE",
"748 671 LINE",
"1228 671 LINE",
"1209 585 LINE",
"821 585 LINE",
"779 405 LINE",
"1088 405 LINE",
"1068 319 LINE",
"760 319 LINE",
"708 94 LINE",
"1101 94 LINE",
"1081 8 LINE",
"595 8 LINE",
"615 95 LINE",
"533 28 OFFCURVE",
"435 -8 OFFCURVE",
"338 -7 CURVE SMOOTH"
);
},
{
closed = 1;
nodes = (
"224 96 OFFCURVE",
"151 195 OFFCURVE",
"184 338 CURVE SMOOTH",
"217 483 OFFCURVE",
"340 585 OFFCURVE",
"478 585 CURVE SMOOTH",
"611 585 OFFCURVE",
"684 493 OFFCURVE",
"659 357 CURVE",
"652 326 LINE",
"614 188 OFFCURVE",
"497 96 OFFCURVE",
"362 96 CURVE SMOOTH"
);
},
{
closed = 1;
nodes = (
"504 80 OFFCURVE",
"627 177 OFFCURVE",
"668 322 CURVE",
"675 354 LINE SMOOTH",
"702 500 OFFCURVE",
"621 601 OFFCURVE",
"478 601 CURVE SMOOTH",
"332 601 OFFCURVE",
"203 493 OFFCURVE",
"168 342 CURVE SMOOTH",
"133 189 OFFCURVE",
"213 80 OFFCURVE",
"362 80 CURVE SMOOTH"
);
}
);
width = 1197;
}
);
leftKerningGroup = C;
note = OE;
rightKerningGroup = AE;
unicode = 0152;
},
{
glyphname = P;
lastChange = "2018-03-11 16:48:54 +0000";
layers = (
{
hints = (
{
horizontal = 1;
place = "{233, 100}";
type = Stem;
},
{
horizontal = 1;
place = "{577, 102}";
type = Stem;
},
{
place = "{585.31, 116.04}";
type = Stem;
}
);
layerId = "327F32D8-5A79-4D64-B4F5-E4A412D056ED";
paths = (
{
closed = 1;
nodes = (
"145 -8 LINE",
"199 225 LINE",
"400 225 LINE SMOOTH",
"546 225 OFFCURVE",
"672 320 OFFCURVE",
"703 454 CURVE SMOOTH",
"734 589 OFFCURVE",
"651 687 OFFCURVE",
"506 687 CURVE SMOOTH",
"181 687 LINE",
"20 -8 LINE"
);
},
{
closed = 1;
nodes = (
"193 671 LINE",
"506 671 LINE SMOOTH",
"641 671 OFFCURVE",
"716 583 OFFCURVE",
"687 458 CURVE SMOOTH",
"658 331 OFFCURVE",
"538 241 OFFCURVE",
"400 241 CURVE SMOOTH",
"187 241 LINE",
"133 8 LINE",
"40 8 LINE"
);
},
{
closed = 1;
nodes = (
"278 569 LINE",
"475 569 LINE SMOOTH",
"548 569 OFFCURVE",
"589 521 OFFCURVE",
"574 456 CURVE SMOOTH",
"559 390 OFFCURVE",
"492 341 OFFCURVE",
"418 341 CURVE SMOOTH",
"226 341 LINE"
);
},
{
closed = 1;
nodes = (
"418 325 LINE SMOOTH",
"500 325 OFFCURVE",
"573 379 OFFCURVE",
"590 452 CURVE SMOOTH",
"607 528 OFFCURVE",
"558 585 OFFCURVE",
"475 585 CURVE SMOOTH",
"266 585 LINE",
"206 325 LINE"
);
}
);
width = 698;
}
);
note = P;
rightKerningGroup = P;
unicode = 0050;
},
{
glyphname = Thorn;
lastChange = "2018-03-11 16:48:54 +0000";
layers = (
{
hints = (
{
horizontal = 1;
place = "{93, 100}";
type = Stem;
},
{
horizontal = 1;
place = "{487, 102}";
type = Stem;
},
{
place = "{561.33, 115.34}";
type = Stem;
},
{
horizontal = 1;
place = "{0, 193}";
type = Stem;
}
);
layerId = "327F32D8-5A79-4D64-B4F5-E4A412D056ED";
paths = (
{
closed = 1;
nodes = (
"145 -8 LINE",
"167 85 LINE",
"348 85 LINE SMOOTH",
"511 85 OFFCURVE",
"640 185 OFFCURVE",
"676 339 CURVE SMOOTH",
"713 500 OFFCURVE",
"634 597 OFFCURVE",
"465 597 CURVE SMOOTH",
"285 597 LINE",
"306 687 LINE",
"181 687 LINE",
"20 -8 LINE"
);
},
{
closed = 1;
nodes = (
"193 671 LINE",
"286 671 LINE",
"265 581 LINE",
"465 581 LINE SMOOTH",
"623 581 OFFCURVE",
"695 493 OFFCURVE",
"660 343 CURVE SMOOTH",
"627 196 OFFCURVE",
"503 101 OFFCURVE",
"348 101 CURVE SMOOTH",
"155 101 LINE",
"133 8 LINE",
"40 8 LINE"
);
},
{
closed = 1;
nodes = (
"258 479 LINE",
"434 479 LINE SMOOTH",
"533 479 OFFCURVE",
"569 435 OFFCURVE",
"548 341 CURVE SMOOTH",
"526 247 OFFCURVE",
"466 201 OFFCURVE",
"366 201 CURVE SMOOTH",
"194 201 LINE"
);
},
{
closed = 1;
nodes = (
"366 185 LINE SMOOTH",
"473 185 OFFCURVE",
"540 236 OFFCURVE",
"564 337 CURVE SMOOTH",
"587 442 OFFCURVE",
"543 495 OFFCURVE",
"434 495 CURVE SMOOTH",
"246 495 LINE",
"174 185 LINE"
);
}
);
width = 698;
}
);
note = Thorn;
rightKerningGroup = P;
unicode = 00DE;
},
{
glyphname = Q;
lastChange = "2018-03-11 16:48:54 +0000";
layers = (
{
hints = (
{
horizontal = 1;
place = "{-15, 103}";
type = Stem;
},
{
horizontal = 1;
place = "{593, 102}";
type = Stem;
},
{
place = "{53.45, 114.76}";
type = Stem;
},
{
place = "{671.93, 115.52}";
type = Stem;
}
);
layerId = "327F32D8-5A79-4D64-B4F5-E4A412D056ED";
paths = (
{
closed = 1;
nodes = (
"349 -23 LINE",
"726 -23 LINE",
"753 95 LINE",
"639 95 LINE",
"713 161 OFFCURVE",
"765 247 OFFCURVE",
"785 338 CURVE SMOOTH",
"835 542 OFFCURVE",
"709 706 OFFCURVE",
"502 703 CURVE SMOOTH",
"298 706 OFFCURVE",
"100 546 OFFCURVE",
"56 342 CURVE SMOOTH",
"6 137 OFFCURVE",
"131 -26 OFFCURVE",
"338 -23 CURVE SMOOTH"
);
},
{
closed = 1;
nodes = (
"141 -10 OFFCURVE",
"24 143 OFFCURVE",
"72 338 CURVE SMOOTH",
"114 535 OFFCURVE",
"305 690 OFFCURVE",
"502 687 CURVE SMOOTH",
"698 690 OFFCURVE",
"817 536 OFFCURVE",
"769 342 CURVE",
"748 241 OFFCURVE",
"685 146 OFFCURVE",
"594 79 CURVE",
"733 79 LINE",
"714 -7 LINE",
"349 -7 LINE",
"338 -7 LINE SMOOTH"
);
},
{
closed = 1;
nodes = (
"224 96 OFFCURVE",
"151 195 OFFCURVE",
"184 338 CURVE SMOOTH",
"217 483 OFFCURVE",
"340 585 OFFCURVE",
"478 585 CURVE SMOOTH",
"616 585 OFFCURVE",
"690 485 OFFCURVE",
"656 342 CURVE SMOOTH",
"623 196 OFFCURVE",
"502 96 OFFCURVE",
"362 96 CURVE SMOOTH"
);
},
{
closed = 1;
nodes = (
"510 80 OFFCURVE",
"637 186 OFFCURVE",
"672 338 CURVE SMOOTH",
"707 491 OFFCURVE",
"627 601 OFFCURVE",
"478 601 CURVE SMOOTH",
"332 601 OFFCURVE",
"203 493 OFFCURVE",
"168 342 CURVE SMOOTH",
"133 189 OFFCURVE",
"213 80 OFFCURVE",
"362 80 CURVE SMOOTH"
);
}
);
width = 803;
}
);
leftKerningGroup = C;
note = Q;
rightKerningGroup = O;
unicode = 0051;
},
{
glyphname = R;
lastChange = "2018-03-11 16:48:54 +0000";
layers = (
{
hints = (
{
horizontal = 1;
place = "{263, 100}";
type = Stem;
},
{
horizontal = 1;
place = "{577, 102}";
type = Stem;
},
{
place = "{569.13, 115.09}";
type = Stem;
}
);
layerId = "327F32D8-5A79-4D64-B4F5-E4A412D056ED";
paths = (
{
closed = 1;
nodes = (
"145 -8 LINE",
"206 255 LINE",
"334 255 LINE",
"467 -8 LINE",
"621 -8 LINE",
"481 267 LINE",
"588 295 OFFCURVE",
"663 369 OFFCURVE",
"686 469 CURVE SMOOTH",
"716 601 OFFCURVE",
"636 687 OFFCURVE",
"486 687 CURVE SMOOTH",
"181 687 LINE",
"20 -8 LINE"
);
},
{
closed = 1;
nodes = (
"193 671 LINE",
"486 671 LINE SMOOTH",
"626 671 OFFCURVE",
"698 594 OFFCURVE",
"670 473 CURVE SMOOTH",
"647 372 OFFCURVE",
"569 300 OFFCURVE",
"457 278 CURVE",
"595 8 LINE",
"477 8 LINE",
"344 271 LINE",
"194 271 LINE",
"133 8 LINE",
"40 8 LINE"
);
},
{
closed = 1;
nodes = (
"278 569 LINE",
"455 569 LINE SMOOTH",
"534 569 OFFCURVE",
"572 532 OFFCURVE",
"558 471 CURVE SMOOTH",
"544 409 OFFCURVE",
"486 371 OFFCURVE",
"405 371 CURVE SMOOTH",
"233 371 LINE"
);
},
{
closed = 1;
nodes = (
"405 355 LINE SMOOTH",
"493 355 OFFCURVE",
"558 398 OFFCURVE",
"574 467 CURVE SMOOTH",
"590 539 OFFCURVE",
"543 585 OFFCURVE",
"455 585 CURVE SMOOTH",
"266 585 LINE",
"213 355 LINE"
);
}
);
width = 689;
}
);
note = R;
rightKerningGroup = R;
unicode = 0052;
},
{
glyphname = Racute;
lastChange = "2018-03-11 16:48:54 +0000";
layers = (
{
hints = (
{
horizontal = 1;
place = "{263, 100}";
type = Stem;
},
{
horizontal = 1;
place = "{577, 102}";
type = Stem;
},
{
horizontal = 1;
place = "{748, 171}";
type = Stem;
},
{
place = "{569.13, 115.09}";
type = Stem;
}
);
layerId = "327F32D8-5A79-4D64-B4F5-E4A412D056ED";
paths = (
{
closed = 1;
nodes = (
"145 -8 LINE",
"206 255 LINE",
"334 255 LINE",
"467 -8 LINE",
"621 -8 LINE",
"481 267 LINE",
"588 295 OFFCURVE",
"663 369 OFFCURVE",
"686 469 CURVE SMOOTH",
"716 601 OFFCURVE",
"636 687 OFFCURVE",
"486 687 CURVE SMOOTH",
"181 687 LINE",
"20 -8 LINE"
);
},
{
closed = 1;
nodes = (
"193 671 LINE",
"486 671 LINE SMOOTH",
"626 671 OFFCURVE",
"698 594 OFFCURVE",
"670 473 CURVE SMOOTH",
"647 372 OFFCURVE",
"569 300 OFFCURVE",
"457 278 CURVE",
"595 8 LINE",
"477 8 LINE",
"344 271 LINE",
"194 271 LINE",
"133 8 LINE",
"40 8 LINE"
);
},
{
closed = 1;
nodes = (
"278 569 LINE",
"455 569 LINE SMOOTH",
"534 569 OFFCURVE",
"572 532 OFFCURVE",
"558 471 CURVE SMOOTH",
"544 409 OFFCURVE",
"486 371 OFFCURVE",
"405 371 CURVE SMOOTH",
"233 371 LINE"
);
},
{
closed = 1;
nodes = (
"405 355 LINE SMOOTH",
"493 355 OFFCURVE",
"558 398 OFFCURVE",
"574 467 CURVE SMOOTH",
"590 539 OFFCURVE",
"543 585 OFFCURVE",
"455 585 CURVE SMOOTH",
"266 585 LINE",
"213 355 LINE"
);
},
{
closed = 1;
nodes = (
"490 740 LINE",
"667 927 LINE",
"511 927 LINE",
"370 740 LINE"
);
},
{
closed = 1;
nodes = (
"519 911 LINE",
"629 911 LINE",
"484 756 LINE",
"402 756 LINE"
);
}
);
width = 689;
}
);
note = Racute;
rightKerningGroup = R;
unicode = 0154;
},
{
glyphname = Rcaron;
lastChange = "2018-03-11 16:48:54 +0000";
layers = (
{
hints = (
{
horizontal = 1;
place = "{263, 100}";
type = Stem;
},
{
horizontal = 1;
place = "{577, 102}";
type = Stem;
},
{
horizontal = 1;
place = "{748, 171}";
type = Stem;
},
{
place = "{569.13, 115.09}";
type = Stem;
}
);
layerId = "327F32D8-5A79-4D64-B4F5-E4A412D056ED";
paths = (
{
closed = 1;
nodes = (
"145 -8 LINE",
"206 255 LINE",
"334 255 LINE",
"467 -8 LINE",
"621 -8 LINE",
"481 267 LINE",
"588 295 OFFCURVE",
"663 369 OFFCURVE",
"686 469 CURVE SMOOTH",
"716 601 OFFCURVE",
"636 687 OFFCURVE",
"486 687 CURVE SMOOTH",
"181 687 LINE",
"20 -8 LINE"
);
},
{
closed = 1;
nodes = (
"193 671 LINE",
"486 671 LINE SMOOTH",
"626 671 OFFCURVE",
"698 594 OFFCURVE",
"670 473 CURVE SMOOTH",
"647 372 OFFCURVE",
"569 300 OFFCURVE",
"457 278 CURVE",
"595 8 LINE",
"477 8 LINE",
"344 271 LINE",
"194 271 LINE",
"133 8 LINE",
"40 8 LINE"
);
},
{
closed = 1;
nodes = (
"278 569 LINE",
"455 569 LINE SMOOTH",
"534 569 OFFCURVE",
"572 532 OFFCURVE",
"558 471 CURVE SMOOTH",
"544 409 OFFCURVE",
"486 371 OFFCURVE",
"405 371 CURVE SMOOTH",
"233 371 LINE"
);
},
{
closed = 1;
nodes = (
"405 355 LINE SMOOTH",
"493 355 OFFCURVE",
"558 398 OFFCURVE",
"574 467 CURVE SMOOTH",
"590 539 OFFCURVE",
"543 585 OFFCURVE",
"455 585 CURVE SMOOTH",
"266 585 LINE",
"213 355 LINE"
);
},
{
closed = 1;
nodes = (
"494 740 LINE",
"651 927 LINE",
"530 927 LINE",
"456 850 LINE",
"417 927 LINE",
"299 927 LINE",
"372 740 LINE"
);
},
{
closed = 1;
nodes = (
"323 911 LINE",
"407 911 LINE",
"452 822 LINE",
"536 911 LINE",
"617 911 LINE",
"486 756 LINE",
"382 756 LINE"
);
}
);
width = 689;
}
);
note = Rcaron;
rightKerningGroup = R;
unicode = 0158;
},
{
glyphname = S;
lastChange = "2018-03-11 16:48:54 +0000";
layers = (
{
hints = (
{
horizontal = 1;
place = "{-16, 103}";
type = Stem;
},
{
horizontal = 1;
place = "{595, 104}";
type = Stem;
},
{
place = "{126.88, 116.37}";
type = Stem;
}
);
layerId = "327F32D8-5A79-4D64-B4F5-E4A412D056ED";
paths = (
{
closed = 1;
nodes = (
"377 -24 OFFCURVE",
"488 53 OFFCURVE",
"517 177 CURVE SMOOTH",
"545 301 OFFCURVE",
"483 351 OFFCURVE",
"359 407 CURVE SMOOTH",
"275 445 OFFCURVE",
"241 461 OFFCURVE",
"254 515 CURVE SMOOTH",
"263 559 OFFCURVE",
"313 586 OFFCURVE",
"387 587 CURVE SMOOTH",
"460 587 OFFCURVE",
"524 558 OFFCURVE",
"555 512 CURVE",
"587 650 LINE",
"545 685 OFFCURVE",
"469 708 OFFCURVE",
"401 707 CURVE SMOOTH",
"259 707 OFFCURVE",
"152 634 OFFCURVE",
"126 519 CURVE SMOOTH",
"97 395 OFFCURVE",
"157 344 OFFCURVE",
"279 288 CURVE SMOOTH",
"362 250 OFFCURVE",
"400 228 OFFCURVE",
"389 182 CURVE SMOOTH",
"376 124 OFFCURVE",
"323 95 OFFCURVE",
"232 95 CURVE SMOOTH",
"150 95 OFFCURVE",
"69 128 OFFCURVE",
"20 182 CURVE",
"-11 52 LINE",
"26 8 OFFCURVE",
"128 -24 OFFCURVE",
"229 -24 CURVE SMOOTH"
);
},
{
closed = 1;
nodes = (
"122 -8 OFFCURVE",
"39 25 OFFCURVE",
"7 56 CURVE",
"29 151 LINE",
"82 106 OFFCURVE",
"156 79 OFFCURVE",
"232 79 CURVE SMOOTH",
"330 79 OFFCURVE",
"389 113 OFFCURVE",
"405 178 CURVE SMOOTH",
"418 236 OFFCURVE",
"370 264 OFFCURVE",
"285 302 CURVE SMOOTH",
"165 358 OFFCURVE",
"115 401 OFFCURVE",
"142 515 CURVE SMOOTH",
"166 622 OFFCURVE",
"267 691 OFFCURVE",
"401 691 CURVE SMOOTH",
"463 692 OFFCURVE",
"529 673 OFFCURVE",
"569 644 CURVE",
"547 546 LINE",
"509 582 OFFCURVE",
"450 603 OFFCURVE",
"387 603 CURVE SMOOTH",
"305 602 OFFCURVE",
"250 571 OFFCURVE",
"238 519 CURVE SMOOTH",
"223 453 OFFCURVE",
"269 431 OFFCURVE",
"353 393 CURVE SMOOTH",
"475 337 OFFCURVE",
"527 295 OFFCURVE",
"501 181 CURVE SMOOTH",
"474 64 OFFCURVE",
"370 -8 OFFCURVE",
"229 -8 CURVE SMOOTH"
);
}
);
width = 582;
}
);
leftKerningGroup = S;
note = S;
rightKerningGroup = S;
unicode = 0053;
},
{
glyphname = Sacute;
lastChange = "2018-03-11 16:48:54 +0000";
layers = (
{
hints = (
{
horizontal = 1;
place = "{-16, 103}";
type = Stem;
},
{
horizontal = 1;
place = "{595, 104}";
type = Stem;
},
{
horizontal = 1;
place = "{748, 171}";
type = Stem;
},
{
place = "{126.88, 116.37}";
type = Stem;
}
);
layerId = "327F32D8-5A79-4D64-B4F5-E4A412D056ED";
paths = (
{
closed = 1;
nodes = (
"377 -24 OFFCURVE",
"488 53 OFFCURVE",
"517 177 CURVE SMOOTH",
"545 301 OFFCURVE",
"483 351 OFFCURVE",
"359 407 CURVE SMOOTH",
"275 445 OFFCURVE",
"241 461 OFFCURVE",
"254 515 CURVE SMOOTH",
"263 559 OFFCURVE",
"313 586 OFFCURVE",
"387 587 CURVE SMOOTH",
"460 587 OFFCURVE",
"524 558 OFFCURVE",
"555 512 CURVE",
"587 650 LINE",
"545 685 OFFCURVE",
"469 708 OFFCURVE",
"401 707 CURVE SMOOTH",
"259 707 OFFCURVE",
"152 634 OFFCURVE",
"126 519 CURVE SMOOTH",
"97 395 OFFCURVE",
"157 344 OFFCURVE",
"279 288 CURVE SMOOTH",
"362 250 OFFCURVE",
"400 228 OFFCURVE",
"389 182 CURVE SMOOTH",
"376 124 OFFCURVE",
"323 95 OFFCURVE",
"232 95 CURVE SMOOTH",
"150 95 OFFCURVE",
"69 128 OFFCURVE",
"20 182 CURVE",
"-11 52 LINE",
"26 8 OFFCURVE",
"128 -24 OFFCURVE",
"229 -24 CURVE SMOOTH"
);
},
{
closed = 1;
nodes = (
"122 -8 OFFCURVE",
"39 25 OFFCURVE",
"7 56 CURVE",
"29 151 LINE",
"82 106 OFFCURVE",
"156 79 OFFCURVE",
"232 79 CURVE SMOOTH",
"330 79 OFFCURVE",
"389 113 OFFCURVE",
"405 178 CURVE SMOOTH",
"418 236 OFFCURVE",
"370 264 OFFCURVE",
"285 302 CURVE SMOOTH",
"165 358 OFFCURVE",
"115 401 OFFCURVE",
"142 515 CURVE SMOOTH",
"166 622 OFFCURVE",
"267 691 OFFCURVE",
"401 691 CURVE SMOOTH",
"463 692 OFFCURVE",
"529 673 OFFCURVE",
"569 644 CURVE",
"547 546 LINE",
"509 582 OFFCURVE",
"450 603 OFFCURVE",
"387 603 CURVE SMOOTH",
"305 602 OFFCURVE",
"250 571 OFFCURVE",
"238 519 CURVE SMOOTH",
"223 453 OFFCURVE",
"269 431 OFFCURVE",
"353 393 CURVE SMOOTH",
"475 337 OFFCURVE",
"527 295 OFFCURVE",
"501 181 CURVE SMOOTH",
"474 64 OFFCURVE",
"370 -8 OFFCURVE",
"229 -8 CURVE SMOOTH"
);
},
{
closed = 1;
nodes = (
"432 740 LINE",
"609 927 LINE",
"453 927 LINE",
"312 740 LINE"
);
},
{
closed = 1;
nodes = (
"461 911 LINE",
"571 911 LINE",
"426 756 LINE",
"344 756 LINE"
);
}
);
width = 582;
}
);
leftKerningGroup = S;
note = Sacute;
rightKerningGroup = S;
unicode = 015A;
},
{
glyphname = Scaron;
lastChange = "2018-03-11 16:48:54 +0000";
layers = (
{
hints = (
{
horizontal = 1;
place = "{-16, 103}";
type = Stem;
},
{
horizontal = 1;
place = "{595, 104}";
type = Stem;
},
{
horizontal = 1;
place = "{748, 171}";
type = Stem;
},
{
place = "{126.88, 116.37}";
type = Stem;
}
);
layerId = "327F32D8-5A79-4D64-B4F5-E4A412D056ED";
paths = (
{
closed = 1;
nodes = (
"377 -24 OFFCURVE",
"488 53 OFFCURVE",
"517 177 CURVE SMOOTH",
"545 301 OFFCURVE",
"483 351 OFFCURVE",
"359 407 CURVE SMOOTH",
"275 445 OFFCURVE",
"241 461 OFFCURVE",
"254 515 CURVE SMOOTH",
"263 559 OFFCURVE",
"313 586 OFFCURVE",
"387 587 CURVE SMOOTH",
"460 587 OFFCURVE",
"524 558 OFFCURVE",
"555 512 CURVE",
"587 650 LINE",
"545 685 OFFCURVE",
"469 708 OFFCURVE",
"401 707 CURVE SMOOTH",
"259 707 OFFCURVE",
"152 634 OFFCURVE",
"126 519 CURVE SMOOTH",
"97 395 OFFCURVE",
"157 344 OFFCURVE",
"279 288 CURVE SMOOTH",
"362 250 OFFCURVE",
"400 228 OFFCURVE",
"389 182 CURVE SMOOTH",
"376 124 OFFCURVE",
"323 95 OFFCURVE",
"232 95 CURVE SMOOTH",
"150 95 OFFCURVE",
"69 128 OFFCURVE",
"20 182 CURVE",
"-11 52 LINE",
"26 8 OFFCURVE",
"128 -24 OFFCURVE",
"229 -24 CURVE SMOOTH"
);
},
{
closed = 1;
nodes = (
"122 -8 OFFCURVE",
"39 25 OFFCURVE",
"7 56 CURVE",
"29 151 LINE",
"82 106 OFFCURVE",
"156 79 OFFCURVE",
"232 79 CURVE SMOOTH",
"330 79 OFFCURVE",
"389 113 OFFCURVE",
"405 178 CURVE SMOOTH",
"418 236 OFFCURVE",
"370 264 OFFCURVE",
"285 302 CURVE SMOOTH",
"165 358 OFFCURVE",
"115 401 OFFCURVE",
"142 515 CURVE SMOOTH",
"166 622 OFFCURVE",
"267 691 OFFCURVE",
"401 691 CURVE SMOOTH",
"463 692 OFFCURVE",
"529 673 OFFCURVE",
"569 644 CURVE",
"547 546 LINE",
"509 582 OFFCURVE",
"450 603 OFFCURVE",
"387 603 CURVE SMOOTH",
"305 602 OFFCURVE",
"250 571 OFFCURVE",
"238 519 CURVE SMOOTH",
"223 453 OFFCURVE",
"269 431 OFFCURVE",
"353 393 CURVE SMOOTH",
"475 337 OFFCURVE",
"527 295 OFFCURVE",
"501 181 CURVE SMOOTH",
"474 64 OFFCURVE",
"370 -8 OFFCURVE",
"229 -8 CURVE SMOOTH"
);
},
{
closed = 1;
nodes = (
"436 740 LINE",
"593 927 LINE",
"472 927 LINE",
"398 850 LINE",
"359 927 LINE",
"241 927 LINE",
"314 740 LINE"
);
},
{
closed = 1;
nodes = (
"265 911 LINE",
"349 911 LINE",
"394 822 LINE",
"478 911 LINE",
"559 911 LINE",
"428 756 LINE",
"324 756 LINE"
);
}
);
width = 582;
}
);
leftKerningGroup = S;
note = Scaron;
rightKerningGroup = S;
unicode = 0160;
},
{
glyphname = Scedilla;
lastChange = "2018-03-11 16:48:54 +0000";
layers = (
{
hints = (
{
horizontal = 1;
place = "{-202, 58}";
type = Stem;
},
{
horizontal = 1;
place = "{595, 104}";
type = Stem;
},
{
place = "{126.88, 116.37}";
type = Stem;
},
{
horizontal = 1;
place = "{-16, 103}";
type = Stem;
}
);
layerId = "327F32D8-5A79-4D64-B4F5-E4A412D056ED";
paths = (
{
closed = 1;
nodes = (
"183 -212 OFFCURVE",
"252 -179 OFFCURVE",
"266 -121 CURVE",
"275 -76 OFFCURVE",
"238 -57 OFFCURVE",
"219 -51 CURVE",
"233 -24 LINE",
"229 -24 LINE",
"377 -24 OFFCURVE",
"488 53 OFFCURVE",
"517 177 CURVE SMOOTH",
"545 301 OFFCURVE",
"483 351 OFFCURVE",
"359 407 CURVE SMOOTH",
"275 445 OFFCURVE",
"241 461 OFFCURVE",
"254 515 CURVE SMOOTH",
"263 559 OFFCURVE",
"313 586 OFFCURVE",
"387 587 CURVE SMOOTH",
"460 587 OFFCURVE",
"524 558 OFFCURVE",
"555 512 CURVE",
"587 650 LINE",
"545 685 OFFCURVE",
"469 708 OFFCURVE",
"401 707 CURVE SMOOTH",
"259 707 OFFCURVE",
"152 634 OFFCURVE",
"126 519 CURVE SMOOTH",
"97 395 OFFCURVE",
"157 344 OFFCURVE",
"279 288 CURVE SMOOTH",
"362 250 OFFCURVE",
"400 228 OFFCURVE",
"389 182 CURVE SMOOTH",
"376 124 OFFCURVE",
"323 95 OFFCURVE",
"232 95 CURVE SMOOTH",
"150 95 OFFCURVE",
"69 128 OFFCURVE",
"20 182 CURVE",
"-11 52 LINE",
"15 20 OFFCURVE",
"77 -7 OFFCURVE",
"148 -17 CURVE",
"124 -66 LINE",
"130 -78 LINE",
"130 -78 OFFCURVE",
"177 -81 OFFCURVE",
"171 -106 CURVE SMOOTH",
"167 -124 OFFCURVE",
"139 -138 OFFCURVE",
"105 -136 CURVE",
"87 -210 LINE"
);
},
{
closed = 1;
nodes = (
"117 -152 LINE",
"153 -150 OFFCURVE",
"181 -133 OFFCURVE",
"187 -110 CURVE",
"194 -78 OFFCURVE",
"161 -67 OFFCURVE",
"143 -64 CURVE",
"172 -4 LINE",
"101 3 OFFCURVE",
"35 28 OFFCURVE",
"7 56 CURVE",
"29 151 LINE",
"82 106 OFFCURVE",
"156 79 OFFCURVE",
"232 79 CURVE SMOOTH",
"330 79 OFFCURVE",
"389 113 OFFCURVE",
"405 178 CURVE SMOOTH",
"418 236 OFFCURVE",
"370 264 OFFCURVE",
"285 302 CURVE SMOOTH",
"165 358 OFFCURVE",
"115 401 OFFCURVE",
"142 515 CURVE SMOOTH",
"166 622 OFFCURVE",
"267 691 OFFCURVE",
"401 691 CURVE SMOOTH",
"463 692 OFFCURVE",
"529 673 OFFCURVE",
"569 644 CURVE",
"547 546 LINE",
"509 582 OFFCURVE",
"450 603 OFFCURVE",
"387 603 CURVE SMOOTH",
"305 602 OFFCURVE",
"250 571 OFFCURVE",
"238 519 CURVE SMOOTH",
"223 453 OFFCURVE",
"269 431 OFFCURVE",
"353 393 CURVE SMOOTH",
"475 337 OFFCURVE",
"527 295 OFFCURVE",
"501 181 CURVE SMOOTH",
"474 64 OFFCURVE",
"370 -8 OFFCURVE",
"229 -8 CURVE SMOOTH",
"223 -8 LINE",
"200 -52 LINE",
"205 -64 LINE",
"205 -64 OFFCURVE",
"259 -74 OFFCURVE",
"250 -117 CURVE SMOOTH",
"239 -163 OFFCURVE",
"184 -192 OFFCURVE",
"107 -194 CURVE"
);
}
);
width = 582;
}
);
leftKerningGroup = S;
note = Scedilla;
rightKerningGroup = S;
unicode = 015E;
},
{
glyphname = T;
lastChange = "2019-10-31 17:01:59 +0000";
layers = (
{
hints = (
{
horizontal = 1;
place = "{577, 102}";
type = Stem;
},
{
place = "{114, 607}";
type = Stem;
}
);
layerId = "327F32D8-5A79-4D64-B4F5-E4A412D056ED";
paths = (
{
closed = 1;
nodes = (
"332 -8 LINE",
"466 569 LINE",
"704 569 LINE",
"731 687 LINE",
"131 687 LINE",
"104 569 LINE",
"342 569 LINE",
"208 -8 LINE"
);
},
{
closed = 1;
nodes = (
"362 585 LINE",
"124 585 LINE",
"143 671 LINE",
"711 671 LINE",
"692 585 LINE",
"454 585 LINE",
"320 8 LINE",
"228 8 LINE"
);
}
);
width = 664;
}
);
leftKerningGroup = T;
note = T;
rightKerningGroup = T;
unicode = 0054;
},
{
glyphname = Tbar;
lastChange = "2018-03-11 16:48:54 +0000";
layers = (
{
hints = (
{
horizontal = 1;
place = "{377, 90}";
type = Stem;
},
{
horizontal = 1;
place = "{577, 102}";
type = Stem;
},
{
place = "{114, 607}";
type = Stem;
}
);
layerId = "327F32D8-5A79-4D64-B4F5-E4A412D056ED";
paths = (
{
closed = 1;
nodes = (
"332 -8 LINE",
"420 369 LINE",
"538 369 LINE",
"563 475 LINE",
"444 475 LINE",
"466 569 LINE",
"704 569 LINE",
"731 687 LINE",
"131 687 LINE",
"104 569 LINE",
"342 569 LINE",
"320 475 LINE",
"200 475 LINE",
"175 369 LINE",
"296 369 LINE",
"208 -8 LINE"
);
},
{
closed = 1;
nodes = (
"316 385 LINE",
"195 385 LINE",
"212 459 LINE",
"332 459 LINE",
"362 585 LINE",
"124 585 LINE",
"143 671 LINE",
"711 671 LINE",
"692 585 LINE",
"454 585 LINE",
"424 459 LINE",
"543 459 LINE",
"526 385 LINE",
"408 385 LINE",
"320 8 LINE",
"228 8 LINE"
);
}
);
width = 664;
}
);
leftKerningGroup = T;
note = Tbar;
rightKerningGroup = T;
unicode = 0166;
},
{
glyphname = Tcaron;
lastChange = "2018-03-11 16:48:54 +0000";
layers = (
{
hints = (
{
horizontal = 1;
place = "{577, 102}";
type = Stem;
},
{
horizontal = 1;
place = "{748, 171}";
type = Stem;
},
{
place = "{114, 607}";
type = Stem;
}
);
layerId = "327F32D8-5A79-4D64-B4F5-E4A412D056ED";
paths = (
{
closed = 1;
nodes = (
"332 -8 LINE",
"466 569 LINE",
"704 569 LINE",
"731 687 LINE",
"131 687 LINE",
"104 569 LINE",
"342 569 LINE",
"208 -8 LINE"
);
},
{
closed = 1;
nodes = (
"362 585 LINE",
"124 585 LINE",
"143 671 LINE",
"711 671 LINE",
"692 585 LINE",
"454 585 LINE",
"320 8 LINE",
"228 8 LINE"
);
},
{
closed = 1;
nodes = (
"505 740 LINE",
"662 927 LINE",
"541 927 LINE",
"467 850 LINE",
"428 927 LINE",
"310 927 LINE",
"383 740 LINE"
);
},
{
closed = 1;
nodes = (
"334 911 LINE",
"418 911 LINE",
"463 822 LINE",
"547 911 LINE",
"628 911 LINE",
"497 756 LINE",
"393 756 LINE"
);
}
);
width = 664;
}
);
leftKerningGroup = T;
note = Tcaron;
rightKerningGroup = T;
unicode = 0164;
},
{
glyphname = U;
lastChange = "2018-03-11 16:48:54 +0000";
layers = (
{
hints = (
{
horizontal = 1;
place = "{-15, 105}";
type = Stem;
},
{
place = "{64.32, 114.29}";
type = Stem;
}
);
layerId = "327F32D8-5A79-4D64-B4F5-E4A412D056ED";
paths = (
{
closed = 1;
nodes = (
"473 -23 OFFCURVE",
"597 77 OFFCURVE",
"639 257 CURVE SMOOTH",
"738 687 LINE",
"613 687 LINE",
"515 263 LINE SMOOTH",
"489 151 OFFCURVE",
"425 98 OFFCURVE",
"314 98 CURVE SMOOTH",
"213 98 OFFCURVE",
"169 157 OFFCURVE",
"193 259 CURVE SMOOTH",
"291 687 LINE",
"166 687 LINE",
"67 261 LINE SMOOTH",
"25 79 OFFCURVE",
"106 -23 OFFCURVE",
"290 -23 CURVE SMOOTH"
);
},
{
closed = 1;
nodes = (
"116 -7 OFFCURVE",
"43 86 OFFCURVE",
"83 257 CURVE SMOOTH",
"178 671 LINE",
"271 671 LINE",
"177 263 LINE SMOOTH",
"151 150 OFFCURVE",
"203 82 OFFCURVE",
"314 82 CURVE SMOOTH",
"432 82 OFFCURVE",
"503 140 OFFCURVE",
"531 259 CURVE SMOOTH",
"625 671 LINE",
"718 671 LINE",
"623 261 LINE SMOOTH",
"583 88 OFFCURVE",
"465 -7 OFFCURVE",
"290 -7 CURVE SMOOTH"
);
}
);
width = 706;
}
);
leftKerningGroup = U;
note = U;
rightKerningGroup = U;
unicode = 0055;
},
{
glyphname = Uacute;
lastChange = "2018-03-11 16:48:54 +0000";
layers = (
{
hints = (
{
horizontal = 1;
place = "{-15, 105}";
type = Stem;
},
{
horizontal = 1;
place = "{748, 171}";
type = Stem;
},
{
place = "{64.32, 114.29}";
type = Stem;
}
);
layerId = "327F32D8-5A79-4D64-B4F5-E4A412D056ED";
paths = (
{
closed = 1;
nodes = (
"473 -23 OFFCURVE",
"597 77 OFFCURVE",
"639 257 CURVE SMOOTH",
"738 687 LINE",
"613 687 LINE",
"515 263 LINE SMOOTH",
"489 151 OFFCURVE",
"425 98 OFFCURVE",
"314 98 CURVE SMOOTH",
"213 98 OFFCURVE",
"169 157 OFFCURVE",
"193 259 CURVE SMOOTH",
"291 687 LINE",
"166 687 LINE",
"67 261 LINE SMOOTH",
"25 79 OFFCURVE",
"106 -23 OFFCURVE",
"290 -23 CURVE SMOOTH"
);
},
{
closed = 1;
nodes = (
"116 -7 OFFCURVE",
"43 86 OFFCURVE",
"83 257 CURVE SMOOTH",
"178 671 LINE",
"271 671 LINE",
"177 263 LINE SMOOTH",
"151 150 OFFCURVE",
"203 82 OFFCURVE",
"314 82 CURVE SMOOTH",
"432 82 OFFCURVE",
"503 140 OFFCURVE",
"531 259 CURVE SMOOTH",
"625 671 LINE",
"718 671 LINE",
"623 261 LINE SMOOTH",
"583 88 OFFCURVE",
"465 -7 OFFCURVE",
"290 -7 CURVE SMOOTH"
);
},
{
closed = 1;
nodes = (
"522 740 LINE",
"699 927 LINE",
"543 927 LINE",
"402 740 LINE"
);
},
{
closed = 1;
nodes = (
"551 911 LINE",
"661 911 LINE",
"516 756 LINE",
"434 756 LINE"
);
}
);
width = 706;
}
);
leftKerningGroup = U;
note = Uacute;
rightKerningGroup = U;
unicode = 00DA;
},
{
glyphname = Ucircumflex;
lastChange = "2018-03-11 16:48:54 +0000";
layers = (
{
hints = (
{
horizontal = 1;
place = "{-15, 105}";
type = Stem;
},
{
horizontal = 1;
place = "{748, 171}";
type = Stem;
},
{
place = "{64.32, 114.29}";
type = Stem;
}
);
layerId = "327F32D8-5A79-4D64-B4F5-E4A412D056ED";
paths = (
{
closed = 1;
nodes = (
"473 -23 OFFCURVE",
"597 77 OFFCURVE",
"639 257 CURVE SMOOTH",
"738 687 LINE",
"613 687 LINE",
"515 263 LINE SMOOTH",
"489 151 OFFCURVE",
"425 98 OFFCURVE",
"314 98 CURVE SMOOTH",
"213 98 OFFCURVE",
"169 157 OFFCURVE",
"193 259 CURVE SMOOTH",
"291 687 LINE",
"166 687 LINE",
"67 261 LINE SMOOTH",
"25 79 OFFCURVE",
"106 -23 OFFCURVE",
"290 -23 CURVE SMOOTH"
);
},
{
closed = 1;
nodes = (
"116 -7 OFFCURVE",
"43 86 OFFCURVE",
"83 257 CURVE SMOOTH",
"178 671 LINE",
"271 671 LINE",
"177 263 LINE SMOOTH",
"151 150 OFFCURVE",
"203 82 OFFCURVE",
"314 82 CURVE SMOOTH",
"432 82 OFFCURVE",
"503 140 OFFCURVE",
"531 259 CURVE SMOOTH",
"625 671 LINE",
"718 671 LINE",
"623 261 LINE SMOOTH",
"583 88 OFFCURVE",
"465 -7 OFFCURVE",
"290 -7 CURVE SMOOTH"
);
},
{
closed = 1;
nodes = (
"408 740 LINE",
"483 817 LINE",
"521 740 LINE",
"639 740 LINE",
"566 927 LINE",
"444 927 LINE",
"287 740 LINE"
);
},
{
closed = 1;
nodes = (
"452 911 LINE",
"556 911 LINE",
"615 756 LINE",
"531 756 LINE",
"487 845 LINE",
"402 756 LINE",
"321 756 LINE"
);
}
);
width = 706;
}
);
leftKerningGroup = U;
note = Ucircumflex;
rightKerningGroup = U;
unicode = 00DB;
},
{
glyphname = Udieresis;
lastChange = "2018-03-11 16:48:54 +0000";
layers = (
{
hints = (
{
horizontal = 1;
place = "{-15, 105}";
type = Stem;
},
{
horizontal = 1;
place = "{760, 111}";
type = Stem;
},
{
place = "{64.32, 114.29}";
type = Stem;
}
);
layerId = "327F32D8-5A79-4D64-B4F5-E4A412D056ED";
paths = (
{
closed = 1;
nodes = (
"473 -23 OFFCURVE",
"597 77 OFFCURVE",
"639 257 CURVE SMOOTH",
"738 687 LINE",
"613 687 LINE",
"515 263 LINE SMOOTH",
"489 151 OFFCURVE",
"425 98 OFFCURVE",
"314 98 CURVE SMOOTH",
"213 98 OFFCURVE",
"169 157 OFFCURVE",
"193 259 CURVE SMOOTH",
"291 687 LINE",
"166 687 LINE",
"67 261 LINE SMOOTH",
"25 79 OFFCURVE",
"106 -23 OFFCURVE",
"290 -23 CURVE SMOOTH"
);
},
{
closed = 1;
nodes = (
"116 -7 OFFCURVE",
"43 86 OFFCURVE",
"83 257 CURVE SMOOTH",
"178 671 LINE",
"271 671 LINE",
"177 263 LINE SMOOTH",
"151 150 OFFCURVE",
"203 82 OFFCURVE",
"314 82 CURVE SMOOTH",
"432 82 OFFCURVE",
"503 140 OFFCURVE",
"531 259 CURVE SMOOTH",
"625 671 LINE",
"718 671 LINE",
"623 261 LINE SMOOTH",
"583 88 OFFCURVE",
"465 -7 OFFCURVE",
"290 -7 CURVE SMOOTH"
);
},
{
closed = 1;
nodes = (
"401 752 OFFCURVE",
"434 779 OFFCURVE",
"442 813 CURVE SMOOTH",
"450 849 OFFCURVE",
"427 879 OFFCURVE",
"392 879 CURVE SMOOTH",
"357 879 OFFCURVE",
"323 851 OFFCURVE",
"315 817 CURVE SMOOTH",
"307 782 OFFCURVE",
"331 752 OFFCURVE",
"367 752 CURVE SMOOTH"
);
},
{
closed = 1;
nodes = (
"341 768 OFFCURVE",
"325 788 OFFCURVE",
"331 813 CURVE SMOOTH",
"337 840 OFFCURVE",
"365 863 OFFCURVE",
"392 863 CURVE SMOOTH",
"417 863 OFFCURVE",
"432 843 OFFCURVE",
"426 817 CURVE SMOOTH",
"420 790 OFFCURVE",
"393 768 OFFCURVE",
"367 768 CURVE SMOOTH"
);
},
{
closed = 1;
nodes = (
"593 752 OFFCURVE",
"626 779 OFFCURVE",
"634 813 CURVE SMOOTH",
"642 849 OFFCURVE",
"619 879 OFFCURVE",
"584 879 CURVE SMOOTH",
"549 879 OFFCURVE",
"515 851 OFFCURVE",
"507 817 CURVE SMOOTH",
"499 782 OFFCURVE",
"523 752 OFFCURVE",
"559 752 CURVE SMOOTH"
);
},
{
closed = 1;
nodes = (
"533 768 OFFCURVE",
"517 788 OFFCURVE",
"523 813 CURVE SMOOTH",
"529 840 OFFCURVE",
"557 863 OFFCURVE",
"584 863 CURVE SMOOTH",
"609 863 OFFCURVE",
"624 843 OFFCURVE",
"618 817 CURVE SMOOTH",
"612 790 OFFCURVE",
"585 768 OFFCURVE",
"559 768 CURVE SMOOTH"
);
}
);
width = 706;
}
);
leftKerningGroup = U;
note = Udieresis;
rightKerningGroup = U;
unicode = 00DC;
},
{
glyphname = Ugrave;
lastChange = "2018-03-11 16:48:54 +0000";
layers = (
{
hints = (
{
horizontal = 1;
place = "{-15, 105}";
type = Stem;
},
{
horizontal = 1;
place = "{748, 171}";
type = Stem;
},
{
place = "{64.32, 114.29}";
type = Stem;
}
);
layerId = "327F32D8-5A79-4D64-B4F5-E4A412D056ED";
paths = (
{
closed = 1;
nodes = (
"473 -23 OFFCURVE",
"597 77 OFFCURVE",
"639 257 CURVE SMOOTH",
"738 687 LINE",
"613 687 LINE",
"515 263 LINE SMOOTH",
"489 151 OFFCURVE",
"425 98 OFFCURVE",
"314 98 CURVE SMOOTH",
"213 98 OFFCURVE",
"169 157 OFFCURVE",
"193 259 CURVE SMOOTH",
"291 687 LINE",
"166 687 LINE",
"67 261 LINE SMOOTH",
"25 79 OFFCURVE",
"106 -23 OFFCURVE",
"290 -23 CURVE SMOOTH"
);
},
{
closed = 1;
nodes = (
"116 -7 OFFCURVE",
"43 86 OFFCURVE",
"83 257 CURVE SMOOTH",
"178 671 LINE",
"271 671 LINE",
"177 263 LINE SMOOTH",
"151 150 OFFCURVE",
"203 82 OFFCURVE",
"314 82 CURVE SMOOTH",
"432 82 OFFCURVE",
"503 140 OFFCURVE",
"531 259 CURVE SMOOTH",
"625 671 LINE",
"718 671 LINE",
"623 261 LINE SMOOTH",
"583 88 OFFCURVE",
"465 -7 OFFCURVE",
"290 -7 CURVE SMOOTH"
);
},
{
closed = 1;
nodes = (
"526 740 LINE",
"470 927 LINE",
"318 927 LINE",
"409 740 LINE"
);
},
{
closed = 1;
nodes = (
"344 911 LINE",
"458 911 LINE",
"504 756 LINE",
"419 756 LINE"
);
}
);
width = 706;
}
);
leftKerningGroup = U;
note = Ugrave;
rightKerningGroup = U;
unicode = 00D9;
},
{
glyphname = Uhungarumlaut;
lastChange = "2018-03-11 16:48:54 +0000";
layers = (
{
hints = (
{
horizontal = 1;
place = "{-15, 105}";
type = Stem;
},
{
horizontal = 1;
place = "{748, 171}";
type = Stem;
},
{
place = "{64.32, 114.29}";
type = Stem;
}
);
layerId = "327F32D8-5A79-4D64-B4F5-E4A412D056ED";
paths = (
{
closed = 1;
nodes = (
"473 -23 OFFCURVE",
"597 77 OFFCURVE",
"639 257 CURVE SMOOTH",
"738 687 LINE",
"613 687 LINE",
"515 263 LINE SMOOTH",
"489 151 OFFCURVE",
"425 98 OFFCURVE",
"314 98 CURVE SMOOTH",
"213 98 OFFCURVE",
"169 157 OFFCURVE",
"193 259 CURVE SMOOTH",
"291 687 LINE",
"166 687 LINE",
"67 261 LINE SMOOTH",
"25 79 OFFCURVE",
"106 -23 OFFCURVE",
"290 -23 CURVE SMOOTH"
);
},
{
closed = 1;
nodes = (
"116 -7 OFFCURVE",
"43 86 OFFCURVE",
"83 257 CURVE SMOOTH",
"178 671 LINE",
"271 671 LINE",
"177 263 LINE SMOOTH",
"151 150 OFFCURVE",
"203 82 OFFCURVE",
"314 82 CURVE SMOOTH",
"432 82 OFFCURVE",
"503 140 OFFCURVE",
"531 259 CURVE SMOOTH",
"625 671 LINE",
"718 671 LINE",
"623 261 LINE SMOOTH",
"583 88 OFFCURVE",
"465 -7 OFFCURVE",
"290 -7 CURVE SMOOTH"
);
},
{
closed = 1;
nodes = (
"433 740 LINE",
"610 927 LINE",
"454 927 LINE",
"313 740 LINE"
);
},
{
closed = 1;
nodes = (
"462 911 LINE",
"572 911 LINE",
"427 756 LINE",
"345 756 LINE"
);
},
{
closed = 1;
nodes = (
"613 740 LINE",
"800 927 LINE",
"644 927 LINE",
"492 740 LINE"
);
},
{
closed = 1;
nodes = (
"652 911 LINE",
"762 911 LINE",
"607 756 LINE",
"526 756 LINE"
);
}
);
width = 706;
}
);
leftKerningGroup = U;
note = Uhungarumlaut;
rightKerningGroup = U;
unicode = 0170;
},
{
glyphname = Umacron;
lastChange = "2018-03-11 16:48:54 +0000";
layers = (
{
hints = (
{
horizontal = 1;
place = "{-15, 105}";
type = Stem;
},
{
horizontal = 1;
place = "{763, 90}";
type = Stem;
},
{
place = "{64.32, 114.29}";
type = Stem;
}
);
layerId = "327F32D8-5A79-4D64-B4F5-E4A412D056ED";
paths = (
{
closed = 1;
nodes = (
"473 -23 OFFCURVE",
"597 77 OFFCURVE",
"639 257 CURVE SMOOTH",
"738 687 LINE",
"613 687 LINE",
"515 263 LINE SMOOTH",
"489 151 OFFCURVE",
"425 98 OFFCURVE",
"314 98 CURVE SMOOTH",
"213 98 OFFCURVE",
"169 157 OFFCURVE",
"193 259 CURVE SMOOTH",
"291 687 LINE",
"166 687 LINE",
"67 261 LINE SMOOTH",
"25 79 OFFCURVE",
"106 -23 OFFCURVE",
"290 -23 CURVE SMOOTH"
);
},
{
closed = 1;
nodes = (
"116 -7 OFFCURVE",
"43 86 OFFCURVE",
"83 257 CURVE SMOOTH",
"178 671 LINE",
"271 671 LINE",
"177 263 LINE SMOOTH",
"151 150 OFFCURVE",
"203 82 OFFCURVE",
"314 82 CURVE SMOOTH",
"432 82 OFFCURVE",
"503 140 OFFCURVE",
"531 259 CURVE SMOOTH",
"625 671 LINE",
"718 671 LINE",
"623 261 LINE SMOOTH",
"583 88 OFFCURVE",
"465 -7 OFFCURVE",
"290 -7 CURVE SMOOTH"
);
},
{
closed = 1;
nodes = (
"613 755 LINE",
"638 861 LINE",
"345 861 LINE",
"320 755 LINE"
);
},
{
closed = 1;
nodes = (
"357 845 LINE",
"618 845 LINE",
"601 771 LINE",
"340 771 LINE"
);
}
);
width = 706;
}
);
leftKerningGroup = U;
note = Umacron;
rightKerningGroup = U;
unicode = 016A;
},
{
glyphname = Uogonek;
lastChange = "2018-03-11 16:48:54 +0000";
layers = (
{
hints = (
{
place = "{64.27, 114.34}";
type = Stem;
},
{
horizontal = 1;
place = "{-13, 103}";
type = Stem;
},
{
place = "{193.11, 93.89}";
type = Stem;
},
{
horizontal = 1;
place = "{-216, 88}";
type = Stem;
}
);
layerId = "327F32D8-5A79-4D64-B4F5-E4A412D056ED";
paths = (
{
closed = 1;
nodes = (
"348 -120 LINE",
"300 -121 OFFCURVE",
"289 -114 OFFCURVE",
"295 -87 CURVE SMOOTH",
"298 -71 OFFCURVE",
"314 -49 OFFCURVE",
"339 -21 CURVE",
"496 -4 OFFCURVE",
"601 93 OFFCURVE",
"639 257 CURVE SMOOTH",
"738 687 LINE",
"613 687 LINE",
"515 263 LINE SMOOTH",
"489 151 OFFCURVE",
"425 98 OFFCURVE",
"314 98 CURVE SMOOTH",
"213 98 OFFCURVE",
"169 157 OFFCURVE",
"193 259 CURVE SMOOTH",
"291 687 LINE",
"166 687 LINE",
"67 261 LINE SMOOTH",
"30 99 OFFCURVE",
"89 0 OFFCURVE",
"235 -19 CURVE",
"216 -39 OFFCURVE",
"196 -66 OFFCURVE",
"188 -98 CURVE SMOOTH",
"164 -200 OFFCURVE",
"275 -226 OFFCURVE",
"323 -224 CURVE"
);
},
{
closed = 1;
nodes = (
"261 -206 OFFCURVE",
"185 -181 OFFCURVE",
"204 -102 CURVE SMOOTH",
"212 -70 OFFCURVE",
"235 -38 OFFCURVE",
"271 -6 CURVE",
"110 0 OFFCURVE",
"45 92 OFFCURVE",
"83 257 CURVE SMOOTH",
"178 671 LINE",
"271 671 LINE",
"177 263 LINE SMOOTH",
"151 150 OFFCURVE",
"203 82 OFFCURVE",
"314 82 CURVE SMOOTH",
"432 82 OFFCURVE",
"503 140 OFFCURVE",
"531 259 CURVE SMOOTH",
"625 671 LINE",
"718 671 LINE",
"623 261 LINE SMOOTH",
"586 101 OFFCURVE",
"484 9 OFFCURVE",
"331 -5 CURVE",
"313 -25 OFFCURVE",
"285 -58 OFFCURVE",
"279 -83 CURVE",
"272 -118 OFFCURVE",
"288 -134 OFFCURVE",
"328 -136 CURVE",
"311 -208 LINE"
);
}
);
width = 706;
}
);
leftKerningGroup = U;
note = Uogonek;
rightKerningGroup = U;
unicode = 0172;
},
{
glyphname = Uring;
lastChange = "2018-03-11 16:48:54 +0000";
layers = (
{
hints = (
{
horizontal = 1;
place = "{-15, 105}";
type = Stem;
},
{
horizontal = 1;
place = "{743, 72}";
type = Stem;
},
{
horizontal = 1;
place = "{877, 72}";
type = Stem;
},
{
place = "{64.32, 114.29}";
type = Stem;
},
{
place = "{382.23, 74.77}";
type = Stem;
},
{
place = "{518, 74.66}";
type = Stem;
}
);
layerId = "327F32D8-5A79-4D64-B4F5-E4A412D056ED";
paths = (
{
closed = 1;
nodes = (
"473 -23 OFFCURVE",
"597 77 OFFCURVE",
"639 257 CURVE SMOOTH",
"738 687 LINE",
"613 687 LINE",
"515 263 LINE SMOOTH",
"489 151 OFFCURVE",
"425 98 OFFCURVE",
"314 98 CURVE SMOOTH",
"213 98 OFFCURVE",
"169 157 OFFCURVE",
"193 259 CURVE SMOOTH",
"291 687 LINE",
"166 687 LINE",
"67 261 LINE SMOOTH",
"25 79 OFFCURVE",
"106 -23 OFFCURVE",
"290 -23 CURVE SMOOTH"
);
},
{
closed = 1;
nodes = (
"116 -7 OFFCURVE",
"43 86 OFFCURVE",
"83 257 CURVE SMOOTH",
"178 671 LINE",
"271 671 LINE",
"177 263 LINE SMOOTH",
"151 150 OFFCURVE",
"203 82 OFFCURVE",
"314 82 CURVE SMOOTH",
"432 82 OFFCURVE",
"503 140 OFFCURVE",
"531 259 CURVE SMOOTH",
"625 671 LINE",
"718 671 LINE",
"623 261 LINE SMOOTH",
"583 88 OFFCURVE",
"465 -7 OFFCURVE",
"290 -7 CURVE SMOOTH"
);
},
{
closed = 1;
nodes = (
"524 735 OFFCURVE",
"584 783 OFFCURVE",
"598 843 CURVE SMOOTH",
"612 906 OFFCURVE",
"573 957 OFFCURVE",
"511 957 CURVE SMOOTH",
"450 957 OFFCURVE",
"391 909 OFFCURVE",
"377 847 CURVE SMOOTH",
"363 784 OFFCURVE",
"400 735 OFFCURVE",
"463 735 CURVE SMOOTH"
);
},
{
closed = 1;
nodes = (
"411 751 OFFCURVE",
"381 791 OFFCURVE",
"393 843 CURVE SMOOTH",
"405 898 OFFCURVE",
"457 941 OFFCURVE",
"511 941 CURVE SMOOTH",
"563 941 OFFCURVE",
"594 900 OFFCURVE",
"582 847 CURVE SMOOTH",
"570 794 OFFCURVE",
"517 751 OFFCURVE",
"463 751 CURVE SMOOTH"
);
},
{
closed = 1;
nodes = (
"468 823 OFFCURVE",
"462 831 OFFCURVE",
"465 843 CURVE",
"468 858 OFFCURVE",
"481 869 OFFCURVE",
"494 869 CURVE SMOOTH",
"506 869 OFFCURVE",
"513 860 OFFCURVE",
"510 847 CURVE SMOOTH",
"507 834 OFFCURVE",
"493 823 OFFCURVE",
"480 823 CURVE SMOOTH"
);
},
{
closed = 1;
nodes = (
"501 807 OFFCURVE",
"521 823 OFFCURVE",
"526 843 CURVE SMOOTH",
"531 866 OFFCURVE",
"516 885 OFFCURVE",
"494 885 CURVE SMOOTH",
"473 885 OFFCURVE",
"454 869 OFFCURVE",
"449 847 CURVE SMOOTH",
"444 825 OFFCURVE",
"458 807 OFFCURVE",
"480 807 CURVE SMOOTH"
);
}
);
width = 706;
}
);
leftKerningGroup = U;
note = Uring;
rightKerningGroup = U;
unicode = 016E;
},
{
glyphname = V;
lastChange = "2019-10-31 17:01:47 +0000";
layers = (
{
hints = (
{
place = "{128, 640}";
type = Stem;
}
);
layerId = "327F32D8-5A79-4D64-B4F5-E4A412D056ED";
paths = (
{
closed = 1;
nodes = (
"356 -8 LINE",
"782 687 LINE",
"629 687 LINE",
"326 180 LINE",
"256 687 LINE",
"119 687 LINE",
"223 -8 LINE"
);
},
{
closed = 1;
nodes = (
"137 671 LINE",
"242 671 LINE",
"316 132 LINE",
"639 671 LINE",
"754 671 LINE",
"348 8 LINE",
"237 8 LINE"
);
}
);
width = 702;
}
);
leftKerningGroup = V;
note = V;
rightKerningGroup = V;
unicode = 0056;
},
{
glyphname = W;
lastChange = "2018-03-11 16:48:54 +0000";
layers = (
{
hints = (
{
place = "{592, 96.5}";
type = Stem;
}
);
layerId = "327F32D8-5A79-4D64-B4F5-E4A412D056ED";
paths = (
{
closed = 1;
nodes = (
"318 -8 LINE",
"572 493 LINE",
"598 -8 LINE",
"737 -8 LINE",
"1113 687 LINE",
"971 687 LINE",
"708 186 LINE",
"683 687 LINE",
"536 687 LINE",
"286 187 LINE",
"255 687 LINE",
"119 687 LINE",
"175 -8 LINE"
);
},
{
closed = 1;
nodes = (
"137 671 LINE",
"239 671 LINE",
"274 127 LINE",
"546 671 LINE",
"667 671 LINE",
"696 126 LINE",
"981 671 LINE",
"1087 671 LINE",
"727 8 LINE",
"614 8 LINE",
"584 553 LINE",
"308 8 LINE",
"189 8 LINE"
);
}
);
width = 1034;
}
);
leftKerningGroup = V;
note = W;
rightKerningGroup = V;
unicode = 0057;
},
{
glyphname = Wacute;
lastChange = "2018-03-11 16:48:54 +0000";
layers = (
{
hints = (
{
horizontal = 1;
place = "{748, 171}";
type = Stem;
},
{
place = "{592, 96.5}";
type = Stem;
}
);
layerId = "327F32D8-5A79-4D64-B4F5-E4A412D056ED";
paths = (
{
closed = 1;
nodes = (
"318 -8 LINE",
"572 493 LINE",
"598 -8 LINE",
"737 -8 LINE",
"1113 687 LINE",
"971 687 LINE",
"708 186 LINE",
"683 687 LINE",
"536 687 LINE",
"286 187 LINE",
"255 687 LINE",
"119 687 LINE",
"175 -8 LINE"
);
},
{
closed = 1;
nodes = (
"137 671 LINE",
"239 671 LINE",
"274 127 LINE",
"546 671 LINE",
"667 671 LINE",
"696 126 LINE",
"981 671 LINE",
"1087 671 LINE",
"727 8 LINE",
"614 8 LINE",
"584 553 LINE",
"308 8 LINE",
"189 8 LINE"
);
},
{
closed = 1;
nodes = (
"686 740 LINE",
"863 927 LINE",
"707 927 LINE",
"566 740 LINE"
);
},
{
closed = 1;
nodes = (
"715 911 LINE",
"825 911 LINE",
"680 756 LINE",
"598 756 LINE"
);
}
);
width = 1034;
}
);
leftKerningGroup = V;
note = Wacute;
rightKerningGroup = V;
unicode = 1E82;
},
{
glyphname = Wcircumflex;
lastChange = "2018-03-11 16:48:54 +0000";
layers = (
{
hints = (
{
horizontal = 1;
place = "{748, 171}";
type = Stem;
},
{
place = "{592, 96.5}";
type = Stem;
}
);
layerId = "327F32D8-5A79-4D64-B4F5-E4A412D056ED";
paths = (
{
closed = 1;
nodes = (
"318 -8 LINE",
"572 493 LINE",
"598 -8 LINE",
"737 -8 LINE",
"1113 687 LINE",
"971 687 LINE",
"708 186 LINE",
"683 687 LINE",
"536 687 LINE",
"286 187 LINE",
"255 687 LINE",
"119 687 LINE",
"175 -8 LINE"
);
},
{
closed = 1;
nodes = (
"137 671 LINE",
"239 671 LINE",
"274 127 LINE",
"546 671 LINE",
"667 671 LINE",
"696 126 LINE",
"981 671 LINE",
"1087 671 LINE",
"727 8 LINE",
"614 8 LINE",
"584 553 LINE",
"308 8 LINE",
"189 8 LINE"
);
},
{
closed = 1;
nodes = (
"572 740 LINE",
"647 817 LINE",
"685 740 LINE",
"803 740 LINE",
"730 927 LINE",
"608 927 LINE",
"451 740 LINE"
);
},
{
closed = 1;
nodes = (
"616 911 LINE",
"720 911 LINE",
"779 756 LINE",
"695 756 LINE",
"651 845 LINE",
"566 756 LINE",
"485 756 LINE"
);
}
);
width = 1034;
}
);
leftKerningGroup = V;
note = Wcircumflex;
rightKerningGroup = V;
unicode = 0174;
},
{
glyphname = Wdieresis;
lastChange = "2018-03-11 16:48:54 +0000";
layers = (
{
hints = (
{
horizontal = 1;
place = "{760, 111}";
type = Stem;
},
{
place = "{592, 96.5}";
type = Stem;
}
);
layerId = "327F32D8-5A79-4D64-B4F5-E4A412D056ED";
paths = (
{
closed = 1;
nodes = (
"318 -8 LINE",
"572 493 LINE",
"598 -8 LINE",
"737 -8 LINE",
"1113 687 LINE",
"971 687 LINE",
"708 186 LINE",
"683 687 LINE",
"536 687 LINE",
"286 187 LINE",
"255 687 LINE",
"119 687 LINE",
"175 -8 LINE"
);
},
{
closed = 1;
nodes = (
"137 671 LINE",
"239 671 LINE",
"274 127 LINE",
"546 671 LINE",
"667 671 LINE",
"696 126 LINE",
"981 671 LINE",
"1087 671 LINE",
"727 8 LINE",
"614 8 LINE",
"584 553 LINE",
"308 8 LINE",
"189 8 LINE"
);
},
{
closed = 1;
nodes = (
"565 752 OFFCURVE",
"598 779 OFFCURVE",
"606 813 CURVE SMOOTH",
"614 849 OFFCURVE",
"591 879 OFFCURVE",
"556 879 CURVE SMOOTH",
"521 879 OFFCURVE",
"487 851 OFFCURVE",
"479 817 CURVE SMOOTH",
"471 782 OFFCURVE",
"495 752 OFFCURVE",
"531 752 CURVE SMOOTH"
);
},
{
closed = 1;
nodes = (
"505 768 OFFCURVE",
"489 788 OFFCURVE",
"495 813 CURVE SMOOTH",
"501 840 OFFCURVE",
"529 863 OFFCURVE",
"556 863 CURVE SMOOTH",
"581 863 OFFCURVE",
"596 843 OFFCURVE",
"590 817 CURVE SMOOTH",
"584 790 OFFCURVE",
"557 768 OFFCURVE",
"531 768 CURVE SMOOTH"
);
},
{
closed = 1;
nodes = (
"757 752 OFFCURVE",
"790 779 OFFCURVE",
"798 813 CURVE SMOOTH",
"806 849 OFFCURVE",
"783 879 OFFCURVE",
"748 879 CURVE SMOOTH",
"713 879 OFFCURVE",
"679 851 OFFCURVE",
"671 817 CURVE SMOOTH",
"663 782 OFFCURVE",
"687 752 OFFCURVE",
"723 752 CURVE SMOOTH"
);
},
{
closed = 1;
nodes = (
"697 768 OFFCURVE",
"681 788 OFFCURVE",
"687 813 CURVE SMOOTH",
"693 840 OFFCURVE",
"721 863 OFFCURVE",
"748 863 CURVE SMOOTH",
"773 863 OFFCURVE",
"788 843 OFFCURVE",
"782 817 CURVE SMOOTH",
"776 790 OFFCURVE",
"749 768 OFFCURVE",
"723 768 CURVE SMOOTH"
);
}
);
width = 1034;
}
);
leftKerningGroup = V;
note = Wdieresis;
rightKerningGroup = V;
unicode = 1E84;
},
{
glyphname = Wgrave;
lastChange = "2018-03-11 16:48:54 +0000";
layers = (
{
hints = (
{
horizontal = 1;
place = "{748, 171}";
type = Stem;
},
{
place = "{592, 96.5}";
type = Stem;
}
);
layerId = "327F32D8-5A79-4D64-B4F5-E4A412D056ED";
paths = (
{
closed = 1;
nodes = (
"318 -8 LINE",
"572 493 LINE",
"598 -8 LINE",
"737 -8 LINE",
"1113 687 LINE",
"971 687 LINE",
"708 186 LINE",
"683 687 LINE",
"536 687 LINE",
"286 187 LINE",
"255 687 LINE",
"119 687 LINE",
"175 -8 LINE"
);
},
{
closed = 1;
nodes = (
"137 671 LINE",
"239 671 LINE",
"274 127 LINE",
"546 671 LINE",
"667 671 LINE",
"696 126 LINE",
"981 671 LINE",
"1087 671 LINE",
"727 8 LINE",
"614 8 LINE",
"584 553 LINE",
"308 8 LINE",
"189 8 LINE"
);
},
{
closed = 1;
nodes = (
"690 740 LINE",
"634 927 LINE",
"482 927 LINE",
"573 740 LINE"
);
},
{
closed = 1;
nodes = (
"508 911 LINE",
"622 911 LINE",
"668 756 LINE",
"583 756 LINE"
);
}
);
width = 1034;
}
);
leftKerningGroup = V;
note = Wgrave;
rightKerningGroup = V;
unicode = 1E80;
},
{
glyphname = X;
lastChange = "2018-03-11 16:48:54 +0000";
layers = (
{
hints = (
{
place = "{-29, 788}";
type = Stem;
}
);
layerId = "327F32D8-5A79-4D64-B4F5-E4A412D056ED";
paths = (
{
closed = 1;
nodes = (
"124 -8 LINE",
"358 243 LINE",
"483 -8 LINE",
"633 -8 LINE",
"450 354 LINE",
"778 687 LINE",
"606 687 LINE",
"389 463 LINE",
"280 687 LINE",
"130 687 LINE",
"301 359 LINE",
"-48 -8 LINE"
);
},
{
closed = 1;
nodes = (
"321 357 LINE",
"156 671 LINE",
"270 671 LINE",
"385 435 LINE",
"612 671 LINE",
"740 671 LINE",
"430 358 LINE",
"607 8 LINE",
"493 8 LINE",
"362 271 LINE",
"118 8 LINE",
"-10 8 LINE"
);
}
);
width = 711;
}
);
leftKerningGroup = X;
note = X;
rightKerningGroup = X;
unicode = 0058;
},
{
glyphname = Y;
lastChange = "2019-10-31 17:01:53 +0000";
layers = (
{
hints = (
{
place = "{117, 636}";
type = Stem;
}
);
layerId = "327F32D8-5A79-4D64-B4F5-E4A412D056ED";
paths = (
{
closed = 1;
nodes = (
"339 -8 LINE",
"408 287 LINE",
"771 687 LINE",
"609 687 LINE",
"364 413 LINE",
"245 687 LINE",
"105 687 LINE",
"283 290 LINE",
"213 -8 LINE"
);
},
{
closed = 1;
nodes = (
"299 292 LINE",
"129 671 LINE",
"235 671 LINE",
"360 383 LINE",
"617 671 LINE",
"735 671 LINE",
"394 295 LINE",
"327 8 LINE",
"233 8 LINE"
);
}
);
width = 676;
}
);
leftKerningGroup = Y;
note = Y;
rightKerningGroup = Y;
unicode = 0059;
},
{
glyphname = Yacute;
lastChange = "2018-03-11 16:48:54 +0000";
layers = (
{
hints = (
{
horizontal = 1;
place = "{748, 171}";
type = Stem;
},
{
place = "{117, 636}";
type = Stem;
}
);
layerId = "327F32D8-5A79-4D64-B4F5-E4A412D056ED";
paths = (
{
closed = 1;
nodes = (
"339 -8 LINE",
"408 287 LINE",
"771 687 LINE",
"609 687 LINE",
"364 413 LINE",
"245 687 LINE",
"105 687 LINE",
"283 290 LINE",
"213 -8 LINE"
);
},
{
closed = 1;
nodes = (
"299 292 LINE",
"129 671 LINE",
"235 671 LINE",
"360 383 LINE",
"617 671 LINE",
"735 671 LINE",
"394 295 LINE",
"327 8 LINE",
"233 8 LINE"
);
},
{
closed = 1;
nodes = (
"507 740 LINE",
"684 927 LINE",
"528 927 LINE",
"387 740 LINE"
);
},
{
closed = 1;
nodes = (
"536 911 LINE",
"646 911 LINE",
"501 756 LINE",
"419 756 LINE"
);
}
);
width = 676;
}
);
leftKerningGroup = Y;
note = Yacute;
rightKerningGroup = Y;
unicode = 00DD;
},
{
glyphname = Ycircumflex;
lastChange = "2018-03-11 16:48:54 +0000";
layers = (
{
hints = (
{
horizontal = 1;
place = "{748, 171}";
type = Stem;
},
{
place = "{117, 636}";
type = Stem;
}
);
layerId = "327F32D8-5A79-4D64-B4F5-E4A412D056ED";
paths = (
{
closed = 1;
nodes = (
"339 -8 LINE",
"408 287 LINE",
"771 687 LINE",
"609 687 LINE",
"364 413 LINE",
"245 687 LINE",
"105 687 LINE",
"283 290 LINE",
"213 -8 LINE"
);
},
{
closed = 1;
nodes = (
"299 292 LINE",
"129 671 LINE",
"235 671 LINE",
"360 383 LINE",
"617 671 LINE",
"735 671 LINE",
"394 295 LINE",
"327 8 LINE",
"233 8 LINE"
);
},
{
closed = 1;
nodes = (
"393 740 LINE",
"468 817 LINE",
"506 740 LINE",
"624 740 LINE",
"551 927 LINE",
"429 927 LINE",
"272 740 LINE"
);
},
{
closed = 1;
nodes = (
"437 911 LINE",
"541 911 LINE",
"600 756 LINE",
"516 756 LINE",
"472 845 LINE",
"387 756 LINE",
"306 756 LINE"
);
}
);
width = 676;
}
);
leftKerningGroup = Y;
note = Ycircumflex;
rightKerningGroup = Y;
unicode = 0176;
},
{
glyphname = Ydieresis;
lastChange = "2018-03-11 16:48:54 +0000";
layers = (
{
hints = (
{
horizontal = 1;
place = "{760, 111}";
type = Stem;
},
{
place = "{117, 636}";
type = Stem;
}
);
layerId = "327F32D8-5A79-4D64-B4F5-E4A412D056ED";
paths = (
{
closed = 1;
nodes = (
"339 -8 LINE",
"408 287 LINE",
"771 687 LINE",
"609 687 LINE",
"364 413 LINE",
"245 687 LINE",
"105 687 LINE",
"283 290 LINE",
"213 -8 LINE"
);
},
{
closed = 1;
nodes = (
"299 292 LINE",
"129 671 LINE",
"235 671 LINE",
"360 383 LINE",
"617 671 LINE",
"735 671 LINE",
"394 295 LINE",
"327 8 LINE",
"233 8 LINE"
);
},
{
closed = 1;
nodes = (
"386 752 OFFCURVE",
"419 779 OFFCURVE",
"427 813 CURVE SMOOTH",
"435 849 OFFCURVE",
"412 879 OFFCURVE",
"377 879 CURVE SMOOTH",
"342 879 OFFCURVE",
"308 851 OFFCURVE",
"300 817 CURVE SMOOTH",
"292 782 OFFCURVE",
"316 752 OFFCURVE",
"352 752 CURVE SMOOTH"
);
},
{
closed = 1;
nodes = (
"326 768 OFFCURVE",
"310 788 OFFCURVE",
"316 813 CURVE SMOOTH",
"322 840 OFFCURVE",
"350 863 OFFCURVE",
"377 863 CURVE SMOOTH",
"402 863 OFFCURVE",
"417 843 OFFCURVE",
"411 817 CURVE SMOOTH",
"405 790 OFFCURVE",
"378 768 OFFCURVE",
"352 768 CURVE SMOOTH"
);
},
{
closed = 1;
nodes = (
"578 752 OFFCURVE",
"611 779 OFFCURVE",
"619 813 CURVE SMOOTH",
"627 849 OFFCURVE",
"604 879 OFFCURVE",
"569 879 CURVE SMOOTH",
"534 879 OFFCURVE",
"500 851 OFFCURVE",
"492 817 CURVE SMOOTH",
"484 782 OFFCURVE",
"508 752 OFFCURVE",
"544 752 CURVE SMOOTH"
);
},
{
closed = 1;
nodes = (
"518 768 OFFCURVE",
"502 788 OFFCURVE",
"508 813 CURVE SMOOTH",
"514 840 OFFCURVE",
"542 863 OFFCURVE",
"569 863 CURVE SMOOTH",
"594 863 OFFCURVE",
"609 843 OFFCURVE",
"603 817 CURVE SMOOTH",
"597 790 OFFCURVE",
"570 768 OFFCURVE",
"544 768 CURVE SMOOTH"
);
}
);
width = 676;
}
);
leftKerningGroup = Y;
note = Ydieresis;
rightKerningGroup = Y;
unicode = 0178;
},
{
glyphname = Ygrave;
lastChange = "2018-03-11 16:48:54 +0000";
layers = (
{
hints = (
{
horizontal = 1;
place = "{748, 171}";
type = Stem;
},
{
place = "{117, 636}";
type = Stem;
}
);
layerId = "327F32D8-5A79-4D64-B4F5-E4A412D056ED";
paths = (
{
closed = 1;
nodes = (
"339 -8 LINE",
"408 287 LINE",
"771 687 LINE",
"609 687 LINE",
"364 413 LINE",
"245 687 LINE",
"105 687 LINE",
"283 290 LINE",
"213 -8 LINE"
);
},
{
closed = 1;
nodes = (
"299 292 LINE",
"129 671 LINE",
"235 671 LINE",
"360 383 LINE",
"617 671 LINE",
"735 671 LINE",
"394 295 LINE",
"327 8 LINE",
"233 8 LINE"
);
},
{
closed = 1;
nodes = (
"511 740 LINE",
"455 927 LINE",
"303 927 LINE",
"394 740 LINE"
);
},
{
closed = 1;
nodes = (
"329 911 LINE",
"443 911 LINE",
"489 756 LINE",
"404 756 LINE"
);
}
);
width = 676;
}
);
leftKerningGroup = Y;
note = Ygrave;
rightKerningGroup = Y;
unicode = 1EF2;
},
{
glyphname = Z;
lastChange = "2018-03-11 16:48:54 +0000";
layers = (
{
hints = (
{
horizontal = 1;
place = "{0, 102}";
type = Stem;
},
{
horizontal = 1;
place = "{577, 102}";
type = Stem;
},
{
place = "{15, 698}";
type = Stem;
}
);
layerId = "327F32D8-5A79-4D64-B4F5-E4A412D056ED";
paths = (
{
closed = 1;
nodes = (
"575 -8 LINE",
"603 110 LINE",
"210 110 LINE",
"697 573 LINE",
"723 687 LINE",
"185 687 LINE",
"158 569 LINE",
"522 569 LINE",
"32 106 LINE",
"5 -8 LINE"
);
},
{
closed = 1;
nodes = (
"46 98 LINE",
"562 585 LINE",
"178 585 LINE",
"197 671 LINE",
"703 671 LINE",
"683 581 LINE",
"170 94 LINE",
"583 94 LINE",
"563 8 LINE",
"25 8 LINE"
);
}
);
width = 684;
}
);
leftKerningGroup = Z;
note = Z;
rightKerningGroup = Z;
unicode = 005A;
},
{
glyphname = Zacute;
lastChange = "2018-03-11 16:48:54 +0000";
layers = (
{
hints = (
{
horizontal = 1;
place = "{0, 102}";
type = Stem;
},
{
horizontal = 1;
place = "{577, 102}";
type = Stem;
},
{
horizontal = 1;
place = "{748, 171}";
type = Stem;
},
{
place = "{15, 698}";
type = Stem;
}
);
layerId = "327F32D8-5A79-4D64-B4F5-E4A412D056ED";
paths = (
{
closed = 1;
nodes = (
"575 -8 LINE",
"603 110 LINE",
"210 110 LINE",
"697 573 LINE",
"723 687 LINE",
"185 687 LINE",
"158 569 LINE",
"522 569 LINE",
"32 106 LINE",
"5 -8 LINE"
);
},
{
closed = 1;
nodes = (
"46 98 LINE",
"562 585 LINE",
"178 585 LINE",
"197 671 LINE",
"703 671 LINE",
"683 581 LINE",
"170 94 LINE",
"583 94 LINE",
"563 8 LINE",
"25 8 LINE"
);
},
{
closed = 1;
nodes = (
"511 740 LINE",
"688 927 LINE",
"532 927 LINE",
"391 740 LINE"
);
},
{
closed = 1;
nodes = (
"540 911 LINE",
"650 911 LINE",
"505 756 LINE",
"423 756 LINE"
);
}
);
width = 684;
}
);
leftKerningGroup = Z;
note = Zacute;
rightKerningGroup = Z;
unicode = 0179;
},
{
glyphname = Zcaron;
lastChange = "2018-03-11 16:48:54 +0000";
layers = (
{
hints = (
{
horizontal = 1;
place = "{0, 102}";
type = Stem;
},
{
horizontal = 1;
place = "{577, 102}";
type = Stem;
},
{
horizontal = 1;
place = "{748, 171}";
type = Stem;
},
{
place = "{15, 698}";
type = Stem;
}
);
layerId = "327F32D8-5A79-4D64-B4F5-E4A412D056ED";
paths = (
{
closed = 1;
nodes = (
"575 -8 LINE",
"603 110 LINE",
"210 110 LINE",
"697 573 LINE",
"723 687 LINE",
"185 687 LINE",
"158 569 LINE",
"522 569 LINE",
"32 106 LINE",
"5 -8 LINE"
);
},
{
closed = 1;
nodes = (
"46 98 LINE",
"562 585 LINE",
"178 585 LINE",
"197 671 LINE",
"703 671 LINE",
"683 581 LINE",
"170 94 LINE",
"583 94 LINE",
"563 8 LINE",
"25 8 LINE"
);
},
{
closed = 1;
nodes = (
"515 740 LINE",
"672 927 LINE",
"551 927 LINE",
"477 850 LINE",
"438 927 LINE",
"320 927 LINE",
"393 740 LINE"
);
},
{
closed = 1;
nodes = (
"344 911 LINE",
"428 911 LINE",
"473 822 LINE",
"557 911 LINE",
"638 911 LINE",
"507 756 LINE",
"403 756 LINE"
);
}
);
width = 684;
}
);
leftKerningGroup = Z;
note = Zcaron;
rightKerningGroup = Z;
unicode = 017D;
},
{
glyphname = Zdotaccent;
lastChange = "2018-03-11 16:48:54 +0000";
layers = (
{
hints = (
{
horizontal = 1;
place = "{0, 102}";
type = Stem;
},
{
horizontal = 1;
place = "{577, 102}";
type = Stem;
},
{
horizontal = 1;
place = "{753, 123}";
type = Stem;
},
{
place = "{15, 698}";
type = Stem;
}
);
layerId = "327F32D8-5A79-4D64-B4F5-E4A412D056ED";
paths = (
{
closed = 1;
nodes = (
"575 -8 LINE",
"603 110 LINE",
"210 110 LINE",
"697 573 LINE",
"723 687 LINE",
"185 687 LINE",
"158 569 LINE",
"522 569 LINE",
"32 106 LINE",
"5 -8 LINE"
);
},
{
closed = 1;
nodes = (
"46 98 LINE",
"562 585 LINE",
"178 585 LINE",
"197 671 LINE",
"703 671 LINE",
"683 581 LINE",
"170 94 LINE",
"583 94 LINE",
"563 8 LINE",
"25 8 LINE"
);
},
{
closed = 1;
nodes = (
"493 745 OFFCURVE",
"530 774 OFFCURVE",
"539 812 CURVE SMOOTH",
"548 852 OFFCURVE",
"523 884 OFFCURVE",
"483 884 CURVE SMOOTH",
"445 884 OFFCURVE",
"409 854 OFFCURVE",
"400 816 CURVE SMOOTH",
"391 777 OFFCURVE",
"416 745 OFFCURVE",
"455 745 CURVE SMOOTH"
);
},
{
closed = 1;
nodes = (
"426 761 OFFCURVE",
"409 783 OFFCURVE",
"416 812 CURVE SMOOTH",
"423 843 OFFCURVE",
"453 868 OFFCURVE",
"483 868 CURVE SMOOTH",
"513 868 OFFCURVE",
"530 846 OFFCURVE",
"523 816 CURVE SMOOTH",
"516 785 OFFCURVE",
"486 761 OFFCURVE",
"455 761 CURVE SMOOTH"
);
}
);
width = 684;
}
);
leftKerningGroup = Z;
note = Zdotaccent;
rightKerningGroup = Z;
unicode = 017B;
},
{
glyphname = A.ss02;
lastChange = "2018-03-11 16:48:54 +0000";
layers = (
{
hints = (
{
horizontal = 1;
place = "{0, 100}";
type = Stem;
},
{
place = "{-30, 771}";
type = Stem;
}
);
layerId = "327F32D8-5A79-4D64-B4F5-E4A412D056ED";
paths = (
{
closed = 1;
nodes = (
"752 -8 LINE",
"521 738 LINE",
"-46 -8 LINE"
);
},
{
closed = 1;
nodes = (
"515 704 LINE",
"730 8 LINE",
"-14 8 LINE"
);
},
{
closed = 1;
nodes = (
"463 475 LINE",
"565 109 LINE",
"189 107 LINE"
);
},
{
closed = 1;
nodes = (
"587 93 LINE",
"469 511 LINE",
"157 91 LINE"
);
}
);
width = 827;
}
);
leftKerningGroup = A;
note = A.ss02;
rightKerningGroup = A;
},
{
glyphname = AE.ss02;
lastChange = "2018-03-11 16:48:54 +0000";
layers = (
{
hints = (
{
horizontal = 1;
place = "{0, 102}";
type = Stem;
},
{
horizontal = 1;
place = "{302, 102}";
type = Stem;
},
{
horizontal = 1;
place = "{597, 102}";
type = Stem;
},
{
place = "{-35, 1021}";
type = Stem;
}
);
layerId = "327F32D8-5A79-4D64-B4F5-E4A412D056ED";
paths = (
{
closed = 1;
nodes = (
"830 -8 LINE",
"858 110 LINE",
"577 110 LINE",
"619 294 LINE",
"810 294 LINE",
"838 412 LINE",
"647 412 LINE",
"687 589 LINE",
"968 589 LINE",
"996 707 LINE",
"583 707 LINE",
"-53 -8 LINE"
);
},
{
closed = 1;
nodes = (
"591 691 LINE",
"976 691 LINE",
"956 605 LINE",
"675 605 LINE",
"627 396 LINE",
"818 396 LINE",
"798 310 LINE",
"607 310 LINE",
"557 94 LINE",
"838 94 LINE",
"818 8 LINE",
"-17 8 LINE"
);
},
{
closed = 1;
nodes = (
"531 492 LINE",
"443 110 LINE",
"203 110 LINE"
);
},
{
closed = 1;
nodes = (
"455 94 LINE",
"561 552 LINE",
"169 94 LINE"
);
}
);
width = 980;
}
);
leftKerningGroup = A;
note = AE.ss02;
rightKerningGroup = AE;
},
{
glyphname = B.ss02;
lastChange = "2018-03-11 16:48:54 +0000";
layers = (
{
hints = (
{
horizontal = 1;
place = "{0, 102}";
type = Stem;
},
{
horizontal = 1;
place = "{303, 102}";
type = Stem;
},
{
horizontal = 1;
place = "{613, 102}";
type = Stem;
},
{
place = "{531.32, 121.46}";
type = Stem;
},
{
place = "{533.54, 119.54}";
type = Stem;
}
);
layerId = "327F32D8-5A79-4D64-B4F5-E4A412D056ED";
paths = (
{
closed = 1;
nodes = (
"367 -8 LINE SMOOTH",
"523 -8 OFFCURVE",
"626 66 OFFCURVE",
"657 200 CURVE SMOOTH",
"675 280 OFFCURVE",
"635 354 OFFCURVE",
"560 381 CURVE",
"603 405 OFFCURVE",
"643 460 OFFCURVE",
"655 512 CURVE SMOOTH",
"685 643 OFFCURVE",
"607 725 OFFCURVE",
"455 723 CURVE",
"428 605 LINE",
"494 609 OFFCURVE",
"533 570 OFFCURVE",
"521 516 CURVE SMOOTH",
"508 454 OFFCURVE",
"452 413 OFFCURVE",
"384 413 CURVE SMOOTH",
"132 413 LINE",
"34 -8 LINE"
);
},
{
closed = 1;
nodes = (
"144 397 LINE",
"384 397 LINE SMOOTH",
"460 397 OFFCURVE",
"521 443 OFFCURVE",
"537 512 CURVE SMOOTH",
"550 571 OFFCURVE",
"512 616 OFFCURVE",
"448 621 CURVE",
"467 707 LINE",
"601 705 OFFCURVE",
"666 633 OFFCURVE",
"639 516 CURVE SMOOTH",
"624 449 OFFCURVE",
"556 375 OFFCURVE",
"507 386 CURVE",
"506 376 LINE",
"603 371 OFFCURVE",
"662 292 OFFCURVE",
"641 204 CURVE SMOOTH",
"612 77 OFFCURVE",
"516 8 OFFCURVE",
"367 8 CURVE SMOOTH",
"54 8 LINE"
);
},
{
closed = 1;
nodes = (
"238 295 LINE",
"406 295 LINE SMOOTH",
"493 295 OFFCURVE",
"536 261 OFFCURVE",
"523 204 CURVE SMOOTH",
"508 141 OFFCURVE",
"465 110 OFFCURVE",
"391 110 CURVE SMOOTH",
"196 110 LINE"
);
},
{
closed = 1;
nodes = (
"391 94 LINE SMOOTH",
"471 94 OFFCURVE",
"522 130 OFFCURVE",
"539 200 CURVE SMOOTH",
"555 268 OFFCURVE",
"503 311 OFFCURVE",
"406 311 CURVE SMOOTH",
"226 311 LINE",
"176 94 LINE"
);
}
);
width = 740;
}
);
note = B.ss02;
rightKerningGroup = B;
},
{
glyphname = C.ss02;
lastChange = "2018-03-11 16:48:54 +0000";
layers = (
{
hints = (
{
horizontal = 1;
place = "{-14, 109}";
type = Stem;
},
{
horizontal = 1;
place = "{590, 109}";
type = Stem;
},
{
place = "{95.86, 122.55}";
type = Stem;
}
);
layerId = "327F32D8-5A79-4D64-B4F5-E4A412D056ED";
paths = (
{
closed = 1;
nodes = (
"470 103 LINE",
"333 100 OFFCURVE",
"192 161 OFFCURVE",
"234 338 CURVE SMOOTH",
"273 510 OFFCURVE",
"432 579 OFFCURVE",
"565 582 CURVE",
"516 370 LINE",
"649 370 LINE",
"727 707 LINE",
"600 707 LINE SMOOTH",
"396 707 OFFCURVE",
"159 603 OFFCURVE",
"99 342 CURVE SMOOTH",
"38 77 OFFCURVE",
"235 -24 OFFCURVE",
"441 -22 CURVE"
);
},
{
closed = 1;
nodes = (
"231 -4 OFFCURVE",
"58 91 OFFCURVE",
"115 338 CURVE SMOOTH",
"173 591 OFFCURVE",
"400 691 OFFCURVE",
"600 691 CURVE SMOOTH",
"707 691 LINE",
"637 386 LINE",
"536 386 LINE",
"585 598 LINE",
"446 601 OFFCURVE",
"261 530 OFFCURVE",
"218 342 CURVE SMOOTH",
"176 161 OFFCURVE",
"315 90 OFFCURVE",
"450 87 CURVE",
"429 -6 LINE"
);
}
);
width = 714;
}
);
leftKerningGroup = C;
note = C.ss02;
rightKerningGroup = C.ss02;
},
{
glyphname = Ccedilla.ss02;
lastChange = "2018-03-11 16:48:54 +0000";
layers = (
{
hints = (
{
horizontal = 1;
place = "{590, 109}";
type = Stem;
},
{
place = "{96.07, 122.34}";
type = Stem;
}
);
layerId = "327F32D8-5A79-4D64-B4F5-E4A412D056ED";
paths = (
{
closed = 1;
nodes = (
"388 -257 LINE",
"456 37 LINE",
"455 37 LINE",
"470 103 LINE",
"333 100 OFFCURVE",
"192 161 OFFCURVE",
"234 338 CURVE SMOOTH",
"273 510 OFFCURVE",
"432 579 OFFCURVE",
"565 582 CURVE",
"516 370 LINE",
"649 370 LINE",
"727 707 LINE",
"600 707 LINE SMOOTH",
"396 707 OFFCURVE",
"159 603 OFFCURVE",
"99 342 CURVE SMOOTH",
"57 159 OFFCURVE",
"135 32 OFFCURVE",
"313 -9 CURVE",
"256 -257 LINE"
);
},
{
closed = 1;
nodes = (
"333 3 LINE",
"152 38 OFFCURVE",
"73 158 OFFCURVE",
"115 338 CURVE SMOOTH",
"173 591 OFFCURVE",
"400 691 OFFCURVE",
"600 691 CURVE SMOOTH",
"707 691 LINE",
"637 386 LINE",
"536 386 LINE",
"585 598 LINE",
"446 601 OFFCURVE",
"261 530 OFFCURVE",
"218 342 CURVE SMOOTH",
"176 161 OFFCURVE",
"315 90 OFFCURVE",
"450 87 CURVE",
"435 21 LINE",
"436 21 LINE",
"376 -241 LINE",
"276 -241 LINE"
);
}
);
width = 714;
}
);
leftKerningGroup = C;
note = Ccedilla.ss02;
rightKerningGroup = C.ss02;
},
{
glyphname = D.ss02;
lastChange = "2018-03-11 16:48:54 +0000";
layers = (
{
hints = (
{
horizontal = 1;
place = "{-14, 109}";
type = Stem;
},
{
horizontal = 1;
place = "{277, 102}";
type = Stem;
},
{
horizontal = 1;
place = "{591, 109}";
type = Stem;
},
{
place = "{539.68, 121.22}";
type = Stem;
}
);
layerId = "327F32D8-5A79-4D64-B4F5-E4A412D056ED";
paths = (
{
closed = 1;
nodes = (
"353 -25 OFFCURVE",
"596 76 OFFCURVE",
"657 340 CURVE SMOOTH",
"718 603 OFFCURVE",
"536 708 OFFCURVE",
"341 708 CURVE SMOOTH",
"200 708 LINE",
"98 269 LINE",
"366 269 LINE",
"394 387 LINE",
"259 387 LINE",
"304 583 LINE",
"482 581 OFFCURVE",
"559 497 OFFCURVE",
"523 344 CURVE SMOOTH",
"483 166 OFFCURVE",
"312 101 OFFCURVE",
"177 103 CURVE",
"148 -22 LINE"
);
},
{
closed = 1;
nodes = (
"189 87 LINE",
"326 89 OFFCURVE",
"498 160 OFFCURVE",
"539 340 CURVE SMOOTH",
"578 507 OFFCURVE",
"488 601 OFFCURVE",
"292 599 CURVE",
"239 371 LINE",
"374 371 LINE",
"354 285 LINE",
"118 285 LINE",
"212 692 LINE",
"341 692 LINE SMOOTH",
"532 692 OFFCURVE",
"700 595 OFFCURVE",
"641 344 CURVE SMOOTH",
"584 96 OFFCURVE",
"365 -3 OFFCURVE",
"168 -6 CURVE"
);
}
);
width = 705;
}
);
note = D.ss02;
rightKerningGroup = D;
},
{
glyphname = E.ss02;
lastChange = "2018-03-11 16:48:54 +0000";
layers = (
{
hints = (
{
horizontal = 1;
place = "{0, 102}";
type = Stem;
},
{
horizontal = 1;
place = "{302, 102}";
type = Stem;
},
{
horizontal = 1;
place = "{597, 102}";
type = Stem;
},
{
place = "{60, 682}";
type = Stem;
}
);
layerId = "327F32D8-5A79-4D64-B4F5-E4A412D056ED";
paths = (
{
closed = 1;
nodes = (
"586 -8 LINE",
"614 110 LINE",
"333 110 LINE",
"443 589 LINE",
"724 589 LINE",
"752 707 LINE",
"337 707 LINE",
"269 412 LINE",
"78 412 LINE",
"50 294 LINE",
"241 294 LINE",
"171 -8 LINE"
);
},
{
closed = 1;
nodes = (
"261 310 LINE",
"70 310 LINE",
"90 396 LINE",
"281 396 LINE",
"349 691 LINE",
"732 691 LINE",
"712 605 LINE",
"431 605 LINE",
"313 94 LINE",
"594 94 LINE",
"574 8 LINE",
"191 8 LINE"
);
}
);
width = 728;
}
);
leftKerningGroup = E.ss02;
note = E.ss02;
rightKerningGroup = C;
},
{
glyphname = F.ss02;
lastChange = "2018-03-11 16:48:54 +0000";
layers = (
{
hints = (
{
horizontal = 1;
place = "{303, 102}";
type = Stem;
},
{
horizontal = 1;
place = "{597, 102}";
type = Stem;
},
{
place = "{128, 503}";
type = Stem;
}
);
layerId = "327F32D8-5A79-4D64-B4F5-E4A412D056ED";
paths = (
{
closed = 1;
nodes = (
"303 -8 LINE",
"373 295 LINE",
"613 295 LINE",
"641 413 LINE",
"401 413 LINE",
"469 707 LINE",
"146 707 LINE",
"118 589 LINE",
"308 589 LINE",
"170 -8 LINE"
);
},
{
closed = 1;
nodes = (
"328 605 LINE",
"138 605 LINE",
"158 691 LINE",
"449 691 LINE",
"381 397 LINE",
"621 397 LINE",
"601 311 LINE",
"361 311 LINE",
"291 8 LINE",
"190 8 LINE"
);
}
);
width = 683;
}
);
leftKerningGroup = E.ss02;
note = F.ss02;
},
{
glyphname = G.ss02;
lastChange = "2018-03-11 16:48:54 +0000";
layers = (
{
hints = (
{
horizontal = 1;
place = "{-14, 110}";
type = Stem;
},
{
horizontal = 1;
place = "{308, 102}";
type = Stem;
},
{
horizontal = 1;
place = "{606, 109}";
type = Stem;
},
{
place = "{97.77, 122.84}";
type = Stem;
}
);
layerId = "327F32D8-5A79-4D64-B4F5-E4A412D056ED";
paths = (
{
closed = 1;
nodes = (
"558 -22 LINE",
"660 418 LINE",
"391 418 LINE",
"363 300 LINE",
"499 300 LINE",
"454 104 LINE",
"322 106 OFFCURVE",
"197 179 OFFCURVE",
"236 349 CURVE SMOOTH",
"278 527 OFFCURVE",
"449 600 OFFCURVE",
"584 598 CURVE",
"613 723 LINE",
"407 727 OFFCURVE",
"162 617 OFFCURVE",
"101 353 CURVE SMOOTH",
"41 91 OFFCURVE",
"231 -22 OFFCURVE",
"435 -22 CURVE SMOOTH"
);
},
{
closed = 1;
nodes = (
"235 -6 OFFCURVE",
"59 99 OFFCURVE",
"117 349 CURVE SMOOTH",
"174 597 OFFCURVE",
"395 703 OFFCURVE",
"593 707 CURVE",
"572 614 LINE",
"435 612 OFFCURVE",
"262 533 OFFCURVE",
"220 353 CURVE SMOOTH",
"177 165 OFFCURVE",
"326 86 OFFCURVE",
"466 88 CURVE",
"519 316 LINE",
"383 316 LINE",
"403 402 LINE",
"640 402 LINE",
"546 -6 LINE",
"435 -6 LINE SMOOTH"
);
}
);
width = 739;
}
);
leftKerningGroup = C;
note = G.ss02;
},
{
glyphname = H.ss02;
lastChange = "2018-03-11 16:48:54 +0000";
layers = (
{
hints = (
{
horizontal = 1;
place = "{302, 102}";
type = Stem;
},
{
place = "{60, 853}";
type = Stem;
}
);
layerId = "327F32D8-5A79-4D64-B4F5-E4A412D056ED";
paths = (
{
closed = 1;
nodes = (
"757 -8 LINE",
"923 707 LINE",
"790 707 LINE",
"722 412 LINE",
"525 412 LINE",
"497 294 LINE",
"694 294 LINE",
"624 -8 LINE"
);
},
{
closed = 1;
nodes = (
"714 310 LINE",
"517 310 LINE",
"537 396 LINE",
"734 396 LINE",
"802 691 LINE",
"903 691 LINE",
"745 8 LINE",
"644 8 LINE"
);
},
{
closed = 1;
nodes = (
"304 -8 LINE",
"470 707 LINE",
"337 707 LINE",
"269 412 LINE",
"78 412 LINE",
"50 294 LINE",
"241 294 LINE",
"171 -8 LINE"
);
},
{
closed = 1;
nodes = (
"261 310 LINE",
"70 310 LINE",
"90 396 LINE",
"281 396 LINE",
"349 691 LINE",
"450 691 LINE",
"292 8 LINE",
"191 8 LINE"
);
}
);
width = 925;
}
);
note = H.ss02;
},
{
glyphname = I.ss02;
lastChange = "2018-03-11 16:48:54 +0000";
layers = (
{
hints = (
{
place = "{54, 279}";
type = Stem;
}
);
layerId = "327F32D8-5A79-4D64-B4F5-E4A412D056ED";
paths = (
{
closed = 1;
nodes = (
"177 -8 LINE",
"343 707 LINE",
"210 707 LINE",
"44 -8 LINE"
);
},
{
closed = 1;
nodes = (
"222 691 LINE",
"323 691 LINE",
"165 8 LINE",
"64 8 LINE"
);
}
);
width = 345;
}
);
note = I.ss02;
},
{
glyphname = J.ss02;
lastChange = "2018-03-11 16:48:54 +0000";
layers = (
{
hints = (
{
horizontal = 1;
place = "{597, 102}";
type = Stem;
},
{
place = "{110, 349}";
type = Stem;
}
);
layerId = "327F32D8-5A79-4D64-B4F5-E4A412D056ED";
paths = (
{
closed = 1;
nodes = (
"303 -8 LINE",
"469 707 LINE",
"128 707 LINE",
"100 589 LINE",
"308 589 LINE",
"170 -8 LINE"
);
},
{
closed = 1;
nodes = (
"328 605 LINE",
"120 605 LINE",
"140 691 LINE",
"449 691 LINE",
"291 8 LINE",
"190 8 LINE"
);
}
);
width = 471;
}
);
note = J.ss02;
},
{
glyphname = K.ss02;
lastChange = "2018-03-11 16:48:54 +0000";
layers = (
{
hints = (
{
place = "{54, 794}";
type = Stem;
}
);
layerId = "327F32D8-5A79-4D64-B4F5-E4A412D056ED";
paths = (
{
closed = 1;
nodes = (
"177 -8 LINE",
"290 475 LINE",
"515 -8 LINE",
"675 -8 LINE",
"508 346 LINE",
"867 707 LINE",
"708 707 LINE",
"458 453 LINE",
"338 707 LINE",
"210 707 LINE",
"44 -8 LINE"
);
},
{
closed = 1;
nodes = (
"222 691 LINE",
"328 691 LINE",
"454 425 LINE",
"714 691 LINE",
"829 691 LINE",
"488 350 LINE",
"649 8 LINE",
"525 8 LINE",
"284 523 LINE",
"165 8 LINE",
"64 8 LINE"
);
}
);
width = 791;
}
);
note = K.ss02;
rightKerningGroup = K;
},
{
glyphname = L.ss02;
lastChange = "2018-03-11 16:48:54 +0000";
layers = (
{
hints = (
{
horizontal = 1;
place = "{0, 102}";
type = Stem;
},
{
place = "{54, 528}";
type = Stem;
}
);
layerId = "327F32D8-5A79-4D64-B4F5-E4A412D056ED";
paths = (
{
closed = 1;
nodes = (
"564 -8 LINE",
"592 110 LINE",
"206 110 LINE",
"344 707 LINE",
"210 707 LINE",
"44 -8 LINE"
);
},
{
closed = 1;
nodes = (
"222 691 LINE",
"324 691 LINE",
"186 94 LINE",
"572 94 LINE",
"552 8 LINE",
"64 8 LINE"
);
}
);
width = 681;
}
);
note = L.ss02;
rightKerningGroup = L;
},
{
glyphname = M.ss02;
lastChange = "2018-03-11 16:48:54 +0000";
layers = (
{
hints = (
{
place = "{54, 790}";
type = Stem;
},
{
horizontal = 1;
place = "{572, 128}";
type = Stem;
}
);
layerId = "327F32D8-5A79-4D64-B4F5-E4A412D056ED";
paths = (
{
closed = 1;
nodes = (
"179 -8 LINE",
"673 505 LINE",
"554 -8 LINE",
"688 -8 LINE",
"854 708 LINE",
"723 708 LINE",
"477 450 LINE",
"376 708 LINE",
"210 708 LINE",
"44 -8 LINE"
);
},
{
closed = 1;
nodes = (
"222 692 LINE",
"366 692 LINE",
"471 420 LINE",
"729 692 LINE",
"834 692 LINE",
"676 8 LINE",
"574 8 LINE",
"701 557 LINE",
"173 8 LINE",
"64 8 LINE"
);
},
{
closed = 1;
nodes = (
"304 543 LINE",
"374 346 LINE",
"220 182 LINE"
);
},
{
closed = 1;
nodes = (
"392 342 LINE",
"300 601 LINE",
"192 128 LINE"
);
}
);
width = 856;
}
);
note = M.ss02;
},
{
glyphname = N.ss02;
lastChange = "2018-03-11 16:48:54 +0000";
layers = (
{
hints = (
{
place = "{54, 726}";
type = Stem;
}
);
layerId = "327F32D8-5A79-4D64-B4F5-E4A412D056ED";
paths = (
{
closed = 1;
nodes = (
"177 -8 LINE",
"300 522 LINE",
"551 252 LINE",
"491 -8 LINE",
"624 -8 LINE",
"790 707 LINE",
"657 707 LINE",
"593 429 LINE",
"343 698 LINE",
"352 707 LINE",
"210 707 LINE",
"44 -8 LINE"
);
},
{
closed = 1;
nodes = (
"222 691 LINE",
"314 691 LINE",
"321 698 LINE",
"601 397 LINE",
"669 691 LINE",
"770 691 LINE",
"612 8 LINE",
"511 8 LINE",
"569 256 LINE",
"292 554 LINE",
"165 8 LINE",
"64 8 LINE"
);
}
);
width = 791;
}
);
note = N.ss02;
},
{
glyphname = O.ss02;
lastChange = "2018-03-11 16:48:54 +0000";
layers = (
{
hints = (
{
horizontal = 1;
place = "{-15, 109}";
type = Stem;
},
{
horizontal = 1;
place = "{605, 109}";
type = Stem;
},
{
place = "{80.29, 121.64}";
type = Stem;
},
{
place = "{706.72, 121.93}";
type = Stem;
}
);
layerId = "327F32D8-5A79-4D64-B4F5-E4A412D056ED";
paths = (
{
closed = 1;
nodes = (
"575 -23 OFFCURVE",
"779 142 OFFCURVE",
"827 347 CURVE SMOOTH",
"875 553 OFFCURVE",
"745 722 OFFCURVE",
"538 722 CURVE SMOOTH",
"333 722 OFFCURVE",
"130 557 OFFCURVE",
"82 351 CURVE SMOOTH",
"34 145 OFFCURVE",
"163 -23 OFFCURVE",
"370 -23 CURVE SMOOTH"
);
},
{
closed = 1;
nodes = (
"174 -7 OFFCURVE",
"52 152 OFFCURVE",
"98 347 CURVE SMOOTH",
"144 546 OFFCURVE",
"341 706 OFFCURVE",
"538 706 CURVE SMOOTH",
"735 706 OFFCURVE",
"857 547 OFFCURVE",
"811 351 CURVE SMOOTH",
"765 153 OFFCURVE",
"567 -7 OFFCURVE",
"370 -7 CURVE SMOOTH"
);
},
{
closed = 1;
nodes = (
"264 102 OFFCURVE",
"185 211 OFFCURVE",
"217 347 CURVE SMOOTH",
"248 485 OFFCURVE",
"381 597 OFFCURVE",
"513 597 CURVE SMOOTH",
"643 597 OFFCURVE",
"723 487 OFFCURVE",
"692 351 CURVE SMOOTH",
"660 213 OFFCURVE",
"527 102 OFFCURVE",
"395 102 CURVE SMOOTH"
);
},
{
closed = 1;
nodes = (
"535 86 OFFCURVE",
"674 202 OFFCURVE",
"708 347 CURVE SMOOTH",
"741 494 OFFCURVE",
"654 613 OFFCURVE",
"513 613 CURVE SMOOTH",
"373 613 OFFCURVE",
"234 496 OFFCURVE",
"201 351 CURVE SMOOTH",
"167 205 OFFCURVE",
"254 86 OFFCURVE",
"395 86 CURVE SMOOTH"
);
}
);
width = 867;
}
);
leftKerningGroup = C;
note = O.ss02;
rightKerningGroup = O;
},
{
glyphname = Oacute.ss02;
lastChange = "2018-03-11 16:48:54 +0000";
layers = (
{
hints = (
{
horizontal = 1;
place = "{-15, 103}";
type = Stem;
},
{
horizontal = 1;
place = "{593, 102}";
type = Stem;
},
{
horizontal = 1;
place = "{748, 171}";
type = Stem;
},
{
place = "{53.45, 114.76}";
type = Stem;
},
{
place = "{671.93, 115.52}";
type = Stem;
}
);
layerId = "327F32D8-5A79-4D64-B4F5-E4A412D056ED";
paths = (
{
closed = 1;
nodes = (
"542 -26 OFFCURVE",
"741 135 OFFCURVE",
"785 338 CURVE SMOOTH",
"835 542 OFFCURVE",
"709 706 OFFCURVE",
"502 703 CURVE SMOOTH",
"298 706 OFFCURVE",
"100 546 OFFCURVE",
"56 342 CURVE SMOOTH",
"6 137 OFFCURVE",
"131 -26 OFFCURVE",
"338 -23 CURVE SMOOTH"
);
},
{
closed = 1;
nodes = (
"141 -10 OFFCURVE",
"24 143 OFFCURVE",
"72 338 CURVE SMOOTH",
"114 535 OFFCURVE",
"305 690 OFFCURVE",
"502 687 CURVE SMOOTH",
"698 690 OFFCURVE",
"817 536 OFFCURVE",
"769 342 CURVE SMOOTH",
"727 146 OFFCURVE",
"534 -10 OFFCURVE",
"338 -7 CURVE SMOOTH"
);
},
{
closed = 1;
nodes = (
"224 96 OFFCURVE",
"151 195 OFFCURVE",
"184 338 CURVE SMOOTH",
"217 483 OFFCURVE",
"340 585 OFFCURVE",
"478 585 CURVE SMOOTH",
"616 585 OFFCURVE",
"690 485 OFFCURVE",
"656 342 CURVE SMOOTH",
"623 196 OFFCURVE",
"502 96 OFFCURVE",
"362 96 CURVE SMOOTH"
);
},
{
closed = 1;
nodes = (
"510 80 OFFCURVE",
"637 186 OFFCURVE",
"672 338 CURVE SMOOTH",
"707 491 OFFCURVE",
"627 601 OFFCURVE",
"478 601 CURVE SMOOTH",
"332 601 OFFCURVE",
"203 493 OFFCURVE",
"168 342 CURVE SMOOTH",
"133 189 OFFCURVE",
"213 80 OFFCURVE",
"362 80 CURVE SMOOTH"
);
},
{
closed = 1;
nodes = (
"571 740 LINE",
"748 927 LINE",
"592 927 LINE",
"451 740 LINE"
);
},
{
closed = 1;
nodes = (
"600 911 LINE",
"710 911 LINE",
"565 756 LINE",
"483 756 LINE"
);
}
);
width = 803;
}
);
leftKerningGroup = C;
note = Oacute.ss02;
rightKerningGroup = O;
},
{
glyphname = Ocircumflex.ss02;
lastChange = "2018-03-11 16:48:54 +0000";
layers = (
{
hints = (
{
horizontal = 1;
place = "{-15, 103}";
type = Stem;
},
{
horizontal = 1;
place = "{593, 102}";
type = Stem;
},
{
horizontal = 1;
place = "{748, 171}";
type = Stem;
},
{
place = "{53.45, 114.76}";
type = Stem;
},
{
place = "{671.93, 115.52}";
type = Stem;
}
);
layerId = "327F32D8-5A79-4D64-B4F5-E4A412D056ED";
paths = (
{
closed = 1;
nodes = (
"542 -26 OFFCURVE",
"741 135 OFFCURVE",
"785 338 CURVE SMOOTH",
"835 542 OFFCURVE",
"709 706 OFFCURVE",
"502 703 CURVE SMOOTH",
"298 706 OFFCURVE",
"100 546 OFFCURVE",
"56 342 CURVE SMOOTH",
"6 137 OFFCURVE",
"131 -26 OFFCURVE",
"338 -23 CURVE SMOOTH"
);
},
{
closed = 1;
nodes = (
"141 -10 OFFCURVE",
"24 143 OFFCURVE",
"72 338 CURVE SMOOTH",
"114 535 OFFCURVE",
"305 690 OFFCURVE",
"502 687 CURVE SMOOTH",
"698 690 OFFCURVE",
"817 536 OFFCURVE",
"769 342 CURVE SMOOTH",
"727 146 OFFCURVE",
"534 -10 OFFCURVE",
"338 -7 CURVE SMOOTH"
);
},
{
closed = 1;
nodes = (
"224 96 OFFCURVE",
"151 195 OFFCURVE",
"184 338 CURVE SMOOTH",
"217 483 OFFCURVE",
"340 585 OFFCURVE",
"478 585 CURVE SMOOTH",
"616 585 OFFCURVE",
"690 485 OFFCURVE",
"656 342 CURVE SMOOTH",
"623 196 OFFCURVE",
"502 96 OFFCURVE",
"362 96 CURVE SMOOTH"
);
},
{
closed = 1;
nodes = (
"510 80 OFFCURVE",
"637 186 OFFCURVE",
"672 338 CURVE SMOOTH",
"707 491 OFFCURVE",
"627 601 OFFCURVE",
"478 601 CURVE SMOOTH",
"332 601 OFFCURVE",
"203 493 OFFCURVE",
"168 342 CURVE SMOOTH",
"133 189 OFFCURVE",
"213 80 OFFCURVE",
"362 80 CURVE SMOOTH"
);
},
{
closed = 1;
nodes = (
"457 740 LINE",
"532 817 LINE",
"570 740 LINE",
"688 740 LINE",
"615 927 LINE",
"493 927 LINE",
"336 740 LINE"
);
},
{
closed = 1;
nodes = (
"501 911 LINE",
"605 911 LINE",
"664 756 LINE",
"580 756 LINE",
"536 845 LINE",
"451 756 LINE",
"370 756 LINE"
);
}
);
width = 803;
}
);
leftKerningGroup = C;
note = Ocircumflex.ss02;
rightKerningGroup = O;
},
{
glyphname = Odieresis.ss02;
lastChange = "2018-03-11 16:48:54 +0000";
layers = (
{
hints = (
{
horizontal = 1;
place = "{-15, 103}";
type = Stem;
},
{
horizontal = 1;
place = "{593, 102}";
type = Stem;
},
{
horizontal = 1;
place = "{760, 111}";
type = Stem;
},
{
place = "{53.45, 114.76}";
type = Stem;
},
{
place = "{671.93, 115.52}";
type = Stem;
}
);
layerId = "327F32D8-5A79-4D64-B4F5-E4A412D056ED";
paths = (
{
closed = 1;
nodes = (
"542 -26 OFFCURVE",
"741 135 OFFCURVE",
"785 338 CURVE SMOOTH",
"835 542 OFFCURVE",
"709 706 OFFCURVE",
"502 703 CURVE SMOOTH",
"298 706 OFFCURVE",
"100 546 OFFCURVE",
"56 342 CURVE SMOOTH",
"6 137 OFFCURVE",
"131 -26 OFFCURVE",
"338 -23 CURVE SMOOTH"
);
},
{
closed = 1;
nodes = (
"141 -10 OFFCURVE",
"24 143 OFFCURVE",
"72 338 CURVE SMOOTH",
"114 535 OFFCURVE",
"305 690 OFFCURVE",
"502 687 CURVE SMOOTH",
"698 690 OFFCURVE",
"817 536 OFFCURVE",
"769 342 CURVE SMOOTH",
"727 146 OFFCURVE",
"534 -10 OFFCURVE",
"338 -7 CURVE SMOOTH"
);
},
{
closed = 1;
nodes = (
"224 96 OFFCURVE",
"151 195 OFFCURVE",
"184 338 CURVE SMOOTH",
"217 483 OFFCURVE",
"340 585 OFFCURVE",
"478 585 CURVE SMOOTH",
"616 585 OFFCURVE",
"690 485 OFFCURVE",
"656 342 CURVE SMOOTH",
"623 196 OFFCURVE",
"502 96 OFFCURVE",
"362 96 CURVE SMOOTH"
);
},
{
closed = 1;
nodes = (
"510 80 OFFCURVE",
"637 186 OFFCURVE",
"672 338 CURVE SMOOTH",
"707 491 OFFCURVE",
"627 601 OFFCURVE",
"478 601 CURVE SMOOTH",
"332 601 OFFCURVE",
"203 493 OFFCURVE",
"168 342 CURVE SMOOTH",
"133 189 OFFCURVE",
"213 80 OFFCURVE",
"362 80 CURVE SMOOTH"
);
},
{
closed = 1;
nodes = (
"450 752 OFFCURVE",
"483 779 OFFCURVE",
"491 813 CURVE SMOOTH",
"499 849 OFFCURVE",
"476 879 OFFCURVE",
"441 879 CURVE SMOOTH",
"406 879 OFFCURVE",
"372 851 OFFCURVE",
"364 817 CURVE SMOOTH",
"356 782 OFFCURVE",
"380 752 OFFCURVE",
"416 752 CURVE SMOOTH"
);
},
{
closed = 1;
nodes = (
"390 768 OFFCURVE",
"374 788 OFFCURVE",
"380 813 CURVE SMOOTH",
"386 840 OFFCURVE",
"414 863 OFFCURVE",
"441 863 CURVE SMOOTH",
"466 863 OFFCURVE",
"481 843 OFFCURVE",
"475 817 CURVE SMOOTH",
"469 790 OFFCURVE",
"442 768 OFFCURVE",
"416 768 CURVE SMOOTH"
);
},
{
closed = 1;
nodes = (
"642 752 OFFCURVE",
"675 779 OFFCURVE",
"683 813 CURVE SMOOTH",
"691 849 OFFCURVE",
"668 879 OFFCURVE",
"633 879 CURVE SMOOTH",
"598 879 OFFCURVE",
"564 851 OFFCURVE",
"556 817 CURVE SMOOTH",
"548 782 OFFCURVE",
"572 752 OFFCURVE",
"608 752 CURVE SMOOTH"
);
},
{
closed = 1;
nodes = (
"582 768 OFFCURVE",
"566 788 OFFCURVE",
"572 813 CURVE SMOOTH",
"578 840 OFFCURVE",
"606 863 OFFCURVE",
"633 863 CURVE SMOOTH",
"658 863 OFFCURVE",
"673 843 OFFCURVE",
"667 817 CURVE SMOOTH",
"661 790 OFFCURVE",
"634 768 OFFCURVE",
"608 768 CURVE SMOOTH"
);
}
);
width = 803;
}
);
leftKerningGroup = C;
note = Odieresis.ss02;
rightKerningGroup = O;
},
{
glyphname = Ograve.ss02;
lastChange = "2018-03-11 16:48:54 +0000";
layers = (
{
hints = (
{
horizontal = 1;
place = "{-15, 103}";
type = Stem;
},
{
horizontal = 1;
place = "{593, 102}";
type = Stem;
},
{
horizontal = 1;
place = "{748, 171}";
type = Stem;
},
{
place = "{53.45, 114.76}";
type = Stem;
},
{
place = "{671.93, 115.52}";
type = Stem;
}
);
layerId = "327F32D8-5A79-4D64-B4F5-E4A412D056ED";
paths = (
{
closed = 1;
nodes = (
"542 -26 OFFCURVE",
"741 135 OFFCURVE",
"785 338 CURVE SMOOTH",
"835 542 OFFCURVE",
"709 706 OFFCURVE",
"502 703 CURVE SMOOTH",
"298 706 OFFCURVE",
"100 546 OFFCURVE",
"56 342 CURVE SMOOTH",
"6 137 OFFCURVE",
"131 -26 OFFCURVE",
"338 -23 CURVE SMOOTH"
);
},
{
closed = 1;
nodes = (
"141 -10 OFFCURVE",
"24 143 OFFCURVE",
"72 338 CURVE SMOOTH",
"114 535 OFFCURVE",
"305 690 OFFCURVE",
"502 687 CURVE SMOOTH",
"698 690 OFFCURVE",
"817 536 OFFCURVE",
"769 342 CURVE SMOOTH",
"727 146 OFFCURVE",
"534 -10 OFFCURVE",
"338 -7 CURVE SMOOTH"
);
},
{
closed = 1;
nodes = (
"224 96 OFFCURVE",
"151 195 OFFCURVE",
"184 338 CURVE SMOOTH",
"217 483 OFFCURVE",
"340 585 OFFCURVE",
"478 585 CURVE SMOOTH",
"616 585 OFFCURVE",
"690 485 OFFCURVE",
"656 342 CURVE SMOOTH",
"623 196 OFFCURVE",
"502 96 OFFCURVE",
"362 96 CURVE SMOOTH"
);
},
{
closed = 1;
nodes = (
"510 80 OFFCURVE",
"637 186 OFFCURVE",
"672 338 CURVE SMOOTH",
"707 491 OFFCURVE",
"627 601 OFFCURVE",
"478 601 CURVE SMOOTH",
"332 601 OFFCURVE",
"203 493 OFFCURVE",
"168 342 CURVE SMOOTH",
"133 189 OFFCURVE",
"213 80 OFFCURVE",
"362 80 CURVE SMOOTH"
);
},
{
closed = 1;
nodes = (
"575 740 LINE",
"519 927 LINE",
"367 927 LINE",
"458 740 LINE"
);
},
{
closed = 1;
nodes = (
"393 911 LINE",
"507 911 LINE",
"553 756 LINE",
"468 756 LINE"
);
}
);
width = 803;
}
);
leftKerningGroup = C;
note = Ograve.ss02;
rightKerningGroup = O;
},
{
glyphname = Ohungarumlaut.ss02;
lastChange = "2018-03-11 16:48:54 +0000";
layers = (
{
hints = (
{
horizontal = 1;
place = "{-15, 103}";
type = Stem;
},
{
horizontal = 1;
place = "{593, 102}";
type = Stem;
},
{
horizontal = 1;
place = "{748, 171}";
type = Stem;
},
{
place = "{53.45, 114.76}";
type = Stem;
},
{
place = "{671.93, 115.52}";
type = Stem;
}
);
layerId = "327F32D8-5A79-4D64-B4F5-E4A412D056ED";
paths = (
{
closed = 1;
nodes = (
"542 -26 OFFCURVE",
"741 135 OFFCURVE",
"785 338 CURVE SMOOTH",
"835 542 OFFCURVE",
"709 706 OFFCURVE",
"502 703 CURVE SMOOTH",
"298 706 OFFCURVE",
"100 546 OFFCURVE",
"56 342 CURVE SMOOTH",
"6 137 OFFCURVE",
"131 -26 OFFCURVE",
"338 -23 CURVE SMOOTH"
);
},
{
closed = 1;
nodes = (
"141 -10 OFFCURVE",
"24 143 OFFCURVE",
"72 338 CURVE SMOOTH",
"114 535 OFFCURVE",
"305 690 OFFCURVE",
"502 687 CURVE SMOOTH",
"698 690 OFFCURVE",
"817 536 OFFCURVE",
"769 342 CURVE SMOOTH",
"727 146 OFFCURVE",
"534 -10 OFFCURVE",
"338 -7 CURVE SMOOTH"
);
},
{
closed = 1;
nodes = (
"224 96 OFFCURVE",
"151 195 OFFCURVE",
"184 338 CURVE SMOOTH",
"217 483 OFFCURVE",
"340 585 OFFCURVE",
"478 585 CURVE SMOOTH",
"616 585 OFFCURVE",
"690 485 OFFCURVE",
"656 342 CURVE SMOOTH",
"623 196 OFFCURVE",
"502 96 OFFCURVE",
"362 96 CURVE SMOOTH"
);
},
{
closed = 1;
nodes = (
"510 80 OFFCURVE",
"637 186 OFFCURVE",
"672 338 CURVE SMOOTH",
"707 491 OFFCURVE",
"627 601 OFFCURVE",
"478 601 CURVE SMOOTH",
"332 601 OFFCURVE",
"203 493 OFFCURVE",
"168 342 CURVE SMOOTH",
"133 189 OFFCURVE",
"213 80 OFFCURVE",
"362 80 CURVE SMOOTH"
);
},
{
closed = 1;
nodes = (
"482 740 LINE",
"659 927 LINE",
"503 927 LINE",
"362 740 LINE"
);
},
{
closed = 1;
nodes = (
"511 911 LINE",
"621 911 LINE",
"476 756 LINE",
"394 756 LINE"
);
},
{
closed = 1;
nodes = (
"662 740 LINE",
"849 927 LINE",
"693 927 LINE",
"541 740 LINE"
);
},
{
closed = 1;
nodes = (
"701 911 LINE",
"811 911 LINE",
"656 756 LINE",
"575 756 LINE"
);
}
);
width = 803;
}
);
leftKerningGroup = C;
note = Ohungarumlaut.ss02;
rightKerningGroup = O;
},
{
glyphname = Omacron.ss02;
lastChange = "2018-03-11 16:48:54 +0000";
layers = (
{
hints = (
{
horizontal = 1;
place = "{-15, 103}";
type = Stem;
},
{
horizontal = 1;
place = "{593, 102}";
type = Stem;
},
{
horizontal = 1;
place = "{763, 90}";
type = Stem;
},
{
place = "{53.45, 114.76}";
type = Stem;
},
{
place = "{671.93, 115.52}";
type = Stem;
}
);
layerId = "327F32D8-5A79-4D64-B4F5-E4A412D056ED";
paths = (
{
closed = 1;
nodes = (
"542 -26 OFFCURVE",
"741 135 OFFCURVE",
"785 338 CURVE SMOOTH",
"835 542 OFFCURVE",
"709 706 OFFCURVE",
"502 703 CURVE SMOOTH",
"298 706 OFFCURVE",
"100 546 OFFCURVE",
"56 342 CURVE SMOOTH",
"6 137 OFFCURVE",
"131 -26 OFFCURVE",
"338 -23 CURVE SMOOTH"
);
},
{
closed = 1;
nodes = (
"141 -10 OFFCURVE",
"24 143 OFFCURVE",
"72 338 CURVE SMOOTH",
"114 535 OFFCURVE",
"305 690 OFFCURVE",
"502 687 CURVE SMOOTH",
"698 690 OFFCURVE",
"817 536 OFFCURVE",
"769 342 CURVE SMOOTH",
"727 146 OFFCURVE",
"534 -10 OFFCURVE",
"338 -7 CURVE SMOOTH"
);
},
{
closed = 1;
nodes = (
"224 96 OFFCURVE",
"151 195 OFFCURVE",
"184 338 CURVE SMOOTH",
"217 483 OFFCURVE",
"340 585 OFFCURVE",
"478 585 CURVE SMOOTH",
"616 585 OFFCURVE",
"690 485 OFFCURVE",
"656 342 CURVE SMOOTH",
"623 196 OFFCURVE",
"502 96 OFFCURVE",
"362 96 CURVE SMOOTH"
);
},
{
closed = 1;
nodes = (
"510 80 OFFCURVE",
"637 186 OFFCURVE",
"672 338 CURVE SMOOTH",
"707 491 OFFCURVE",
"627 601 OFFCURVE",
"478 601 CURVE SMOOTH",
"332 601 OFFCURVE",
"203 493 OFFCURVE",
"168 342 CURVE SMOOTH",
"133 189 OFFCURVE",
"213 80 OFFCURVE",
"362 80 CURVE SMOOTH"
);
},
{
closed = 1;
nodes = (
"662 755 LINE",
"687 861 LINE",
"394 861 LINE",
"369 755 LINE"
);
},
{
closed = 1;
nodes = (
"406 845 LINE",
"667 845 LINE",
"650 771 LINE",
"389 771 LINE"
);
}
);
width = 803;
}
);
leftKerningGroup = C;
note = Omacron.ss02;
rightKerningGroup = O;
},
{
glyphname = Oslash.ss02;
lastChange = "2018-03-11 16:48:54 +0000";
layers = (
{
hints = (
{
horizontal = 1;
place = "{-15, 103}";
type = Stem;
},
{
place = "{53.23, 115.14}";
type = Stem;
},
{
place = "{672.25, 115.78}";
type = Stem;
},
{
horizontal = 1;
place = "{593, 102}";
type = Stem;
}
);
layerId = "327F32D8-5A79-4D64-B4F5-E4A412D056ED";
paths = (
{
closed = 1;
nodes = (
"542 -26 OFFCURVE",
"741 135 OFFCURVE",
"785 338 CURVE SMOOTH",
"803 410 OFFCURVE",
"799 481 OFFCURVE",
"773 542 CURVE",
"877 622 LINE",
"807 712 LINE",
"706 634 LINE",
"653 680 OFFCURVE",
"582 704 OFFCURVE",
"502 703 CURVE SMOOTH",
"298 706 OFFCURVE",
"100 546 OFFCURVE",
"56 342 CURVE SMOOTH",
"39 272 OFFCURVE",
"42 203 OFFCURVE",
"65 144 CURVE",
"-35 66 LINE",
"35 -24 LINE",
"130 49 LINE",
"183 1 OFFCURVE",
"255 -24 OFFCURVE",
"338 -23 CURVE SMOOTH"
);
},
{
closed = 1;
nodes = (
"253 -8 OFFCURVE",
"181 19 OFFCURVE",
"132 71 CURVE",
"37 -2 LINE",
"-13 64 LINE",
"85 138 LINE",
"59 196 OFFCURVE",
"54 266 OFFCURVE",
"72 338 CURVE",
"114 535 OFFCURVE",
"305 690 OFFCURVE",
"502 687 CURVE SMOOTH",
"584 688 OFFCURVE",
"654 662 OFFCURVE",
"706 614 CURVE",
"805 690 LINE",
"855 624 LINE",
"753 546 LINE",
"782 488 OFFCURVE",
"788 416 OFFCURVE",
"769 342 CURVE",
"727 146 OFFCURVE",
"534 -10 OFFCURVE",
"338 -7 CURVE SMOOTH"
);
},
{
closed = 1;
nodes = (
"312 96 OFFCURVE",
"270 109 OFFCURVE",
"239 133 CURVE",
"659 454 LINE",
"667 421 OFFCURVE",
"666 383 OFFCURVE",
"656 342 CURVE SMOOTH",
"623 196 OFFCURVE",
"502 96 OFFCURVE",
"362 96 CURVE SMOOTH"
);
},
{
closed = 1;
nodes = (
"510 80 OFFCURVE",
"637 186 OFFCURVE",
"672 338 CURVE SMOOTH",
"684 391 OFFCURVE",
"683 440 OFFCURVE",
"668 481 CURVE",
"214 134 LINE",
"249 98 OFFCURVE",
"301 80 OFFCURVE",
"362 80 CURVE SMOOTH"
);
},
{
closed = 1;
nodes = (
"174 264 OFFCURVE",
"175 300 OFFCURVE",
"184 338 CURVE SMOOTH",
"217 483 OFFCURVE",
"340 585 OFFCURVE",
"478 585 CURVE SMOOTH",
"527 585 OFFCURVE",
"567 573 OFFCURVE",
"597 551 CURVE",
"180 231 LINE"
);
},
{
closed = 1;
nodes = (
"623 551 LINE",
"587 584 OFFCURVE",
"538 601 OFFCURVE",
"478 601 CURVE SMOOTH",
"332 601 OFFCURVE",
"203 493 OFFCURVE",
"168 342 CURVE SMOOTH",
"157 291 OFFCURVE",
"158 244 OFFCURVE",
"171 203 CURVE"
);
}
);
width = 803;
}
);
leftKerningGroup = C;
note = Oslash.ss02;
rightKerningGroup = O;
},
{
glyphname = Otilde.ss02;
lastChange = "2018-03-11 16:48:54 +0000";
layers = (
{
hints = (
{
horizontal = 1;
place = "{-15, 103}";
type = Stem;
},
{
horizontal = 1;
place = "{593, 102}";
type = Stem;
},
{
horizontal = 1;
place = "{743, 90}";
type = Stem;
},
{
place = "{53.45, 114.76}";
type = Stem;
},
{
place = "{671.93, 115.52}";
type = Stem;
},
{
horizontal = 1;
place = "{797, 90}";
type = Stem;
}
);
layerId = "327F32D8-5A79-4D64-B4F5-E4A412D056ED";
paths = (
{
closed = 1;
nodes = (
"542 -26 OFFCURVE",
"741 135 OFFCURVE",
"785 338 CURVE SMOOTH",
"835 542 OFFCURVE",
"709 706 OFFCURVE",
"502 703 CURVE SMOOTH",
"298 706 OFFCURVE",
"100 546 OFFCURVE",
"56 342 CURVE SMOOTH",
"6 137 OFFCURVE",
"131 -26 OFFCURVE",
"338 -23 CURVE SMOOTH"
);
},
{
closed = 1;
nodes = (
"141 -10 OFFCURVE",
"24 143 OFFCURVE",
"72 338 CURVE SMOOTH",
"114 535 OFFCURVE",
"305 690 OFFCURVE",
"502 687 CURVE SMOOTH",
"698 690 OFFCURVE",
"817 536 OFFCURVE",
"769 342 CURVE SMOOTH",
"727 146 OFFCURVE",
"534 -10 OFFCURVE",
"338 -7 CURVE SMOOTH"
);
},
{
closed = 1;
nodes = (
"224 96 OFFCURVE",
"151 195 OFFCURVE",
"184 338 CURVE SMOOTH",
"217 483 OFFCURVE",
"340 585 OFFCURVE",
"478 585 CURVE SMOOTH",
"616 585 OFFCURVE",
"690 485 OFFCURVE",
"656 342 CURVE SMOOTH",
"623 196 OFFCURVE",
"502 96 OFFCURVE",
"362 96 CURVE SMOOTH"
);
},
{
closed = 1;
nodes = (
"510 80 OFFCURVE",
"637 186 OFFCURVE",
"672 338 CURVE SMOOTH",
"707 491 OFFCURVE",
"627 601 OFFCURVE",
"478 601 CURVE SMOOTH",
"332 601 OFFCURVE",
"203 493 OFFCURVE",
"168 342 CURVE SMOOTH",
"133 189 OFFCURVE",
"213 80 OFFCURVE",
"362 80 CURVE SMOOTH"
);
},
{
closed = 1;
nodes = (
"639 735 OFFCURVE",
"685 779 OFFCURVE",
"713 855 CURVE",
"623 890 LINE",
"612 868 OFFCURVE",
"606 841 OFFCURVE",
"587 841 CURVE SMOOTH",
"578 841 OFFCURVE",
"566 848 OFFCURVE",
"545 866 CURVE",
"540 868 LINE",
"558 868 LINE",
"559 869 LINE",
"542 869 LINE",
"527 881 OFFCURVE",
"504 895 OFFCURVE",
"472 895 CURVE SMOOTH",
"419 895 OFFCURVE",
"373 851 OFFCURVE",
"345 775 CURVE",
"435 740 LINE",
"446 762 OFFCURVE",
"452 789 OFFCURVE",
"471 789 CURVE SMOOTH",
"480 789 OFFCURVE",
"492 782 OFFCURVE",
"513 764 CURVE",
"518 762 LINE",
"500 762 LINE",
"499 761 LINE",
"516 761 LINE",
"531 749 OFFCURVE",
"554 735 OFFCURVE",
"586 735 CURVE SMOOTH"
);
},
{
closed = 1;
nodes = (
"564 751 OFFCURVE",
"546 758 OFFCURVE",
"524 775 CURVE",
"519 777 LINE",
"537 777 LINE",
"538 778 LINE",
"521 778 LINE",
"506 791 OFFCURVE",
"488 805 OFFCURVE",
"471 805 CURVE SMOOTH",
"445 805 OFFCURVE",
"435 780 OFFCURVE",
"427 760 CURVE",
"365 784 LINE",
"391 845 OFFCURVE",
"430 879 OFFCURVE",
"472 879 CURVE SMOOTH",
"494 879 OFFCURVE",
"512 872 OFFCURVE",
"534 855 CURVE",
"539 853 LINE",
"521 853 LINE",
"520 852 LINE",
"537 852 LINE",
"552 839 OFFCURVE",
"570 825 OFFCURVE",
"587 825 CURVE SMOOTH",
"613 825 OFFCURVE",
"623 850 OFFCURVE",
"631 870 CURVE",
"693 846 LINE",
"667 785 OFFCURVE",
"628 751 OFFCURVE",
"586 751 CURVE SMOOTH"
);
}
);
width = 803;
}
);
leftKerningGroup = C;
note = Otilde.ss02;
rightKerningGroup = O;
},
{
glyphname = P.ss02;
lastChange = "2018-03-11 16:48:54 +0000";
layers = (
{
hints = (
{
horizontal = 1;
place = "{302, 102}";
type = Stem;
},
{
horizontal = 1;
place = "{591, 108}";
type = Stem;
},
{
place = "{673.8, 114.5}";
type = Stem;
},
{
horizontal = 1;
place = "{287, 108}";
type = Stem;
}
);
layerId = "327F32D8-5A79-4D64-B4F5-E4A412D056ED";
paths = (
{
closed = 1;
nodes = (
"304 -8 LINE",
"441 583 LINE",
"600 583 LINE SMOOTH",
"647 583 OFFCURVE",
"675 544 OFFCURVE",
"663 495 CURVE",
"652 442 OFFCURVE",
"599 399 OFFCURVE",
"549 403 CURVE",
"520 279 LINE",
"641 274 OFFCURVE",
"763 371 OFFCURVE",
"791 491 CURVE SMOOTH",
"818 610 OFFCURVE",
"743 707 OFFCURVE",
"625 707 CURVE SMOOTH",
"336 707 LINE",
"268 412 LINE",
"78 412 LINE",
"50 294 LINE",
"240 294 LINE",
"170 -8 LINE"
);
},
{
closed = 1;
nodes = (
"260 310 LINE",
"70 310 LINE",
"90 396 LINE",
"280 396 LINE",
"348 691 LINE",
"625 691 LINE SMOOTH",
"733 691 OFFCURVE",
"800 604 OFFCURVE",
"775 495 CURVE SMOOTH",
"751 388 OFFCURVE",
"646 301 OFFCURVE",
"540 295 CURVE",
"561 387 LINE",
"615 391 OFFCURVE",
"666 436 OFFCURVE",
"679 491 CURVE SMOOTH",
"693 550 OFFCURVE",
"657 599 OFFCURVE",
"600 599 CURVE SMOOTH",
"429 599 LINE",
"292 8 LINE",
"190 8 LINE"
);
}
);
width = 821;
}
);
note = P.ss02;
rightKerningGroup = P;
},
{
glyphname = Q.ss02;
lastChange = "2018-03-11 16:48:54 +0000";
layers = (
{
hints = (
{
horizontal = 1;
place = "{604, 110}";
type = Stem;
},
{
place = "{80.75, 121.28}";
type = Stem;
},
{
place = "{706.72, 121.69}";
type = Stem;
}
);
layerId = "327F32D8-5A79-4D64-B4F5-E4A412D056ED";
paths = (
{
closed = 1;
nodes = (
"412 -145 LINE",
"442 -17 LINE",
"623 16 OFFCURVE",
"785 169 OFFCURVE",
"827 347 CURVE SMOOTH",
"874 554 OFFCURVE",
"745 722 OFFCURVE",
"539 722 CURVE SMOOTH",
"334 722 OFFCURVE",
"129 555 OFFCURVE",
"82 351 CURVE SMOOTH",
"40 169 OFFCURVE",
"136 13 OFFCURVE",
"307 -17 CURVE",
"278 -145 LINE"
);
},
{
closed = 1;
nodes = (
"327 -4 LINE",
"155 18 OFFCURVE",
"57 168 OFFCURVE",
"98 347 CURVE SMOOTH",
"143 544 OFFCURVE",
"342 706 OFFCURVE",
"539 706 CURVE SMOOTH",
"734 706 OFFCURVE",
"856 547 OFFCURVE",
"811 351 CURVE SMOOTH",
"770 175 OFFCURVE",
"608 25 OFFCURVE",
"428 -3 CURVE",
"400 -129 LINE",
"298 -129 LINE"
);
},
{
closed = 1;
nodes = (
"240 138 OFFCURVE",
"191 236 OFFCURVE",
"217 347 CURVE SMOOTH",
"248 484 OFFCURVE",
"381 596 OFFCURVE",
"514 596 CURVE SMOOTH",
"644 596 OFFCURVE",
"723 487 OFFCURVE",
"692 351 CURVE SMOOTH",
"667 242 OFFCURVE",
"578 146 OFFCURVE",
"472 113 CURVE",
"499 230 LINE",
"365 230 LINE",
"336 110 LINE"
);
},
{
closed = 1;
nodes = (
"377 214 LINE",
"479 214 LINE",
"450 91 LINE",
"573 117 OFFCURVE",
"680 224 OFFCURVE",
"708 347 CURVE SMOOTH",
"741 493 OFFCURVE",
"654 612 OFFCURVE",
"514 612 CURVE SMOOTH",
"374 612 OFFCURVE",
"234 495 OFFCURVE",
"201 351 CURVE SMOOTH",
"172 225 OFFCURVE",
"234 115 OFFCURVE",
"348 90 CURVE"
);
}
);
width = 867;
}
);
leftKerningGroup = C;
note = Q.ss02;
rightKerningGroup = O;
},
{
glyphname = R.ss02;
lastChange = "2018-03-11 16:48:54 +0000";
layers = (
{
hints = (
{
horizontal = 1;
place = "{302, 102}";
type = Stem;
},
{
horizontal = 1;
place = "{612, 102}";
type = Stem;
},
{
place = "{566.6, 121.31}";
type = Stem;
}
);
layerId = "327F32D8-5A79-4D64-B4F5-E4A412D056ED";
paths = (
{
closed = 1;
nodes = (
"167 -8 LINE",
"237 294 LINE",
"331 294 LINE",
"460 -8 LINE",
"613 -8 LINE",
"479 300 LINE",
"581 321 OFFCURVE",
"667 405 OFFCURVE",
"690 503 CURVE SMOOTH",
"719 630 OFFCURVE",
"648 722 OFFCURVE",
"519 722 CURVE SMOOTH",
"304 722 LINE",
"277 604 LINE",
"495 604 LINE SMOOTH",
"539 604 OFFCURVE",
"568 559 OFFCURVE",
"556 507 CURVE SMOOTH",
"544 455 OFFCURVE",
"494 412 OFFCURVE",
"447 412 CURVE SMOOTH",
"132 412 LINE",
"34 -8 LINE"
);
},
{
closed = 1;
nodes = (
"144 396 LINE",
"447 396 LINE SMOOTH",
"502 396 OFFCURVE",
"558 444 OFFCURVE",
"572 503 CURVE SMOOTH",
"586 565 OFFCURVE",
"550 620 OFFCURVE",
"495 620 CURVE SMOOTH",
"297 620 LINE",
"316 706 LINE",
"519 706 LINE SMOOTH",
"638 706 OFFCURVE",
"701 624 OFFCURVE",
"674 507 CURVE SMOOTH",
"652 408 OFFCURVE",
"560 325 OFFCURVE",
"457 312 CURVE",
"589 8 LINE",
"470 8 LINE",
"341 310 LINE",
"225 310 LINE",
"155 8 LINE",
"54 8 LINE"
);
}
);
width = 733;
}
);
note = R.ss02;
rightKerningGroup = R;
},
{
glyphname = S.ss02;
lastChange = "2018-03-11 16:48:54 +0000";
layers = (
{
hints = (
{
horizontal = 1;
place = "{602, 112}";
type = Stem;
},
{
place = "{436.34, 110.74}";
type = Stem;
}
);
layerId = "327F32D8-5A79-4D64-B4F5-E4A412D056ED";
paths = (
{
closed = 1;
nodes = (
"509 -8 LINE",
"244 516 LINE",
"249 516 LINE",
"264 560 OFFCURVE",
"310 594 OFFCURVE",
"357 594 CURVE SMOOTH",
"410 594 OFFCURVE",
"441 551 OFFCURVE",
"423 500 CURVE",
"548 500 LINE",
"579 620 OFFCURVE",
"501 722 OFFCURVE",
"378 722 CURVE SMOOTH",
"252 722 OFFCURVE",
"121 616 OFFCURVE",
"95 492 CURVE",
"348 -8 LINE"
);
},
{
closed = 1;
nodes = (
"111 494 LINE",
"139 609 OFFCURVE",
"261 706 OFFCURVE",
"378 706 CURVE SMOOTH",
"486 706 OFFCURVE",
"556 621 OFFCURVE",
"536 516 CURVE",
"444 516 LINE",
"450 568 OFFCURVE",
"413 610 OFFCURVE",
"357 610 CURVE SMOOTH",
"299 610 OFFCURVE",
"243 566 OFFCURVE",
"230 510 CURVE",
"238 500 LINE",
"234 500 LINE",
"483 8 LINE",
"358 8 LINE"
);
}
);
width = 602;
}
);
leftKerningGroup = S.ss02;
note = S.ss02;
rightKerningGroup = S.ss02;
},
{
glyphname = T.ss02;
lastChange = "2018-03-11 16:48:54 +0000";
layers = (
{
hints = (
{
horizontal = 1;
place = "{598, 101}";
type = Stem;
},
{
place = "{116, 676}";
type = Stem;
}
);
layerId = "327F32D8-5A79-4D64-B4F5-E4A412D056ED";
paths = (
{
closed = 1;
nodes = (
"426 244 LINE",
"506 590 LINE",
"774 590 LINE",
"802 707 LINE",
"134 707 LINE",
"106 590 LINE",
"373 590 LINE",
"293 244 LINE"
);
},
{
closed = 1;
nodes = (
"393 606 LINE",
"126 606 LINE",
"146 691 LINE",
"782 691 LINE",
"762 606 LINE",
"494 606 LINE",
"414 260 LINE",
"313 260 LINE"
);
}
);
width = 728;
}
);
leftKerningGroup = T;
note = T.ss02;
rightKerningGroup = T;
},
{
glyphname = U.ss02;
lastChange = "2018-03-11 16:48:54 +0000";
layers = (
{
hints = (
{
horizontal = 1;
place = "{-15, 109}";
type = Stem;
},
{
place = "{100.63, 122.88}";
type = Stem;
}
);
layerId = "327F32D8-5A79-4D64-B4F5-E4A412D056ED";
paths = (
{
closed = 1;
nodes = (
"491 -23 OFFCURVE",
"629 87 OFFCURVE",
"667 252 CURVE SMOOTH",
"772 707 LINE",
"639 707 LINE",
"537 267 LINE SMOOTH",
"515 172 OFFCURVE",
"434 102 OFFCURVE",
"347 102 CURVE SMOOTH",
"261 102 OFFCURVE",
"215 170 OFFCURVE",
"237 263 CURVE SMOOTH",
"339 707 LINE",
"206 707 LINE",
"101 256 LINE SMOOTH",
"63 89 OFFCURVE",
"152 -23 OFFCURVE",
"322 -23 CURVE SMOOTH"
);
},
{
closed = 1;
nodes = (
"162 -7 OFFCURVE",
"81 95 OFFCURVE",
"117 252 CURVE SMOOTH",
"218 691 LINE",
"319 691 LINE",
"221 267 LINE SMOOTH",
"197 163 OFFCURVE",
"251 86 OFFCURVE",
"347 86 CURVE SMOOTH",
"442 86 OFFCURVE",
"529 161 OFFCURVE",
"553 263 CURVE SMOOTH",
"651 691 LINE",
"752 691 LINE",
"651 256 LINE SMOOTH",
"615 98 OFFCURVE",
"484 -7 OFFCURVE",
"322 -7 CURVE SMOOTH"
);
}
);
width = 770;
}
);
leftKerningGroup = U;
note = U.ss02;
rightKerningGroup = U;
},
{
glyphname = V.ss02;
lastChange = "2018-03-11 16:48:54 +0000";
layers = (
{
hints = (
{
place = "{122, 662}";
type = Stem;
}
);
layerId = "327F32D8-5A79-4D64-B4F5-E4A412D056ED";
paths = (
{
closed = 1;
nodes = (
"357 246 LINE",
"803 707 LINE",
"645 707 LINE",
"394 452 LINE",
"264 707 LINE",
"109 707 LINE",
"341 246 LINE"
);
},
{
closed = 1;
nodes = (
"135 691 LINE",
"254 691 LINE",
"390 424 LINE",
"651 691 LINE",
"765 691 LINE",
"351 262 LINE",
"351 262 LINE"
);
}
);
width = 702;
}
);
leftKerningGroup = V.ss02;
note = V.ss02;
rightKerningGroup = V.ss02;
},
{
glyphname = W.ss02;
lastChange = "2018-03-11 16:48:54 +0000";
layers = (
{
hints = (
{
place = "{123, 1017}";
type = Stem;
}
);
layerId = "327F32D8-5A79-4D64-B4F5-E4A412D056ED";
paths = (
{
closed = 1;
nodes = (
"714 70 LINE",
"1159 531 LINE",
"1001 531 LINE",
"751 277 LINE",
"625 522 LINE",
"804 707 LINE",
"645 707 LINE",
"395 452 LINE",
"264 707 LINE",
"110 707 LINE",
"341 246 LINE",
"358 246 LINE",
"524 416 LINE",
"697 70 LINE"
);
},
{
closed = 1;
nodes = (
"528 444 LINE",
"352 262 LINE",
"351 262 LINE",
"136 691 LINE",
"254 691 LINE",
"391 424 LINE",
"651 691 LINE",
"766 691 LINE",
"605 524 LINE",
"747 249 LINE",
"1007 515 LINE",
"1121 515 LINE",
"708 86 LINE",
"707 86 LINE"
);
}
);
width = 1101;
}
);
leftKerningGroup = V;
note = W.ss02;
rightKerningGroup = V;
},
{
glyphname = X.ss02;
lastChange = "2018-03-11 16:48:54 +0000";
layers = (
{
hints = (
{
place = "{132, 673}";
type = Stem;
}
);
layerId = "327F32D8-5A79-4D64-B4F5-E4A412D056ED";
paths = (
{
closed = 1;
nodes = (
"646 -8 LINE",
"467 345 LINE",
"824 707 LINE",
"660 707 LINE",
"408 451 LINE",
"277 707 LINE",
"119 707 LINE",
"482 -8 LINE"
);
},
{
closed = 1;
nodes = (
"145 691 LINE",
"267 691 LINE",
"404 425 LINE",
"666 691 LINE",
"786 691 LINE",
"447 349 LINE",
"620 8 LINE",
"492 8 LINE"
);
}
);
width = 762;
}
);
leftKerningGroup = X;
note = X.ss02;
rightKerningGroup = X;
},
{
glyphname = Y.ss02;
lastChange = "2018-03-11 16:48:54 +0000";
layers = (
{
hints = (
{
place = "{114, 688}";
type = Stem;
}
);
layerId = "327F32D8-5A79-4D64-B4F5-E4A412D056ED";
paths = (
{
closed = 1;
nodes = (
"368 -8 LINE",
"443 315 LINE",
"821 707 LINE",
"651 707 LINE",
"398 442 LINE",
"254 707 LINE",
"101 707 LINE",
"311 319 LINE",
"235 -8 LINE"
);
},
{
closed = 1;
nodes = (
"327 321 LINE",
"127 691 LINE",
"244 691 LINE",
"394 416 LINE",
"657 691 LINE",
"783 691 LINE",
"429 323 LINE",
"356 8 LINE",
"255 8 LINE"
);
}
);
width = 720;
}
);
leftKerningGroup = Y;
note = Y.ss02;
rightKerningGroup = Y;
},
{
glyphname = Z.ss02;
lastChange = "2018-03-11 16:48:54 +0000";
layers = (
{
hints = (
{
horizontal = 1;
place = "{0, 102}";
type = Stem;
},
{
horizontal = 1;
place = "{597, 102}";
type = Stem;
},
{
place = "{-19, 717}";
type = Stem;
}
);
layerId = "327F32D8-5A79-4D64-B4F5-E4A412D056ED";
paths = (
{
closed = 1;
nodes = (
"658 -8 LINE",
"480 383 LINE",
"683 603 LINE",
"708 707 LINE",
"197 707 LINE",
"169 589 LINE",
"514 589 LINE",
"-37 -8 LINE"
);
},
{
closed = 1;
nodes = (
"550 605 LINE",
"189 605 LINE",
"209 691 LINE",
"688 691 LINE",
"669 611 LINE",
"462 387 LINE",
"634 8 LINE",
"-1 8 LINE"
);
},
{
closed = 1;
nodes = (
"378 272 LINE",
"452 110 LINE",
"229 110 LINE"
);
},
{
closed = 1;
nodes = (
"476 94 LINE",
"382 300 LINE",
"193 94 LINE"
);
}
);
width = 733;
}
);
leftKerningGroup = Z;
note = Z.ss02;
},
{
glyphname = A.ss03;
lastChange = "2018-03-11 16:48:54 +0000";
layers = (
{
hints = (
{
horizontal = 1;
place = "{0, 105}";
type = Stem;
},
{
place = "{-39, 759}";
type = Stem;
}
);
layerId = "327F32D8-5A79-4D64-B4F5-E4A412D056ED";
paths = (
{
closed = 1;
nodes = (
"732 -8 LINE",
"412 708 LINE",
"259 708 LINE",
"378 436 LINE",
"-58 -8 LINE"
);
},
{
closed = 1;
nodes = (
"398 432 LINE",
"283 692 LINE",
"402 692 LINE",
"708 8 LINE",
"-20 8 LINE"
);
},
{
closed = 1;
nodes = (
"427 324 LINE",
"521 113 LINE",
"222 113 LINE"
);
},
{
closed = 1;
nodes = (
"545 97 LINE",
"431 352 LINE",
"184 97 LINE"
);
}
);
width = 801;
}
);
leftKerningGroup = A.ss03;
note = A.ss03;
rightKerningGroup = A;
},
{
glyphname = AE.ss03;
lastChange = "2018-03-11 16:48:54 +0000";
layers = (
{
hints = (
{
horizontal = 1;
place = "{0, 102}";
type = Stem;
},
{
horizontal = 1;
place = "{302, 102}";
type = Stem;
},
{
horizontal = 1;
place = "{597, 102}";
type = Stem;
},
{
place = "{-35, 1021}";
type = Stem;
}
);
layerId = "327F32D8-5A79-4D64-B4F5-E4A412D056ED";
paths = (
{
closed = 1;
nodes = (
"830 -8 LINE",
"858 110 LINE",
"577 110 LINE",
"619 294 LINE",
"810 294 LINE",
"838 412 LINE",
"647 412 LINE",
"687 589 LINE",
"968 589 LINE",
"996 707 LINE",
"583 707 LINE",
"-53 -8 LINE"
);
},
{
closed = 1;
nodes = (
"591 691 LINE",
"976 691 LINE",
"956 605 LINE",
"675 605 LINE",
"627 396 LINE",
"818 396 LINE",
"798 310 LINE",
"607 310 LINE",
"557 94 LINE",
"838 94 LINE",
"818 8 LINE",
"-17 8 LINE"
);
},
{
closed = 1;
nodes = (
"531 492 LINE",
"443 110 LINE",
"203 110 LINE"
);
},
{
closed = 1;
nodes = (
"455 94 LINE",
"561 552 LINE",
"169 94 LINE"
);
}
);
width = 980;
}
);
leftKerningGroup = A;
note = AE.ss03;
rightKerningGroup = AE;
},
{
glyphname = B.ss03;
lastChange = "2018-03-11 16:48:54 +0000";
layers = (
{
hints = (
{
horizontal = 1;
place = "{0, 102}";
type = Stem;
},
{
horizontal = 1;
place = "{303, 102}";
type = Stem;
},
{
horizontal = 1;
place = "{613, 102}";
type = Stem;
},
{
place = "{531.32, 121.46}";
type = Stem;
},
{
place = "{533.54, 119.54}";
type = Stem;
}
);
layerId = "327F32D8-5A79-4D64-B4F5-E4A412D056ED";
paths = (
{
closed = 1;
nodes = (
"367 -8 LINE SMOOTH",
"523 -8 OFFCURVE",
"626 66 OFFCURVE",
"657 200 CURVE SMOOTH",
"675 280 OFFCURVE",
"635 354 OFFCURVE",
"560 381 CURVE",
"603 405 OFFCURVE",
"643 460 OFFCURVE",
"655 512 CURVE SMOOTH",
"685 643 OFFCURVE",
"607 725 OFFCURVE",
"455 723 CURVE",
"428 605 LINE",
"494 609 OFFCURVE",
"533 570 OFFCURVE",
"521 516 CURVE SMOOTH",
"508 454 OFFCURVE",
"452 413 OFFCURVE",
"384 413 CURVE SMOOTH",
"132 413 LINE",
"34 -8 LINE"
);
},
{
closed = 1;
nodes = (
"144 397 LINE",
"384 397 LINE SMOOTH",
"460 397 OFFCURVE",
"521 443 OFFCURVE",
"537 512 CURVE SMOOTH",
"550 571 OFFCURVE",
"512 616 OFFCURVE",
"448 621 CURVE",
"467 707 LINE",
"601 705 OFFCURVE",
"666 633 OFFCURVE",
"639 516 CURVE SMOOTH",
"624 449 OFFCURVE",
"556 375 OFFCURVE",
"507 386 CURVE",
"506 376 LINE",
"603 371 OFFCURVE",
"662 292 OFFCURVE",
"641 204 CURVE SMOOTH",
"612 77 OFFCURVE",
"516 8 OFFCURVE",
"367 8 CURVE SMOOTH",
"54 8 LINE"
);
},
{
closed = 1;
nodes = (
"238 295 LINE",
"406 295 LINE SMOOTH",
"493 295 OFFCURVE",
"536 261 OFFCURVE",
"523 204 CURVE SMOOTH",
"508 141 OFFCURVE",
"465 110 OFFCURVE",
"391 110 CURVE SMOOTH",
"196 110 LINE"
);
},
{
closed = 1;
nodes = (
"391 94 LINE SMOOTH",
"471 94 OFFCURVE",
"522 130 OFFCURVE",
"539 200 CURVE SMOOTH",
"555 268 OFFCURVE",
"503 311 OFFCURVE",
"406 311 CURVE SMOOTH",
"226 311 LINE",
"176 94 LINE"
);
}
);
width = 740;
}
);
note = B.ss03;
rightKerningGroup = B;
},
{
glyphname = C.ss03;
lastChange = "2018-03-11 16:48:54 +0000";
layers = (
{
hints = (
{
horizontal = 1;
place = "{-14, 109}";
type = Stem;
},
{
horizontal = 1;
place = "{590, 109}";
type = Stem;
},
{
place = "{95.86, 122.55}";
type = Stem;
}
);
layerId = "327F32D8-5A79-4D64-B4F5-E4A412D056ED";
paths = (
{
closed = 1;
nodes = (
"470 103 LINE",
"333 100 OFFCURVE",
"192 161 OFFCURVE",
"234 338 CURVE SMOOTH",
"273 510 OFFCURVE",
"432 579 OFFCURVE",
"565 582 CURVE",
"516 370 LINE",
"649 370 LINE",
"727 707 LINE",
"600 707 LINE SMOOTH",
"396 707 OFFCURVE",
"159 603 OFFCURVE",
"99 342 CURVE SMOOTH",
"38 77 OFFCURVE",
"235 -24 OFFCURVE",
"441 -22 CURVE"
);
},
{
closed = 1;
nodes = (
"231 -4 OFFCURVE",
"58 91 OFFCURVE",
"115 338 CURVE SMOOTH",
"173 591 OFFCURVE",
"400 691 OFFCURVE",
"600 691 CURVE SMOOTH",
"707 691 LINE",
"637 386 LINE",
"536 386 LINE",
"585 598 LINE",
"446 601 OFFCURVE",
"261 530 OFFCURVE",
"218 342 CURVE SMOOTH",
"176 161 OFFCURVE",
"315 90 OFFCURVE",
"450 87 CURVE",
"429 -6 LINE"
);
}
);
width = 714;
}
);
leftKerningGroup = C;
note = C.ss03;
},
{
glyphname = Ccedilla.ss03;
lastChange = "2018-03-11 16:48:54 +0000";
layers = (
{
hints = (
{
horizontal = 1;
place = "{590, 109}";
type = Stem;
},
{
place = "{96.07, 122.34}";
type = Stem;
}
);
layerId = "327F32D8-5A79-4D64-B4F5-E4A412D056ED";
paths = (
{
closed = 1;
nodes = (
"388 -257 LINE",
"456 37 LINE",
"455 37 LINE",
"470 103 LINE",
"333 100 OFFCURVE",
"192 161 OFFCURVE",
"234 338 CURVE SMOOTH",
"273 510 OFFCURVE",
"432 579 OFFCURVE",
"565 582 CURVE",
"516 370 LINE",
"649 370 LINE",
"727 707 LINE",
"600 707 LINE SMOOTH",
"396 707 OFFCURVE",
"159 603 OFFCURVE",
"99 342 CURVE SMOOTH",
"57 159 OFFCURVE",
"135 32 OFFCURVE",
"313 -9 CURVE",
"256 -257 LINE"
);
},
{
closed = 1;
nodes = (
"333 3 LINE",
"152 38 OFFCURVE",
"73 158 OFFCURVE",
"115 338 CURVE SMOOTH",
"173 591 OFFCURVE",
"400 691 OFFCURVE",
"600 691 CURVE SMOOTH",
"707 691 LINE",
"637 386 LINE",
"536 386 LINE",
"585 598 LINE",
"446 601 OFFCURVE",
"261 530 OFFCURVE",
"218 342 CURVE SMOOTH",
"176 161 OFFCURVE",
"315 90 OFFCURVE",
"450 87 CURVE",
"435 21 LINE",
"436 21 LINE",
"376 -241 LINE",
"276 -241 LINE"
);
}
);
width = 714;
}
);
leftKerningGroup = C;
note = Ccedilla.ss03;
},
{
glyphname = D.ss03;
lastChange = "2018-03-11 16:48:54 +0000";
layers = (
{
hints = (
{
horizontal = 1;
place = "{-14, 109}";
type = Stem;
},
{
horizontal = 1;
place = "{277, 102}";
type = Stem;
},
{
horizontal = 1;
place = "{591, 109}";
type = Stem;
},
{
place = "{539.68, 121.22}";
type = Stem;
}
);
layerId = "327F32D8-5A79-4D64-B4F5-E4A412D056ED";
paths = (
{
closed = 1;
nodes = (
"353 -25 OFFCURVE",
"596 76 OFFCURVE",
"657 340 CURVE SMOOTH",
"718 603 OFFCURVE",
"536 708 OFFCURVE",
"341 708 CURVE SMOOTH",
"200 708 LINE",
"98 269 LINE",
"366 269 LINE",
"394 387 LINE",
"259 387 LINE",
"304 583 LINE",
"482 581 OFFCURVE",
"559 497 OFFCURVE",
"523 344 CURVE SMOOTH",
"483 166 OFFCURVE",
"312 101 OFFCURVE",
"177 103 CURVE",
"148 -22 LINE"
);
},
{
closed = 1;
nodes = (
"189 87 LINE",
"326 89 OFFCURVE",
"498 160 OFFCURVE",
"539 340 CURVE SMOOTH",
"578 507 OFFCURVE",
"488 601 OFFCURVE",
"292 599 CURVE",
"239 371 LINE",
"374 371 LINE",
"354 285 LINE",
"118 285 LINE",
"212 692 LINE",
"341 692 LINE SMOOTH",
"532 692 OFFCURVE",
"700 595 OFFCURVE",
"641 344 CURVE SMOOTH",
"584 96 OFFCURVE",
"365 -3 OFFCURVE",
"168 -6 CURVE"
);
}
);
width = 705;
}
);
note = D.ss03;
},
